G04 EAGLE Gerber RS-274X export*
G75*
%MOMM*%
%FSLAX34Y34*%
%LPD*%
%INSilkscreen Top*%
%IPPOS*%
%AMOC8*
5,1,8,0,0,1.08239X$1,22.5*%
G01*
%ADD10C,0.101600*%
%ADD11C,0.127000*%
%ADD12C,0.203200*%
%ADD13C,0.152400*%
%ADD14R,10.668000X0.762000*%
%ADD15R,1.905000X0.508000*%
%ADD16R,0.762000X0.508000*%
%ADD17C,0.254000*%
%ADD18C,0.025400*%


D10*
X262228Y336506D02*
X262226Y336613D01*
X262220Y336719D01*
X262210Y336825D01*
X262197Y336931D01*
X262179Y337037D01*
X262158Y337141D01*
X262133Y337245D01*
X262104Y337348D01*
X262072Y337449D01*
X262035Y337549D01*
X261995Y337648D01*
X261952Y337746D01*
X261905Y337842D01*
X261854Y337936D01*
X261800Y338028D01*
X261743Y338118D01*
X261683Y338206D01*
X261619Y338291D01*
X261552Y338374D01*
X261482Y338455D01*
X261410Y338533D01*
X261334Y338609D01*
X261256Y338681D01*
X261175Y338751D01*
X261092Y338818D01*
X261007Y338882D01*
X260919Y338942D01*
X260829Y338999D01*
X260737Y339053D01*
X260643Y339104D01*
X260547Y339151D01*
X260449Y339194D01*
X260350Y339234D01*
X260250Y339271D01*
X260149Y339303D01*
X260046Y339332D01*
X259942Y339357D01*
X259838Y339378D01*
X259732Y339396D01*
X259626Y339409D01*
X259520Y339419D01*
X259414Y339425D01*
X259307Y339427D01*
X259186Y339425D01*
X259065Y339419D01*
X258945Y339409D01*
X258824Y339396D01*
X258705Y339378D01*
X258585Y339357D01*
X258467Y339332D01*
X258350Y339303D01*
X258233Y339270D01*
X258118Y339234D01*
X258004Y339193D01*
X257891Y339150D01*
X257779Y339102D01*
X257670Y339051D01*
X257562Y338996D01*
X257455Y338938D01*
X257351Y338877D01*
X257249Y338812D01*
X257149Y338744D01*
X257051Y338673D01*
X256955Y338599D01*
X256862Y338522D01*
X256772Y338441D01*
X256684Y338358D01*
X256599Y338272D01*
X256516Y338183D01*
X256437Y338092D01*
X256360Y337998D01*
X256287Y337902D01*
X256217Y337804D01*
X256150Y337703D01*
X256086Y337600D01*
X256026Y337495D01*
X255969Y337388D01*
X255915Y337280D01*
X255865Y337170D01*
X255819Y337058D01*
X255776Y336945D01*
X255737Y336830D01*
X261255Y334234D02*
X261334Y334311D01*
X261410Y334392D01*
X261483Y334475D01*
X261553Y334560D01*
X261620Y334648D01*
X261684Y334738D01*
X261744Y334830D01*
X261801Y334925D01*
X261855Y335021D01*
X261906Y335119D01*
X261953Y335219D01*
X261997Y335321D01*
X262037Y335424D01*
X262073Y335528D01*
X262105Y335634D01*
X262134Y335740D01*
X262159Y335848D01*
X262181Y335956D01*
X262198Y336066D01*
X262212Y336175D01*
X262221Y336285D01*
X262227Y336396D01*
X262229Y336506D01*
X261255Y334234D02*
X255737Y327743D01*
X262228Y327743D01*
X267168Y333585D02*
X267171Y333815D01*
X267179Y334045D01*
X267193Y334274D01*
X267212Y334503D01*
X267237Y334732D01*
X267267Y334959D01*
X267302Y335187D01*
X267343Y335413D01*
X267389Y335638D01*
X267441Y335862D01*
X267498Y336084D01*
X267560Y336306D01*
X267628Y336525D01*
X267701Y336743D01*
X267779Y336960D01*
X267862Y337174D01*
X267950Y337386D01*
X268043Y337596D01*
X268142Y337804D01*
X268141Y337804D02*
X268174Y337894D01*
X268210Y337983D01*
X268250Y338071D01*
X268294Y338156D01*
X268341Y338240D01*
X268391Y338322D01*
X268445Y338402D01*
X268501Y338479D01*
X268561Y338555D01*
X268624Y338628D01*
X268689Y338698D01*
X268758Y338766D01*
X268829Y338830D01*
X268902Y338892D01*
X268978Y338951D01*
X269056Y339007D01*
X269137Y339060D01*
X269219Y339109D01*
X269303Y339155D01*
X269390Y339198D01*
X269477Y339237D01*
X269567Y339273D01*
X269657Y339305D01*
X269749Y339333D01*
X269842Y339358D01*
X269936Y339379D01*
X270030Y339396D01*
X270125Y339410D01*
X270221Y339419D01*
X270317Y339425D01*
X270413Y339427D01*
X270509Y339425D01*
X270605Y339419D01*
X270701Y339410D01*
X270796Y339396D01*
X270890Y339379D01*
X270984Y339358D01*
X271077Y339333D01*
X271169Y339305D01*
X271259Y339273D01*
X271349Y339237D01*
X271436Y339198D01*
X271523Y339155D01*
X271607Y339109D01*
X271689Y339060D01*
X271770Y339007D01*
X271848Y338951D01*
X271924Y338892D01*
X271997Y338830D01*
X272068Y338766D01*
X272137Y338698D01*
X272202Y338628D01*
X272265Y338555D01*
X272325Y338479D01*
X272381Y338402D01*
X272435Y338322D01*
X272485Y338240D01*
X272532Y338156D01*
X272576Y338071D01*
X272616Y337983D01*
X272652Y337894D01*
X272685Y337804D01*
X272784Y337597D01*
X272877Y337387D01*
X272965Y337174D01*
X273048Y336960D01*
X273126Y336744D01*
X273199Y336526D01*
X273267Y336306D01*
X273329Y336085D01*
X273386Y335862D01*
X273438Y335638D01*
X273484Y335413D01*
X273525Y335187D01*
X273560Y334960D01*
X273590Y334732D01*
X273615Y334503D01*
X273634Y334274D01*
X273648Y334045D01*
X273656Y333815D01*
X273659Y333585D01*
X267167Y333585D02*
X267170Y333355D01*
X267178Y333125D01*
X267192Y332896D01*
X267211Y332667D01*
X267236Y332438D01*
X267266Y332210D01*
X267301Y331983D01*
X267342Y331757D01*
X267388Y331532D01*
X267440Y331308D01*
X267497Y331085D01*
X267559Y330864D01*
X267627Y330644D01*
X267700Y330426D01*
X267778Y330210D01*
X267861Y329996D01*
X267949Y329784D01*
X268042Y329573D01*
X268141Y329366D01*
X268174Y329276D01*
X268210Y329187D01*
X268251Y329099D01*
X268294Y329014D01*
X268341Y328930D01*
X268391Y328848D01*
X268445Y328768D01*
X268501Y328691D01*
X268561Y328615D01*
X268624Y328542D01*
X268689Y328472D01*
X268758Y328404D01*
X268829Y328340D01*
X268902Y328278D01*
X268978Y328219D01*
X269056Y328163D01*
X269137Y328110D01*
X269219Y328061D01*
X269303Y328015D01*
X269390Y327972D01*
X269477Y327933D01*
X269567Y327897D01*
X269657Y327865D01*
X269749Y327837D01*
X269842Y327812D01*
X269936Y327791D01*
X270030Y327774D01*
X270125Y327760D01*
X270221Y327751D01*
X270317Y327745D01*
X270413Y327743D01*
X272684Y329366D02*
X272783Y329573D01*
X272876Y329784D01*
X272964Y329996D01*
X273047Y330210D01*
X273125Y330426D01*
X273198Y330644D01*
X273266Y330864D01*
X273328Y331085D01*
X273385Y331308D01*
X273437Y331532D01*
X273483Y331757D01*
X273524Y331983D01*
X273559Y332210D01*
X273589Y332438D01*
X273614Y332667D01*
X273633Y332896D01*
X273647Y333125D01*
X273655Y333355D01*
X273658Y333585D01*
X272685Y329366D02*
X272652Y329276D01*
X272616Y329187D01*
X272576Y329099D01*
X272532Y329014D01*
X272485Y328930D01*
X272435Y328848D01*
X272381Y328768D01*
X272325Y328691D01*
X272265Y328615D01*
X272202Y328542D01*
X272137Y328472D01*
X272068Y328404D01*
X271997Y328340D01*
X271924Y328278D01*
X271848Y328219D01*
X271770Y328163D01*
X271689Y328110D01*
X271607Y328061D01*
X271523Y328015D01*
X271436Y327972D01*
X271349Y327933D01*
X271259Y327897D01*
X271169Y327865D01*
X271077Y327837D01*
X270984Y327812D01*
X270890Y327791D01*
X270796Y327774D01*
X270701Y327760D01*
X270605Y327751D01*
X270509Y327745D01*
X270413Y327743D01*
X267816Y330339D02*
X273009Y336830D01*
X278597Y336830D02*
X281843Y339427D01*
X281843Y327743D01*
X285088Y327743D02*
X278597Y327743D01*
X292623Y332936D02*
X296518Y332936D01*
X292623Y332936D02*
X292524Y332938D01*
X292424Y332944D01*
X292325Y332953D01*
X292227Y332966D01*
X292129Y332983D01*
X292031Y333004D01*
X291935Y333029D01*
X291840Y333057D01*
X291746Y333089D01*
X291653Y333124D01*
X291561Y333163D01*
X291471Y333206D01*
X291383Y333251D01*
X291296Y333301D01*
X291212Y333353D01*
X291129Y333409D01*
X291049Y333467D01*
X290971Y333529D01*
X290896Y333594D01*
X290823Y333662D01*
X290753Y333732D01*
X290685Y333805D01*
X290620Y333880D01*
X290558Y333958D01*
X290500Y334038D01*
X290444Y334121D01*
X290392Y334205D01*
X290342Y334292D01*
X290297Y334380D01*
X290254Y334470D01*
X290215Y334562D01*
X290180Y334655D01*
X290148Y334749D01*
X290120Y334844D01*
X290095Y334940D01*
X290074Y335038D01*
X290057Y335136D01*
X290044Y335234D01*
X290035Y335333D01*
X290029Y335433D01*
X290027Y335532D01*
X290027Y336181D01*
X290029Y336294D01*
X290035Y336407D01*
X290045Y336520D01*
X290059Y336633D01*
X290076Y336745D01*
X290098Y336856D01*
X290123Y336966D01*
X290153Y337076D01*
X290186Y337184D01*
X290223Y337291D01*
X290263Y337397D01*
X290308Y337501D01*
X290356Y337604D01*
X290407Y337705D01*
X290462Y337804D01*
X290520Y337901D01*
X290582Y337996D01*
X290647Y338089D01*
X290715Y338179D01*
X290786Y338267D01*
X290861Y338353D01*
X290938Y338436D01*
X291018Y338516D01*
X291101Y338593D01*
X291187Y338668D01*
X291275Y338739D01*
X291365Y338807D01*
X291458Y338872D01*
X291553Y338934D01*
X291650Y338992D01*
X291749Y339047D01*
X291850Y339098D01*
X291953Y339146D01*
X292057Y339191D01*
X292163Y339231D01*
X292270Y339268D01*
X292378Y339301D01*
X292488Y339331D01*
X292598Y339356D01*
X292709Y339378D01*
X292821Y339395D01*
X292934Y339409D01*
X293047Y339419D01*
X293160Y339425D01*
X293273Y339427D01*
X293386Y339425D01*
X293499Y339419D01*
X293612Y339409D01*
X293725Y339395D01*
X293837Y339378D01*
X293948Y339356D01*
X294058Y339331D01*
X294168Y339301D01*
X294276Y339268D01*
X294383Y339231D01*
X294489Y339191D01*
X294593Y339146D01*
X294696Y339098D01*
X294797Y339047D01*
X294896Y338992D01*
X294993Y338934D01*
X295088Y338872D01*
X295181Y338807D01*
X295271Y338739D01*
X295359Y338668D01*
X295445Y338593D01*
X295528Y338516D01*
X295608Y338436D01*
X295685Y338353D01*
X295760Y338267D01*
X295831Y338179D01*
X295899Y338089D01*
X295964Y337996D01*
X296026Y337901D01*
X296084Y337804D01*
X296139Y337705D01*
X296190Y337604D01*
X296238Y337501D01*
X296283Y337397D01*
X296323Y337291D01*
X296360Y337184D01*
X296393Y337076D01*
X296423Y336966D01*
X296448Y336856D01*
X296470Y336745D01*
X296487Y336633D01*
X296501Y336520D01*
X296511Y336407D01*
X296517Y336294D01*
X296519Y336181D01*
X296518Y336181D02*
X296518Y332936D01*
X296516Y332793D01*
X296510Y332650D01*
X296500Y332507D01*
X296486Y332365D01*
X296469Y332223D01*
X296447Y332081D01*
X296422Y331940D01*
X296392Y331800D01*
X296359Y331661D01*
X296322Y331523D01*
X296281Y331386D01*
X296237Y331250D01*
X296188Y331115D01*
X296136Y330982D01*
X296081Y330850D01*
X296021Y330720D01*
X295958Y330591D01*
X295892Y330464D01*
X295822Y330339D01*
X295749Y330217D01*
X295672Y330096D01*
X295592Y329977D01*
X295509Y329861D01*
X295423Y329746D01*
X295334Y329635D01*
X295241Y329525D01*
X295146Y329419D01*
X295047Y329315D01*
X294946Y329214D01*
X294842Y329115D01*
X294736Y329020D01*
X294626Y328927D01*
X294515Y328838D01*
X294400Y328752D01*
X294284Y328669D01*
X294165Y328589D01*
X294044Y328512D01*
X293922Y328439D01*
X293797Y328369D01*
X293670Y328303D01*
X293541Y328240D01*
X293411Y328180D01*
X293279Y328125D01*
X293146Y328073D01*
X293011Y328024D01*
X292875Y327980D01*
X292738Y327939D01*
X292600Y327902D01*
X292461Y327869D01*
X292321Y327839D01*
X292180Y327814D01*
X292038Y327792D01*
X291896Y327775D01*
X291754Y327761D01*
X291611Y327751D01*
X291468Y327745D01*
X291325Y327743D01*
D11*
X173697Y359555D02*
X168533Y359555D01*
X170254Y364720D02*
X170254Y351808D01*
X170255Y351808D02*
X170257Y351709D01*
X170263Y351610D01*
X170272Y351512D01*
X170285Y351414D01*
X170302Y351316D01*
X170323Y351220D01*
X170347Y351124D01*
X170375Y351029D01*
X170407Y350935D01*
X170442Y350843D01*
X170481Y350752D01*
X170523Y350662D01*
X170569Y350575D01*
X170618Y350489D01*
X170670Y350404D01*
X170725Y350323D01*
X170784Y350243D01*
X170845Y350165D01*
X170909Y350090D01*
X170977Y350018D01*
X171047Y349948D01*
X171119Y349880D01*
X171194Y349816D01*
X171272Y349755D01*
X171352Y349696D01*
X171434Y349641D01*
X171518Y349589D01*
X171604Y349540D01*
X171691Y349494D01*
X171781Y349452D01*
X171872Y349413D01*
X171964Y349378D01*
X172058Y349346D01*
X172153Y349318D01*
X172249Y349294D01*
X172345Y349273D01*
X172443Y349256D01*
X172541Y349243D01*
X172639Y349234D01*
X172738Y349228D01*
X172837Y349226D01*
X173697Y349226D01*
X179177Y352669D02*
X179177Y356112D01*
X179179Y356228D01*
X179185Y356344D01*
X179195Y356460D01*
X179208Y356576D01*
X179226Y356691D01*
X179247Y356805D01*
X179273Y356919D01*
X179302Y357031D01*
X179335Y357143D01*
X179372Y357253D01*
X179412Y357362D01*
X179456Y357470D01*
X179504Y357576D01*
X179555Y357680D01*
X179610Y357783D01*
X179668Y357884D01*
X179729Y357982D01*
X179794Y358079D01*
X179862Y358173D01*
X179933Y358265D01*
X180008Y358355D01*
X180085Y358442D01*
X180165Y358526D01*
X180248Y358607D01*
X180334Y358686D01*
X180422Y358762D01*
X180513Y358835D01*
X180606Y358904D01*
X180701Y358971D01*
X180799Y359034D01*
X180899Y359094D01*
X181000Y359150D01*
X181104Y359203D01*
X181209Y359253D01*
X181316Y359298D01*
X181424Y359341D01*
X181534Y359379D01*
X181645Y359414D01*
X181757Y359445D01*
X181870Y359472D01*
X181984Y359496D01*
X182099Y359515D01*
X182214Y359531D01*
X182330Y359543D01*
X182446Y359551D01*
X182562Y359555D01*
X182678Y359555D01*
X182794Y359551D01*
X182910Y359543D01*
X183026Y359531D01*
X183141Y359515D01*
X183256Y359496D01*
X183370Y359472D01*
X183483Y359445D01*
X183595Y359414D01*
X183706Y359379D01*
X183816Y359341D01*
X183924Y359298D01*
X184031Y359253D01*
X184136Y359203D01*
X184240Y359150D01*
X184342Y359094D01*
X184441Y359034D01*
X184539Y358971D01*
X184634Y358904D01*
X184727Y358835D01*
X184818Y358762D01*
X184906Y358686D01*
X184992Y358607D01*
X185075Y358526D01*
X185155Y358442D01*
X185232Y358355D01*
X185307Y358265D01*
X185378Y358173D01*
X185446Y358079D01*
X185511Y357982D01*
X185572Y357884D01*
X185630Y357783D01*
X185685Y357680D01*
X185736Y357576D01*
X185784Y357470D01*
X185828Y357362D01*
X185868Y357253D01*
X185905Y357143D01*
X185938Y357031D01*
X185967Y356919D01*
X185993Y356805D01*
X186014Y356691D01*
X186032Y356576D01*
X186045Y356460D01*
X186055Y356344D01*
X186061Y356228D01*
X186063Y356112D01*
X186063Y352669D01*
X186061Y352553D01*
X186055Y352437D01*
X186045Y352321D01*
X186032Y352205D01*
X186014Y352090D01*
X185993Y351976D01*
X185967Y351862D01*
X185938Y351750D01*
X185905Y351638D01*
X185868Y351528D01*
X185828Y351419D01*
X185784Y351311D01*
X185736Y351205D01*
X185685Y351101D01*
X185630Y350998D01*
X185572Y350897D01*
X185511Y350799D01*
X185446Y350702D01*
X185378Y350608D01*
X185307Y350516D01*
X185232Y350426D01*
X185155Y350339D01*
X185075Y350255D01*
X184992Y350174D01*
X184906Y350095D01*
X184818Y350019D01*
X184727Y349946D01*
X184634Y349877D01*
X184539Y349810D01*
X184441Y349747D01*
X184341Y349687D01*
X184240Y349631D01*
X184136Y349578D01*
X184031Y349528D01*
X183924Y349483D01*
X183816Y349440D01*
X183706Y349402D01*
X183595Y349367D01*
X183483Y349336D01*
X183370Y349309D01*
X183256Y349285D01*
X183141Y349266D01*
X183026Y349250D01*
X182910Y349238D01*
X182794Y349230D01*
X182678Y349226D01*
X182562Y349226D01*
X182446Y349230D01*
X182330Y349238D01*
X182214Y349250D01*
X182099Y349266D01*
X181984Y349285D01*
X181870Y349309D01*
X181757Y349336D01*
X181645Y349367D01*
X181534Y349402D01*
X181424Y349440D01*
X181316Y349483D01*
X181209Y349528D01*
X181104Y349578D01*
X181000Y349631D01*
X180898Y349687D01*
X180799Y349747D01*
X180701Y349810D01*
X180606Y349877D01*
X180513Y349946D01*
X180422Y350019D01*
X180334Y350095D01*
X180248Y350174D01*
X180165Y350255D01*
X180085Y350339D01*
X180008Y350426D01*
X179933Y350516D01*
X179862Y350608D01*
X179794Y350702D01*
X179729Y350799D01*
X179668Y350897D01*
X179610Y350998D01*
X179555Y351101D01*
X179504Y351205D01*
X179456Y351311D01*
X179412Y351419D01*
X179372Y351528D01*
X179335Y351638D01*
X179302Y351750D01*
X179273Y351862D01*
X179247Y351976D01*
X179226Y352090D01*
X179208Y352205D01*
X179195Y352321D01*
X179185Y352437D01*
X179179Y352553D01*
X179177Y352669D01*
X192556Y349226D02*
X192556Y359555D01*
X196860Y359555D01*
X196961Y359553D01*
X197063Y359547D01*
X197163Y359537D01*
X197264Y359523D01*
X197364Y359505D01*
X197463Y359484D01*
X197561Y359458D01*
X197658Y359429D01*
X197754Y359395D01*
X197848Y359358D01*
X197941Y359318D01*
X198032Y359274D01*
X198122Y359226D01*
X198209Y359175D01*
X198294Y359120D01*
X198378Y359062D01*
X198458Y359001D01*
X198537Y358936D01*
X198613Y358869D01*
X198686Y358799D01*
X198756Y358726D01*
X198823Y358650D01*
X198888Y358572D01*
X198949Y358491D01*
X199007Y358407D01*
X199062Y358322D01*
X199113Y358235D01*
X199161Y358145D01*
X199205Y358054D01*
X199245Y357961D01*
X199282Y357867D01*
X199316Y357771D01*
X199345Y357674D01*
X199371Y357576D01*
X199392Y357477D01*
X199410Y357377D01*
X199424Y357277D01*
X199434Y357176D01*
X199440Y357074D01*
X199442Y356973D01*
X199442Y349226D01*
X205910Y349226D02*
X205910Y359555D01*
X205479Y363859D02*
X205479Y364720D01*
X206340Y364720D01*
X206340Y363859D01*
X205479Y363859D01*
X212111Y364720D02*
X212111Y351808D01*
X212113Y351709D01*
X212119Y351610D01*
X212128Y351512D01*
X212141Y351414D01*
X212158Y351316D01*
X212179Y351220D01*
X212203Y351124D01*
X212231Y351029D01*
X212263Y350935D01*
X212298Y350843D01*
X212337Y350752D01*
X212379Y350662D01*
X212425Y350575D01*
X212474Y350489D01*
X212526Y350405D01*
X212581Y350323D01*
X212640Y350243D01*
X212701Y350165D01*
X212765Y350090D01*
X212833Y350018D01*
X212903Y349948D01*
X212975Y349880D01*
X213050Y349816D01*
X213128Y349755D01*
X213208Y349696D01*
X213290Y349641D01*
X213374Y349589D01*
X213460Y349540D01*
X213547Y349494D01*
X213637Y349452D01*
X213728Y349413D01*
X213820Y349378D01*
X213914Y349346D01*
X214009Y349318D01*
X214105Y349294D01*
X214201Y349273D01*
X214299Y349256D01*
X214397Y349243D01*
X214495Y349234D01*
X214594Y349228D01*
X214693Y349226D01*
X219810Y352669D02*
X219810Y356112D01*
X219812Y356228D01*
X219818Y356344D01*
X219828Y356460D01*
X219841Y356576D01*
X219859Y356691D01*
X219880Y356805D01*
X219906Y356919D01*
X219935Y357031D01*
X219968Y357143D01*
X220005Y357253D01*
X220045Y357362D01*
X220089Y357470D01*
X220137Y357576D01*
X220188Y357680D01*
X220243Y357783D01*
X220301Y357884D01*
X220362Y357982D01*
X220427Y358079D01*
X220495Y358173D01*
X220566Y358265D01*
X220641Y358355D01*
X220718Y358442D01*
X220798Y358526D01*
X220881Y358607D01*
X220967Y358686D01*
X221055Y358762D01*
X221146Y358835D01*
X221239Y358904D01*
X221334Y358971D01*
X221432Y359034D01*
X221532Y359094D01*
X221633Y359150D01*
X221737Y359203D01*
X221842Y359253D01*
X221949Y359298D01*
X222057Y359341D01*
X222167Y359379D01*
X222278Y359414D01*
X222390Y359445D01*
X222503Y359472D01*
X222617Y359496D01*
X222732Y359515D01*
X222847Y359531D01*
X222963Y359543D01*
X223079Y359551D01*
X223195Y359555D01*
X223311Y359555D01*
X223427Y359551D01*
X223543Y359543D01*
X223659Y359531D01*
X223774Y359515D01*
X223889Y359496D01*
X224003Y359472D01*
X224116Y359445D01*
X224228Y359414D01*
X224339Y359379D01*
X224449Y359341D01*
X224557Y359298D01*
X224664Y359253D01*
X224769Y359203D01*
X224873Y359150D01*
X224975Y359094D01*
X225074Y359034D01*
X225172Y358971D01*
X225267Y358904D01*
X225360Y358835D01*
X225451Y358762D01*
X225539Y358686D01*
X225625Y358607D01*
X225708Y358526D01*
X225788Y358442D01*
X225865Y358355D01*
X225940Y358265D01*
X226011Y358173D01*
X226079Y358079D01*
X226144Y357982D01*
X226205Y357884D01*
X226263Y357783D01*
X226318Y357680D01*
X226369Y357576D01*
X226417Y357470D01*
X226461Y357362D01*
X226501Y357253D01*
X226538Y357143D01*
X226571Y357031D01*
X226600Y356919D01*
X226626Y356805D01*
X226647Y356691D01*
X226665Y356576D01*
X226678Y356460D01*
X226688Y356344D01*
X226694Y356228D01*
X226696Y356112D01*
X226696Y352669D01*
X226694Y352553D01*
X226688Y352437D01*
X226678Y352321D01*
X226665Y352205D01*
X226647Y352090D01*
X226626Y351976D01*
X226600Y351862D01*
X226571Y351750D01*
X226538Y351638D01*
X226501Y351528D01*
X226461Y351419D01*
X226417Y351311D01*
X226369Y351205D01*
X226318Y351101D01*
X226263Y350998D01*
X226205Y350897D01*
X226144Y350799D01*
X226079Y350702D01*
X226011Y350608D01*
X225940Y350516D01*
X225865Y350426D01*
X225788Y350339D01*
X225708Y350255D01*
X225625Y350174D01*
X225539Y350095D01*
X225451Y350019D01*
X225360Y349946D01*
X225267Y349877D01*
X225172Y349810D01*
X225074Y349747D01*
X224974Y349687D01*
X224873Y349631D01*
X224769Y349578D01*
X224664Y349528D01*
X224557Y349483D01*
X224449Y349440D01*
X224339Y349402D01*
X224228Y349367D01*
X224116Y349336D01*
X224003Y349309D01*
X223889Y349285D01*
X223774Y349266D01*
X223659Y349250D01*
X223543Y349238D01*
X223427Y349230D01*
X223311Y349226D01*
X223195Y349226D01*
X223079Y349230D01*
X222963Y349238D01*
X222847Y349250D01*
X222732Y349266D01*
X222617Y349285D01*
X222503Y349309D01*
X222390Y349336D01*
X222278Y349367D01*
X222167Y349402D01*
X222057Y349440D01*
X221949Y349483D01*
X221842Y349528D01*
X221737Y349578D01*
X221633Y349631D01*
X221531Y349687D01*
X221432Y349747D01*
X221334Y349810D01*
X221239Y349877D01*
X221146Y349946D01*
X221055Y350019D01*
X220967Y350095D01*
X220881Y350174D01*
X220798Y350255D01*
X220718Y350339D01*
X220641Y350426D01*
X220566Y350516D01*
X220495Y350608D01*
X220427Y350702D01*
X220362Y350799D01*
X220301Y350897D01*
X220243Y350998D01*
X220188Y351101D01*
X220137Y351205D01*
X220089Y351311D01*
X220045Y351419D01*
X220005Y351528D01*
X219968Y351638D01*
X219935Y351750D01*
X219906Y351862D01*
X219880Y351976D01*
X219859Y352090D01*
X219841Y352205D01*
X219828Y352321D01*
X219818Y352437D01*
X219812Y352553D01*
X219810Y352669D01*
X233258Y359555D02*
X233258Y344061D01*
X233258Y359555D02*
X237562Y359555D01*
X237663Y359553D01*
X237765Y359547D01*
X237865Y359537D01*
X237966Y359523D01*
X238066Y359505D01*
X238165Y359484D01*
X238263Y359458D01*
X238360Y359429D01*
X238456Y359395D01*
X238550Y359358D01*
X238643Y359318D01*
X238734Y359274D01*
X238824Y359226D01*
X238911Y359175D01*
X238996Y359120D01*
X239080Y359062D01*
X239160Y359001D01*
X239239Y358936D01*
X239315Y358869D01*
X239388Y358799D01*
X239458Y358726D01*
X239525Y358650D01*
X239590Y358572D01*
X239651Y358491D01*
X239709Y358407D01*
X239764Y358322D01*
X239815Y358235D01*
X239863Y358145D01*
X239907Y358054D01*
X239947Y357961D01*
X239984Y357867D01*
X240018Y357771D01*
X240047Y357674D01*
X240073Y357576D01*
X240094Y357477D01*
X240112Y357377D01*
X240126Y357277D01*
X240136Y357176D01*
X240142Y357074D01*
X240144Y356973D01*
X240144Y351808D01*
X240142Y351709D01*
X240136Y351610D01*
X240127Y351512D01*
X240114Y351414D01*
X240097Y351316D01*
X240076Y351220D01*
X240052Y351124D01*
X240024Y351029D01*
X239992Y350935D01*
X239957Y350843D01*
X239918Y350752D01*
X239876Y350662D01*
X239830Y350575D01*
X239781Y350489D01*
X239729Y350405D01*
X239674Y350323D01*
X239615Y350243D01*
X239554Y350165D01*
X239490Y350090D01*
X239422Y350018D01*
X239352Y349948D01*
X239280Y349880D01*
X239205Y349816D01*
X239127Y349755D01*
X239047Y349696D01*
X238965Y349641D01*
X238881Y349589D01*
X238795Y349540D01*
X238708Y349494D01*
X238618Y349452D01*
X238527Y349413D01*
X238435Y349378D01*
X238341Y349346D01*
X238246Y349318D01*
X238150Y349294D01*
X238054Y349273D01*
X237956Y349256D01*
X237858Y349243D01*
X237760Y349234D01*
X237661Y349228D01*
X237562Y349226D01*
X233258Y349226D01*
X248655Y349226D02*
X252959Y349226D01*
X248655Y349226D02*
X248556Y349228D01*
X248457Y349234D01*
X248359Y349243D01*
X248261Y349256D01*
X248163Y349273D01*
X248067Y349294D01*
X247971Y349318D01*
X247876Y349346D01*
X247782Y349378D01*
X247690Y349413D01*
X247599Y349452D01*
X247509Y349494D01*
X247422Y349540D01*
X247336Y349589D01*
X247252Y349641D01*
X247170Y349696D01*
X247090Y349755D01*
X247012Y349816D01*
X246937Y349880D01*
X246865Y349948D01*
X246795Y350018D01*
X246727Y350090D01*
X246663Y350165D01*
X246602Y350243D01*
X246543Y350323D01*
X246488Y350405D01*
X246436Y350489D01*
X246387Y350575D01*
X246341Y350662D01*
X246299Y350752D01*
X246260Y350843D01*
X246225Y350935D01*
X246193Y351029D01*
X246165Y351124D01*
X246141Y351220D01*
X246120Y351316D01*
X246103Y351414D01*
X246090Y351512D01*
X246081Y351610D01*
X246075Y351709D01*
X246073Y351808D01*
X246073Y356112D01*
X246075Y356228D01*
X246081Y356344D01*
X246091Y356460D01*
X246104Y356576D01*
X246122Y356691D01*
X246143Y356805D01*
X246169Y356919D01*
X246198Y357031D01*
X246231Y357143D01*
X246268Y357253D01*
X246308Y357362D01*
X246352Y357470D01*
X246400Y357576D01*
X246451Y357680D01*
X246506Y357783D01*
X246564Y357884D01*
X246625Y357982D01*
X246690Y358079D01*
X246758Y358173D01*
X246829Y358265D01*
X246904Y358355D01*
X246981Y358442D01*
X247061Y358526D01*
X247144Y358607D01*
X247230Y358686D01*
X247318Y358762D01*
X247409Y358835D01*
X247502Y358904D01*
X247597Y358971D01*
X247695Y359034D01*
X247795Y359094D01*
X247896Y359150D01*
X248000Y359203D01*
X248105Y359253D01*
X248212Y359298D01*
X248320Y359341D01*
X248430Y359379D01*
X248541Y359414D01*
X248653Y359445D01*
X248766Y359472D01*
X248880Y359496D01*
X248995Y359515D01*
X249110Y359531D01*
X249226Y359543D01*
X249342Y359551D01*
X249458Y359555D01*
X249574Y359555D01*
X249690Y359551D01*
X249806Y359543D01*
X249922Y359531D01*
X250037Y359515D01*
X250152Y359496D01*
X250266Y359472D01*
X250379Y359445D01*
X250491Y359414D01*
X250602Y359379D01*
X250712Y359341D01*
X250820Y359298D01*
X250927Y359253D01*
X251032Y359203D01*
X251136Y359150D01*
X251238Y359094D01*
X251337Y359034D01*
X251435Y358971D01*
X251530Y358904D01*
X251623Y358835D01*
X251714Y358762D01*
X251802Y358686D01*
X251888Y358607D01*
X251971Y358526D01*
X252051Y358442D01*
X252128Y358355D01*
X252203Y358265D01*
X252274Y358173D01*
X252342Y358079D01*
X252407Y357982D01*
X252468Y357884D01*
X252526Y357783D01*
X252581Y357680D01*
X252632Y357576D01*
X252680Y357470D01*
X252724Y357362D01*
X252764Y357253D01*
X252801Y357143D01*
X252834Y357031D01*
X252863Y356919D01*
X252889Y356805D01*
X252910Y356691D01*
X252928Y356576D01*
X252941Y356460D01*
X252951Y356344D01*
X252957Y356228D01*
X252959Y356112D01*
X252959Y354390D01*
X246073Y354390D01*
X258461Y359555D02*
X265347Y359555D01*
X258461Y349226D01*
X265347Y349226D01*
X271605Y349226D02*
X271605Y359555D01*
X279352Y359555D01*
X279451Y359553D01*
X279550Y359547D01*
X279648Y359538D01*
X279746Y359525D01*
X279844Y359508D01*
X279940Y359487D01*
X280036Y359463D01*
X280131Y359435D01*
X280225Y359403D01*
X280317Y359368D01*
X280408Y359329D01*
X280498Y359287D01*
X280585Y359241D01*
X280671Y359192D01*
X280755Y359140D01*
X280837Y359085D01*
X280917Y359026D01*
X280995Y358965D01*
X281070Y358901D01*
X281142Y358833D01*
X281212Y358763D01*
X281280Y358691D01*
X281344Y358616D01*
X281405Y358538D01*
X281464Y358458D01*
X281519Y358376D01*
X281571Y358292D01*
X281620Y358206D01*
X281666Y358119D01*
X281708Y358029D01*
X281747Y357938D01*
X281782Y357846D01*
X281814Y357752D01*
X281842Y357657D01*
X281866Y357561D01*
X281887Y357465D01*
X281904Y357367D01*
X281917Y357269D01*
X281926Y357171D01*
X281932Y357072D01*
X281934Y356973D01*
X281935Y356973D02*
X281935Y349226D01*
X276770Y349226D02*
X276770Y359555D01*
X289262Y359555D02*
X289262Y349226D01*
X289262Y359555D02*
X294427Y359555D01*
X294427Y357833D01*
D10*
X355347Y361730D02*
X355347Y348522D01*
X351679Y361730D02*
X359016Y361730D01*
X362893Y361730D02*
X367296Y348522D01*
X371698Y361730D01*
X383706Y361730D02*
X383706Y348522D01*
X389577Y348522D01*
X394179Y348522D02*
X394179Y357328D01*
X393812Y360997D02*
X393812Y361730D01*
X394546Y361730D01*
X394546Y360997D01*
X393812Y360997D01*
X401490Y348522D02*
X405159Y348522D01*
X401490Y348523D02*
X401399Y348525D01*
X401308Y348531D01*
X401218Y348540D01*
X401128Y348553D01*
X401038Y348570D01*
X400950Y348590D01*
X400862Y348615D01*
X400775Y348642D01*
X400690Y348674D01*
X400606Y348708D01*
X400523Y348747D01*
X400442Y348788D01*
X400363Y348833D01*
X400286Y348881D01*
X400211Y348933D01*
X400138Y348987D01*
X400067Y349044D01*
X399999Y349105D01*
X399934Y349168D01*
X399871Y349233D01*
X399810Y349301D01*
X399753Y349372D01*
X399699Y349445D01*
X399647Y349520D01*
X399599Y349597D01*
X399554Y349676D01*
X399513Y349757D01*
X399474Y349840D01*
X399440Y349924D01*
X399408Y350009D01*
X399381Y350096D01*
X399356Y350184D01*
X399336Y350272D01*
X399319Y350362D01*
X399306Y350452D01*
X399297Y350542D01*
X399291Y350633D01*
X399289Y350724D01*
X399289Y355126D01*
X399291Y355217D01*
X399297Y355308D01*
X399306Y355398D01*
X399319Y355488D01*
X399336Y355578D01*
X399356Y355666D01*
X399381Y355754D01*
X399408Y355841D01*
X399440Y355926D01*
X399474Y356010D01*
X399513Y356093D01*
X399554Y356174D01*
X399599Y356253D01*
X399647Y356330D01*
X399699Y356405D01*
X399753Y356478D01*
X399810Y356549D01*
X399871Y356617D01*
X399934Y356682D01*
X399999Y356745D01*
X400067Y356806D01*
X400138Y356863D01*
X400211Y356917D01*
X400286Y356969D01*
X400363Y357017D01*
X400442Y357062D01*
X400523Y357103D01*
X400606Y357142D01*
X400690Y357176D01*
X400775Y357208D01*
X400862Y357235D01*
X400950Y357260D01*
X401038Y357280D01*
X401128Y357297D01*
X401218Y357310D01*
X401308Y357319D01*
X401399Y357325D01*
X401490Y357327D01*
X401490Y357328D02*
X405159Y357328D01*
X405159Y346321D01*
X405157Y346228D01*
X405151Y346134D01*
X405141Y346041D01*
X405127Y345949D01*
X405110Y345857D01*
X405088Y345766D01*
X405063Y345677D01*
X405033Y345588D01*
X405000Y345500D01*
X404964Y345414D01*
X404923Y345330D01*
X404880Y345248D01*
X404832Y345167D01*
X404782Y345089D01*
X404728Y345012D01*
X404670Y344938D01*
X404610Y344867D01*
X404547Y344798D01*
X404481Y344732D01*
X404412Y344669D01*
X404341Y344609D01*
X404267Y344551D01*
X404191Y344497D01*
X404112Y344447D01*
X404031Y344400D01*
X403949Y344356D01*
X403865Y344315D01*
X403779Y344279D01*
X403691Y344246D01*
X403603Y344216D01*
X403513Y344191D01*
X403422Y344169D01*
X403330Y344152D01*
X403238Y344138D01*
X403145Y344128D01*
X403051Y344122D01*
X402958Y344120D01*
X400023Y344120D01*
X411300Y348522D02*
X411300Y361730D01*
X411300Y357328D02*
X414969Y357328D01*
X414969Y357327D02*
X415062Y357325D01*
X415156Y357319D01*
X415249Y357309D01*
X415341Y357295D01*
X415433Y357278D01*
X415524Y357256D01*
X415613Y357231D01*
X415702Y357201D01*
X415790Y357168D01*
X415876Y357132D01*
X415960Y357091D01*
X416042Y357048D01*
X416123Y357000D01*
X416201Y356950D01*
X416278Y356896D01*
X416352Y356838D01*
X416423Y356778D01*
X416492Y356715D01*
X416558Y356649D01*
X416621Y356580D01*
X416681Y356509D01*
X416739Y356435D01*
X416793Y356359D01*
X416843Y356280D01*
X416890Y356199D01*
X416934Y356117D01*
X416975Y356033D01*
X417011Y355947D01*
X417044Y355859D01*
X417074Y355771D01*
X417099Y355681D01*
X417121Y355590D01*
X417138Y355498D01*
X417152Y355406D01*
X417162Y355313D01*
X417168Y355219D01*
X417170Y355126D01*
X417170Y348522D01*
X421750Y357328D02*
X426153Y357328D01*
X423218Y361730D02*
X423218Y350724D01*
X423220Y350633D01*
X423226Y350542D01*
X423235Y350452D01*
X423248Y350362D01*
X423265Y350272D01*
X423285Y350184D01*
X423310Y350096D01*
X423337Y350009D01*
X423369Y349924D01*
X423403Y349840D01*
X423442Y349757D01*
X423483Y349676D01*
X423528Y349597D01*
X423576Y349520D01*
X423628Y349445D01*
X423682Y349372D01*
X423739Y349301D01*
X423800Y349233D01*
X423863Y349168D01*
X423928Y349105D01*
X423997Y349044D01*
X424067Y348987D01*
X424140Y348933D01*
X424215Y348881D01*
X424292Y348833D01*
X424371Y348788D01*
X424452Y348747D01*
X424535Y348708D01*
X424619Y348674D01*
X424704Y348642D01*
X424791Y348614D01*
X424879Y348590D01*
X424967Y348570D01*
X425057Y348553D01*
X425147Y348540D01*
X425237Y348531D01*
X425328Y348525D01*
X425419Y348523D01*
X425419Y348522D02*
X426153Y348522D01*
X432029Y353659D02*
X435698Y352191D01*
X432029Y353658D02*
X431950Y353692D01*
X431872Y353730D01*
X431795Y353771D01*
X431721Y353815D01*
X431649Y353863D01*
X431579Y353914D01*
X431512Y353968D01*
X431447Y354025D01*
X431384Y354086D01*
X431325Y354148D01*
X431268Y354214D01*
X431215Y354282D01*
X431164Y354352D01*
X431117Y354425D01*
X431073Y354500D01*
X431033Y354576D01*
X430996Y354655D01*
X430963Y354734D01*
X430933Y354816D01*
X430907Y354898D01*
X430885Y354982D01*
X430867Y355067D01*
X430853Y355152D01*
X430842Y355238D01*
X430836Y355324D01*
X430833Y355411D01*
X430834Y355498D01*
X430840Y355584D01*
X430849Y355670D01*
X430862Y355756D01*
X430879Y355841D01*
X430900Y355925D01*
X430924Y356008D01*
X430953Y356089D01*
X430985Y356170D01*
X431020Y356249D01*
X431060Y356326D01*
X431102Y356401D01*
X431149Y356474D01*
X431198Y356546D01*
X431250Y356614D01*
X431306Y356681D01*
X431365Y356744D01*
X431426Y356805D01*
X431490Y356864D01*
X431557Y356919D01*
X431626Y356971D01*
X431698Y357020D01*
X431771Y357065D01*
X431847Y357107D01*
X431924Y357146D01*
X432003Y357181D01*
X432084Y357213D01*
X432166Y357241D01*
X432249Y357265D01*
X432333Y357285D01*
X432418Y357301D01*
X432504Y357314D01*
X432590Y357322D01*
X432677Y357327D01*
X432763Y357328D01*
X432763Y357327D02*
X432963Y357322D01*
X433163Y357312D01*
X433363Y357297D01*
X433563Y357277D01*
X433762Y357253D01*
X433960Y357223D01*
X434157Y357189D01*
X434354Y357151D01*
X434549Y357107D01*
X434744Y357059D01*
X434937Y357006D01*
X435129Y356949D01*
X435320Y356887D01*
X435509Y356820D01*
X435696Y356749D01*
X435881Y356673D01*
X436065Y356593D01*
X435699Y352192D02*
X435778Y352158D01*
X435856Y352120D01*
X435933Y352079D01*
X436007Y352035D01*
X436079Y351987D01*
X436149Y351936D01*
X436216Y351882D01*
X436281Y351825D01*
X436344Y351764D01*
X436403Y351702D01*
X436460Y351636D01*
X436513Y351568D01*
X436564Y351498D01*
X436611Y351425D01*
X436655Y351350D01*
X436695Y351274D01*
X436732Y351195D01*
X436765Y351116D01*
X436795Y351034D01*
X436821Y350952D01*
X436843Y350868D01*
X436861Y350783D01*
X436875Y350698D01*
X436886Y350612D01*
X436892Y350526D01*
X436895Y350439D01*
X436894Y350352D01*
X436888Y350266D01*
X436879Y350180D01*
X436866Y350094D01*
X436849Y350009D01*
X436828Y349925D01*
X436804Y349842D01*
X436775Y349761D01*
X436743Y349680D01*
X436708Y349601D01*
X436668Y349524D01*
X436626Y349449D01*
X436579Y349376D01*
X436530Y349304D01*
X436478Y349236D01*
X436422Y349169D01*
X436363Y349106D01*
X436302Y349045D01*
X436238Y348986D01*
X436171Y348931D01*
X436102Y348879D01*
X436030Y348830D01*
X435957Y348785D01*
X435881Y348743D01*
X435804Y348704D01*
X435725Y348669D01*
X435644Y348637D01*
X435562Y348609D01*
X435479Y348585D01*
X435395Y348565D01*
X435310Y348549D01*
X435224Y348536D01*
X435138Y348528D01*
X435051Y348523D01*
X434965Y348522D01*
X434964Y348522D02*
X434670Y348530D01*
X434376Y348545D01*
X434082Y348566D01*
X433789Y348595D01*
X433497Y348630D01*
X433206Y348673D01*
X432916Y348722D01*
X432627Y348778D01*
X432339Y348841D01*
X432053Y348910D01*
X431769Y348987D01*
X431487Y349070D01*
X431207Y349160D01*
X430928Y349256D01*
X417485Y333686D02*
X420081Y325896D01*
X422678Y333686D01*
X430693Y337580D02*
X430800Y337578D01*
X430906Y337572D01*
X431012Y337562D01*
X431118Y337549D01*
X431224Y337531D01*
X431328Y337510D01*
X431432Y337485D01*
X431535Y337456D01*
X431636Y337424D01*
X431736Y337387D01*
X431835Y337347D01*
X431933Y337304D01*
X432029Y337257D01*
X432123Y337206D01*
X432215Y337152D01*
X432305Y337095D01*
X432393Y337035D01*
X432478Y336971D01*
X432561Y336904D01*
X432642Y336834D01*
X432720Y336762D01*
X432796Y336686D01*
X432868Y336608D01*
X432938Y336527D01*
X433005Y336444D01*
X433069Y336359D01*
X433129Y336271D01*
X433186Y336181D01*
X433240Y336089D01*
X433291Y335995D01*
X433338Y335899D01*
X433381Y335801D01*
X433421Y335702D01*
X433458Y335602D01*
X433490Y335501D01*
X433519Y335398D01*
X433544Y335294D01*
X433565Y335190D01*
X433583Y335084D01*
X433596Y334978D01*
X433606Y334872D01*
X433612Y334766D01*
X433614Y334659D01*
X430693Y337581D02*
X430572Y337579D01*
X430451Y337573D01*
X430331Y337563D01*
X430210Y337550D01*
X430091Y337532D01*
X429971Y337511D01*
X429853Y337486D01*
X429736Y337457D01*
X429619Y337424D01*
X429504Y337388D01*
X429390Y337347D01*
X429277Y337304D01*
X429165Y337256D01*
X429056Y337205D01*
X428948Y337150D01*
X428841Y337092D01*
X428737Y337031D01*
X428635Y336966D01*
X428535Y336898D01*
X428437Y336827D01*
X428341Y336753D01*
X428248Y336676D01*
X428158Y336595D01*
X428070Y336512D01*
X427985Y336426D01*
X427902Y336337D01*
X427823Y336246D01*
X427746Y336152D01*
X427673Y336056D01*
X427603Y335958D01*
X427536Y335857D01*
X427472Y335754D01*
X427412Y335649D01*
X427355Y335542D01*
X427301Y335434D01*
X427251Y335324D01*
X427205Y335212D01*
X427162Y335099D01*
X427123Y334984D01*
X432640Y332387D02*
X432719Y332464D01*
X432795Y332545D01*
X432868Y332628D01*
X432938Y332713D01*
X433005Y332801D01*
X433069Y332891D01*
X433129Y332983D01*
X433186Y333078D01*
X433240Y333174D01*
X433291Y333272D01*
X433338Y333372D01*
X433382Y333474D01*
X433422Y333577D01*
X433458Y333681D01*
X433490Y333787D01*
X433519Y333893D01*
X433544Y334001D01*
X433566Y334109D01*
X433583Y334219D01*
X433597Y334328D01*
X433606Y334438D01*
X433612Y334549D01*
X433614Y334659D01*
X432640Y332388D02*
X427123Y325896D01*
X433614Y325896D01*
D12*
X381000Y107950D02*
X381000Y95250D01*
D11*
X379504Y85979D02*
X378432Y85979D01*
X378367Y85981D01*
X378303Y85987D01*
X378239Y85997D01*
X378175Y86010D01*
X378113Y86028D01*
X378052Y86049D01*
X377992Y86073D01*
X377934Y86102D01*
X377877Y86134D01*
X377823Y86169D01*
X377771Y86207D01*
X377721Y86249D01*
X377674Y86293D01*
X377630Y86340D01*
X377588Y86390D01*
X377550Y86442D01*
X377515Y86496D01*
X377483Y86553D01*
X377454Y86611D01*
X377430Y86671D01*
X377409Y86732D01*
X377391Y86794D01*
X377378Y86858D01*
X377368Y86922D01*
X377362Y86986D01*
X377360Y87051D01*
X377359Y87051D02*
X377359Y89733D01*
X377360Y89733D02*
X377362Y89798D01*
X377368Y89862D01*
X377378Y89926D01*
X377391Y89990D01*
X377409Y90052D01*
X377430Y90113D01*
X377454Y90173D01*
X377483Y90231D01*
X377515Y90288D01*
X377550Y90342D01*
X377588Y90394D01*
X377630Y90444D01*
X377674Y90491D01*
X377721Y90535D01*
X377771Y90577D01*
X377823Y90615D01*
X377877Y90650D01*
X377934Y90682D01*
X377992Y90711D01*
X378052Y90735D01*
X378113Y90756D01*
X378175Y90774D01*
X378239Y90787D01*
X378303Y90797D01*
X378367Y90803D01*
X378432Y90805D01*
X379504Y90805D01*
X381960Y89733D02*
X383300Y90805D01*
X383300Y85979D01*
X381960Y85979D02*
X384641Y85979D01*
D12*
X381000Y57150D02*
X381000Y44450D01*
D11*
X379504Y35179D02*
X378432Y35179D01*
X378367Y35181D01*
X378303Y35187D01*
X378239Y35197D01*
X378175Y35210D01*
X378113Y35228D01*
X378052Y35249D01*
X377992Y35273D01*
X377934Y35302D01*
X377877Y35334D01*
X377823Y35369D01*
X377771Y35407D01*
X377721Y35449D01*
X377674Y35493D01*
X377630Y35540D01*
X377588Y35590D01*
X377550Y35642D01*
X377515Y35696D01*
X377483Y35753D01*
X377454Y35811D01*
X377430Y35871D01*
X377409Y35932D01*
X377391Y35994D01*
X377378Y36058D01*
X377368Y36122D01*
X377362Y36186D01*
X377360Y36251D01*
X377359Y36251D02*
X377359Y38933D01*
X377360Y38933D02*
X377362Y38998D01*
X377368Y39062D01*
X377378Y39126D01*
X377391Y39190D01*
X377409Y39252D01*
X377430Y39313D01*
X377454Y39373D01*
X377483Y39431D01*
X377515Y39488D01*
X377550Y39542D01*
X377588Y39594D01*
X377630Y39644D01*
X377674Y39691D01*
X377721Y39735D01*
X377771Y39777D01*
X377823Y39815D01*
X377877Y39850D01*
X377934Y39882D01*
X377992Y39911D01*
X378052Y39935D01*
X378113Y39956D01*
X378175Y39974D01*
X378239Y39987D01*
X378303Y39997D01*
X378367Y40003D01*
X378432Y40005D01*
X379504Y40005D01*
X383434Y40005D02*
X383502Y40003D01*
X383569Y39997D01*
X383636Y39988D01*
X383703Y39975D01*
X383768Y39958D01*
X383833Y39937D01*
X383896Y39913D01*
X383958Y39885D01*
X384018Y39854D01*
X384076Y39820D01*
X384132Y39782D01*
X384187Y39742D01*
X384238Y39698D01*
X384287Y39651D01*
X384334Y39602D01*
X384378Y39551D01*
X384418Y39496D01*
X384456Y39440D01*
X384490Y39382D01*
X384521Y39322D01*
X384549Y39260D01*
X384573Y39197D01*
X384594Y39132D01*
X384611Y39067D01*
X384624Y39000D01*
X384633Y38933D01*
X384639Y38866D01*
X384641Y38798D01*
X383434Y40005D02*
X383356Y40003D01*
X383278Y39997D01*
X383201Y39987D01*
X383124Y39974D01*
X383048Y39956D01*
X382973Y39935D01*
X382899Y39910D01*
X382827Y39881D01*
X382756Y39849D01*
X382687Y39813D01*
X382619Y39774D01*
X382554Y39731D01*
X382491Y39685D01*
X382430Y39636D01*
X382372Y39584D01*
X382317Y39529D01*
X382264Y39472D01*
X382215Y39412D01*
X382168Y39349D01*
X382125Y39285D01*
X382085Y39218D01*
X382048Y39149D01*
X382015Y39078D01*
X381985Y39006D01*
X381959Y38933D01*
X384239Y37860D02*
X384288Y37909D01*
X384335Y37961D01*
X384378Y38016D01*
X384419Y38073D01*
X384457Y38132D01*
X384491Y38193D01*
X384522Y38256D01*
X384550Y38320D01*
X384574Y38386D01*
X384594Y38452D01*
X384611Y38520D01*
X384624Y38589D01*
X384633Y38658D01*
X384639Y38728D01*
X384641Y38798D01*
X384239Y37860D02*
X381960Y35179D01*
X384641Y35179D01*
D12*
X76600Y76200D02*
X76608Y76814D01*
X76630Y77427D01*
X76668Y78039D01*
X76720Y78650D01*
X76788Y79260D01*
X76871Y79868D01*
X76968Y80474D01*
X77080Y81077D01*
X77207Y81678D01*
X77349Y82275D01*
X77506Y82868D01*
X77676Y83457D01*
X77862Y84042D01*
X78061Y84622D01*
X78275Y85197D01*
X78503Y85767D01*
X78745Y86331D01*
X79000Y86889D01*
X79269Y87440D01*
X79552Y87985D01*
X79848Y88522D01*
X80157Y89053D01*
X80479Y89575D01*
X80813Y90089D01*
X81160Y90595D01*
X81520Y91092D01*
X81891Y91581D01*
X82275Y92060D01*
X82670Y92529D01*
X83076Y92989D01*
X83494Y93439D01*
X83922Y93878D01*
X84361Y94306D01*
X84811Y94724D01*
X85271Y95130D01*
X85740Y95525D01*
X86219Y95909D01*
X86708Y96280D01*
X87205Y96640D01*
X87711Y96987D01*
X88225Y97321D01*
X88747Y97643D01*
X89278Y97952D01*
X89815Y98248D01*
X90360Y98531D01*
X90911Y98800D01*
X91469Y99055D01*
X92033Y99297D01*
X92603Y99525D01*
X93178Y99739D01*
X93758Y99938D01*
X94343Y100124D01*
X94932Y100294D01*
X95525Y100451D01*
X96122Y100593D01*
X96723Y100720D01*
X97326Y100832D01*
X97932Y100929D01*
X98540Y101012D01*
X99150Y101080D01*
X99761Y101132D01*
X100373Y101170D01*
X100986Y101192D01*
X101600Y101200D01*
X102214Y101192D01*
X102827Y101170D01*
X103439Y101132D01*
X104050Y101080D01*
X104660Y101012D01*
X105268Y100929D01*
X105874Y100832D01*
X106477Y100720D01*
X107078Y100593D01*
X107675Y100451D01*
X108268Y100294D01*
X108857Y100124D01*
X109442Y99938D01*
X110022Y99739D01*
X110597Y99525D01*
X111167Y99297D01*
X111731Y99055D01*
X112289Y98800D01*
X112840Y98531D01*
X113385Y98248D01*
X113922Y97952D01*
X114453Y97643D01*
X114975Y97321D01*
X115489Y96987D01*
X115995Y96640D01*
X116492Y96280D01*
X116981Y95909D01*
X117460Y95525D01*
X117929Y95130D01*
X118389Y94724D01*
X118839Y94306D01*
X119278Y93878D01*
X119706Y93439D01*
X120124Y92989D01*
X120530Y92529D01*
X120925Y92060D01*
X121309Y91581D01*
X121680Y91092D01*
X122040Y90595D01*
X122387Y90089D01*
X122721Y89575D01*
X123043Y89053D01*
X123352Y88522D01*
X123648Y87985D01*
X123931Y87440D01*
X124200Y86889D01*
X124455Y86331D01*
X124697Y85767D01*
X124925Y85197D01*
X125139Y84622D01*
X125338Y84042D01*
X125524Y83457D01*
X125694Y82868D01*
X125851Y82275D01*
X125993Y81678D01*
X126120Y81077D01*
X126232Y80474D01*
X126329Y79868D01*
X126412Y79260D01*
X126480Y78650D01*
X126532Y78039D01*
X126570Y77427D01*
X126592Y76814D01*
X126600Y76200D01*
X126592Y75586D01*
X126570Y74973D01*
X126532Y74361D01*
X126480Y73750D01*
X126412Y73140D01*
X126329Y72532D01*
X126232Y71926D01*
X126120Y71323D01*
X125993Y70722D01*
X125851Y70125D01*
X125694Y69532D01*
X125524Y68943D01*
X125338Y68358D01*
X125139Y67778D01*
X124925Y67203D01*
X124697Y66633D01*
X124455Y66069D01*
X124200Y65511D01*
X123931Y64960D01*
X123648Y64415D01*
X123352Y63878D01*
X123043Y63347D01*
X122721Y62825D01*
X122387Y62311D01*
X122040Y61805D01*
X121680Y61308D01*
X121309Y60819D01*
X120925Y60340D01*
X120530Y59871D01*
X120124Y59411D01*
X119706Y58961D01*
X119278Y58522D01*
X118839Y58094D01*
X118389Y57676D01*
X117929Y57270D01*
X117460Y56875D01*
X116981Y56491D01*
X116492Y56120D01*
X115995Y55760D01*
X115489Y55413D01*
X114975Y55079D01*
X114453Y54757D01*
X113922Y54448D01*
X113385Y54152D01*
X112840Y53869D01*
X112289Y53600D01*
X111731Y53345D01*
X111167Y53103D01*
X110597Y52875D01*
X110022Y52661D01*
X109442Y52462D01*
X108857Y52276D01*
X108268Y52106D01*
X107675Y51949D01*
X107078Y51807D01*
X106477Y51680D01*
X105874Y51568D01*
X105268Y51471D01*
X104660Y51388D01*
X104050Y51320D01*
X103439Y51268D01*
X102827Y51230D01*
X102214Y51208D01*
X101600Y51200D01*
X100986Y51208D01*
X100373Y51230D01*
X99761Y51268D01*
X99150Y51320D01*
X98540Y51388D01*
X97932Y51471D01*
X97326Y51568D01*
X96723Y51680D01*
X96122Y51807D01*
X95525Y51949D01*
X94932Y52106D01*
X94343Y52276D01*
X93758Y52462D01*
X93178Y52661D01*
X92603Y52875D01*
X92033Y53103D01*
X91469Y53345D01*
X90911Y53600D01*
X90360Y53869D01*
X89815Y54152D01*
X89278Y54448D01*
X88747Y54757D01*
X88225Y55079D01*
X87711Y55413D01*
X87205Y55760D01*
X86708Y56120D01*
X86219Y56491D01*
X85740Y56875D01*
X85271Y57270D01*
X84811Y57676D01*
X84361Y58094D01*
X83922Y58522D01*
X83494Y58961D01*
X83076Y59411D01*
X82670Y59871D01*
X82275Y60340D01*
X81891Y60819D01*
X81520Y61308D01*
X81160Y61805D01*
X80813Y62311D01*
X80479Y62825D01*
X80157Y63347D01*
X79848Y63878D01*
X79552Y64415D01*
X79269Y64960D01*
X79000Y65511D01*
X78745Y66069D01*
X78503Y66633D01*
X78275Y67203D01*
X78061Y67778D01*
X77862Y68358D01*
X77676Y68943D01*
X77506Y69532D01*
X77349Y70125D01*
X77207Y70722D01*
X77080Y71323D01*
X76968Y71926D01*
X76871Y72532D01*
X76788Y73140D01*
X76720Y73750D01*
X76668Y74361D01*
X76630Y74973D01*
X76608Y75586D01*
X76600Y76200D01*
X87630Y68780D02*
X87630Y58620D01*
X87630Y83620D02*
X87630Y93780D01*
X82550Y88700D02*
X92710Y88700D01*
D11*
X74295Y74704D02*
X74295Y73632D01*
X74293Y73567D01*
X74287Y73503D01*
X74277Y73439D01*
X74264Y73375D01*
X74246Y73313D01*
X74225Y73252D01*
X74201Y73192D01*
X74172Y73134D01*
X74140Y73077D01*
X74105Y73023D01*
X74067Y72971D01*
X74025Y72921D01*
X73981Y72874D01*
X73934Y72830D01*
X73884Y72788D01*
X73832Y72750D01*
X73778Y72715D01*
X73721Y72683D01*
X73663Y72654D01*
X73603Y72630D01*
X73542Y72609D01*
X73480Y72591D01*
X73416Y72578D01*
X73352Y72568D01*
X73288Y72562D01*
X73223Y72560D01*
X73223Y72559D02*
X70541Y72559D01*
X70476Y72561D01*
X70412Y72567D01*
X70348Y72577D01*
X70284Y72590D01*
X70222Y72608D01*
X70161Y72629D01*
X70101Y72654D01*
X70042Y72682D01*
X69986Y72714D01*
X69931Y72749D01*
X69879Y72787D01*
X69829Y72829D01*
X69782Y72873D01*
X69738Y72920D01*
X69696Y72970D01*
X69658Y73022D01*
X69623Y73077D01*
X69591Y73133D01*
X69563Y73192D01*
X69538Y73251D01*
X69517Y73313D01*
X69499Y73375D01*
X69486Y73439D01*
X69476Y73503D01*
X69470Y73567D01*
X69468Y73632D01*
X69469Y73632D02*
X69469Y74704D01*
X69469Y78232D02*
X73223Y77160D01*
X73223Y79841D01*
X72150Y79037D02*
X74295Y79037D01*
D12*
X307340Y110490D02*
X307340Y41910D01*
X353060Y41910D02*
X353060Y110490D01*
X353060Y41910D02*
X353053Y41353D01*
X353033Y40797D01*
X352999Y40241D01*
X352952Y39687D01*
X352891Y39133D01*
X352816Y38582D01*
X352729Y38032D01*
X352628Y37484D01*
X352513Y36940D01*
X352385Y36398D01*
X352245Y35859D01*
X352091Y35324D01*
X351924Y34793D01*
X351744Y34266D01*
X351552Y33744D01*
X351346Y33226D01*
X351129Y32714D01*
X350899Y32207D01*
X350656Y31706D01*
X350402Y31211D01*
X350135Y30722D01*
X349857Y30240D01*
X349567Y29765D01*
X349265Y29297D01*
X348952Y28836D01*
X348628Y28383D01*
X348294Y27939D01*
X347948Y27502D01*
X347592Y27074D01*
X347225Y26655D01*
X346849Y26245D01*
X346463Y25844D01*
X346067Y25453D01*
X345661Y25072D01*
X345246Y24700D01*
X344823Y24339D01*
X344391Y23988D01*
X343950Y23648D01*
X343501Y23318D01*
X343045Y23000D01*
X342580Y22693D01*
X342109Y22397D01*
X341630Y22113D01*
X341145Y21840D01*
X340653Y21580D01*
X340154Y21331D01*
X339650Y21095D01*
X339141Y20871D01*
X338626Y20659D01*
X338106Y20461D01*
X337581Y20274D01*
X337052Y20101D01*
X336519Y19941D01*
X335982Y19793D01*
X335442Y19659D01*
X334898Y19538D01*
X334352Y19430D01*
X333804Y19336D01*
X333253Y19255D01*
X332700Y19187D01*
X332146Y19133D01*
X331591Y19092D01*
X331035Y19065D01*
X330478Y19052D01*
X329922Y19052D01*
X329365Y19065D01*
X328809Y19092D01*
X328254Y19133D01*
X327700Y19187D01*
X327147Y19255D01*
X326596Y19336D01*
X326048Y19430D01*
X325502Y19538D01*
X324958Y19659D01*
X324418Y19793D01*
X323881Y19941D01*
X323348Y20101D01*
X322819Y20274D01*
X322294Y20461D01*
X321774Y20659D01*
X321259Y20871D01*
X320750Y21095D01*
X320246Y21331D01*
X319747Y21580D01*
X319255Y21840D01*
X318770Y22113D01*
X318291Y22397D01*
X317820Y22693D01*
X317355Y23000D01*
X316899Y23318D01*
X316450Y23648D01*
X316009Y23988D01*
X315577Y24339D01*
X315154Y24700D01*
X314739Y25072D01*
X314333Y25453D01*
X313937Y25844D01*
X313551Y26245D01*
X313175Y26655D01*
X312808Y27074D01*
X312452Y27502D01*
X312106Y27939D01*
X311772Y28383D01*
X311448Y28836D01*
X311135Y29297D01*
X310833Y29765D01*
X310543Y30240D01*
X310265Y30722D01*
X309998Y31211D01*
X309744Y31706D01*
X309501Y32207D01*
X309271Y32714D01*
X309054Y33226D01*
X308848Y33744D01*
X308656Y34266D01*
X308476Y34793D01*
X308309Y35324D01*
X308155Y35859D01*
X308015Y36398D01*
X307887Y36940D01*
X307772Y37484D01*
X307671Y38032D01*
X307584Y38582D01*
X307509Y39133D01*
X307448Y39687D01*
X307401Y40241D01*
X307367Y40797D01*
X307347Y41353D01*
X307340Y41910D01*
X307340Y110490D02*
X307347Y111047D01*
X307367Y111603D01*
X307401Y112159D01*
X307448Y112713D01*
X307509Y113267D01*
X307584Y113818D01*
X307671Y114368D01*
X307772Y114916D01*
X307887Y115460D01*
X308015Y116002D01*
X308155Y116541D01*
X308309Y117076D01*
X308476Y117607D01*
X308656Y118134D01*
X308848Y118656D01*
X309054Y119174D01*
X309271Y119686D01*
X309501Y120193D01*
X309744Y120694D01*
X309998Y121189D01*
X310265Y121678D01*
X310543Y122160D01*
X310833Y122635D01*
X311135Y123103D01*
X311448Y123564D01*
X311772Y124017D01*
X312106Y124461D01*
X312452Y124898D01*
X312808Y125326D01*
X313175Y125745D01*
X313551Y126155D01*
X313937Y126556D01*
X314333Y126947D01*
X314739Y127328D01*
X315154Y127700D01*
X315577Y128061D01*
X316009Y128412D01*
X316450Y128752D01*
X316899Y129082D01*
X317355Y129400D01*
X317820Y129707D01*
X318291Y130003D01*
X318770Y130287D01*
X319255Y130560D01*
X319747Y130820D01*
X320246Y131069D01*
X320750Y131305D01*
X321259Y131529D01*
X321774Y131741D01*
X322294Y131939D01*
X322819Y132126D01*
X323348Y132299D01*
X323881Y132459D01*
X324418Y132607D01*
X324958Y132741D01*
X325502Y132862D01*
X326048Y132970D01*
X326596Y133064D01*
X327147Y133145D01*
X327700Y133213D01*
X328254Y133267D01*
X328809Y133308D01*
X329365Y133335D01*
X329922Y133348D01*
X330478Y133348D01*
X331035Y133335D01*
X331591Y133308D01*
X332146Y133267D01*
X332700Y133213D01*
X333253Y133145D01*
X333804Y133064D01*
X334352Y132970D01*
X334898Y132862D01*
X335442Y132741D01*
X335982Y132607D01*
X336519Y132459D01*
X337052Y132299D01*
X337581Y132126D01*
X338106Y131939D01*
X338626Y131741D01*
X339141Y131529D01*
X339650Y131305D01*
X340154Y131069D01*
X340653Y130820D01*
X341145Y130560D01*
X341630Y130287D01*
X342109Y130003D01*
X342580Y129707D01*
X343045Y129400D01*
X343501Y129082D01*
X343950Y128752D01*
X344391Y128412D01*
X344823Y128061D01*
X345246Y127700D01*
X345661Y127328D01*
X346067Y126947D01*
X346463Y126556D01*
X346849Y126155D01*
X347225Y125745D01*
X347592Y125326D01*
X347948Y124898D01*
X348294Y124461D01*
X348628Y124017D01*
X348952Y123564D01*
X349265Y123103D01*
X349567Y122635D01*
X349857Y122160D01*
X350135Y121678D01*
X350402Y121189D01*
X350656Y120694D01*
X350899Y120193D01*
X351129Y119686D01*
X351346Y119174D01*
X351552Y118656D01*
X351744Y118134D01*
X351924Y117607D01*
X352091Y117076D01*
X352245Y116541D01*
X352385Y116002D01*
X352513Y115460D01*
X352628Y114916D01*
X352729Y114368D01*
X352816Y113818D01*
X352891Y113267D01*
X352952Y112713D01*
X352999Y112159D01*
X353033Y111603D01*
X353053Y111047D01*
X353060Y110490D01*
D11*
X361061Y61612D02*
X361061Y60540D01*
X361059Y60475D01*
X361053Y60411D01*
X361043Y60347D01*
X361030Y60283D01*
X361012Y60221D01*
X360991Y60160D01*
X360967Y60100D01*
X360938Y60042D01*
X360906Y59985D01*
X360871Y59931D01*
X360833Y59879D01*
X360791Y59829D01*
X360747Y59782D01*
X360700Y59738D01*
X360650Y59696D01*
X360598Y59658D01*
X360544Y59623D01*
X360487Y59591D01*
X360429Y59562D01*
X360369Y59538D01*
X360308Y59517D01*
X360246Y59499D01*
X360182Y59486D01*
X360118Y59476D01*
X360054Y59470D01*
X359989Y59468D01*
X359989Y59467D02*
X357307Y59467D01*
X357242Y59469D01*
X357178Y59475D01*
X357114Y59485D01*
X357050Y59498D01*
X356988Y59516D01*
X356927Y59537D01*
X356867Y59562D01*
X356808Y59590D01*
X356752Y59622D01*
X356697Y59657D01*
X356645Y59695D01*
X356595Y59737D01*
X356548Y59781D01*
X356504Y59828D01*
X356462Y59878D01*
X356424Y59930D01*
X356389Y59985D01*
X356357Y60041D01*
X356329Y60100D01*
X356304Y60159D01*
X356283Y60221D01*
X356265Y60283D01*
X356252Y60347D01*
X356242Y60411D01*
X356236Y60475D01*
X356234Y60540D01*
X356235Y60540D02*
X356235Y61612D01*
X356235Y64315D02*
X361061Y64315D01*
X356235Y64315D02*
X356235Y65655D01*
X356237Y65726D01*
X356243Y65798D01*
X356252Y65868D01*
X356265Y65938D01*
X356282Y66008D01*
X356303Y66076D01*
X356327Y66143D01*
X356355Y66209D01*
X356386Y66273D01*
X356421Y66336D01*
X356459Y66396D01*
X356500Y66455D01*
X356544Y66511D01*
X356591Y66565D01*
X356640Y66616D01*
X356693Y66664D01*
X356748Y66710D01*
X356805Y66752D01*
X356865Y66792D01*
X356926Y66828D01*
X356990Y66861D01*
X357055Y66890D01*
X357121Y66916D01*
X357189Y66939D01*
X357258Y66958D01*
X357328Y66973D01*
X357398Y66984D01*
X357469Y66992D01*
X357540Y66996D01*
X357612Y66996D01*
X357683Y66992D01*
X357754Y66984D01*
X357824Y66973D01*
X357894Y66958D01*
X357963Y66939D01*
X358031Y66916D01*
X358097Y66890D01*
X358162Y66861D01*
X358226Y66828D01*
X358287Y66792D01*
X358347Y66752D01*
X358404Y66710D01*
X358459Y66664D01*
X358512Y66616D01*
X358561Y66565D01*
X358608Y66511D01*
X358652Y66455D01*
X358693Y66396D01*
X358731Y66336D01*
X358766Y66273D01*
X358797Y66209D01*
X358825Y66143D01*
X358849Y66076D01*
X358870Y66008D01*
X358887Y65938D01*
X358900Y65868D01*
X358909Y65798D01*
X358915Y65726D01*
X358917Y65655D01*
X358916Y65655D02*
X358916Y64315D01*
X358916Y65923D02*
X361061Y66996D01*
X358514Y71078D02*
X356235Y69469D01*
X358514Y71078D02*
X356235Y72686D01*
X358514Y71078D02*
X361061Y71078D01*
X361061Y76649D02*
X361059Y76714D01*
X361053Y76778D01*
X361043Y76842D01*
X361030Y76906D01*
X361012Y76968D01*
X360991Y77029D01*
X360967Y77089D01*
X360938Y77147D01*
X360906Y77204D01*
X360871Y77258D01*
X360833Y77310D01*
X360791Y77360D01*
X360747Y77407D01*
X360700Y77451D01*
X360650Y77493D01*
X360598Y77531D01*
X360544Y77566D01*
X360487Y77598D01*
X360429Y77627D01*
X360369Y77651D01*
X360308Y77672D01*
X360246Y77690D01*
X360182Y77703D01*
X360118Y77713D01*
X360054Y77719D01*
X359989Y77721D01*
X361061Y76649D02*
X361059Y76555D01*
X361053Y76461D01*
X361043Y76367D01*
X361030Y76274D01*
X361012Y76182D01*
X360991Y76090D01*
X360966Y75999D01*
X360937Y75909D01*
X360904Y75821D01*
X360868Y75734D01*
X360828Y75649D01*
X360785Y75565D01*
X360738Y75484D01*
X360688Y75404D01*
X360635Y75326D01*
X360578Y75251D01*
X360519Y75178D01*
X360456Y75108D01*
X360391Y75040D01*
X357307Y75175D02*
X357242Y75177D01*
X357178Y75183D01*
X357114Y75193D01*
X357050Y75206D01*
X356988Y75224D01*
X356927Y75245D01*
X356867Y75269D01*
X356809Y75298D01*
X356752Y75330D01*
X356698Y75365D01*
X356646Y75403D01*
X356596Y75445D01*
X356549Y75489D01*
X356505Y75536D01*
X356463Y75586D01*
X356425Y75638D01*
X356390Y75692D01*
X356358Y75749D01*
X356329Y75807D01*
X356305Y75867D01*
X356284Y75928D01*
X356266Y75990D01*
X356253Y76054D01*
X356243Y76118D01*
X356237Y76182D01*
X356235Y76247D01*
X356237Y76333D01*
X356242Y76419D01*
X356252Y76505D01*
X356265Y76590D01*
X356281Y76675D01*
X356301Y76759D01*
X356325Y76842D01*
X356352Y76924D01*
X356383Y77004D01*
X356417Y77084D01*
X356455Y77161D01*
X356496Y77237D01*
X356540Y77311D01*
X356587Y77384D01*
X356637Y77454D01*
X358245Y75711D02*
X358212Y75658D01*
X358175Y75607D01*
X358136Y75558D01*
X358094Y75511D01*
X358049Y75467D01*
X358002Y75426D01*
X357953Y75387D01*
X357901Y75351D01*
X357847Y75318D01*
X357792Y75289D01*
X357735Y75263D01*
X357676Y75240D01*
X357617Y75220D01*
X357556Y75204D01*
X357495Y75191D01*
X357432Y75182D01*
X357370Y75177D01*
X357307Y75175D01*
X359051Y77186D02*
X359084Y77239D01*
X359121Y77290D01*
X359160Y77339D01*
X359202Y77386D01*
X359247Y77430D01*
X359294Y77471D01*
X359343Y77510D01*
X359395Y77546D01*
X359449Y77579D01*
X359504Y77608D01*
X359561Y77634D01*
X359620Y77657D01*
X359679Y77677D01*
X359740Y77693D01*
X359801Y77706D01*
X359864Y77715D01*
X359926Y77720D01*
X359989Y77722D01*
X359050Y77186D02*
X358246Y75711D01*
X356235Y81319D02*
X361061Y81319D01*
X356235Y79978D02*
X356235Y82660D01*
X356235Y86440D02*
X361061Y84831D01*
X361061Y88048D02*
X356235Y86440D01*
X359855Y87646D02*
X359855Y85233D01*
X361061Y90788D02*
X356235Y90788D01*
X361061Y90788D02*
X361061Y92933D01*
D12*
X247650Y88900D02*
X241300Y95250D01*
X241300Y107950D01*
X247650Y114300D01*
X260350Y114300D02*
X266700Y107950D01*
X266700Y95250D01*
X260350Y88900D01*
X241300Y57150D02*
X241300Y44450D01*
X241300Y57150D02*
X247650Y63500D01*
X260350Y63500D02*
X266700Y57150D01*
X247650Y63500D02*
X241300Y69850D01*
X241300Y82550D01*
X247650Y88900D01*
X260350Y88900D02*
X266700Y82550D01*
X266700Y69850D01*
X260350Y63500D01*
X260350Y38100D02*
X247650Y38100D01*
X241300Y44450D01*
X260350Y38100D02*
X266700Y44450D01*
X266700Y57150D01*
X260350Y114300D02*
X247650Y114300D01*
D11*
X239395Y39271D02*
X234569Y39271D01*
X239395Y38735D02*
X239395Y39807D01*
X234569Y39807D02*
X234569Y38735D01*
X234569Y42503D02*
X239395Y42503D01*
X239395Y45184D02*
X234569Y42503D01*
X234569Y45184D02*
X239395Y45184D01*
X239395Y48374D02*
X234569Y48374D01*
X234569Y50519D01*
X236714Y50519D02*
X236714Y48374D01*
X234569Y53173D02*
X239395Y53173D01*
X234569Y53173D02*
X234569Y54514D01*
X234571Y54585D01*
X234577Y54657D01*
X234586Y54727D01*
X234599Y54797D01*
X234616Y54867D01*
X234637Y54935D01*
X234661Y55002D01*
X234689Y55068D01*
X234720Y55132D01*
X234755Y55195D01*
X234793Y55255D01*
X234834Y55314D01*
X234878Y55370D01*
X234925Y55424D01*
X234974Y55475D01*
X235027Y55523D01*
X235082Y55569D01*
X235139Y55611D01*
X235199Y55651D01*
X235260Y55687D01*
X235324Y55720D01*
X235389Y55749D01*
X235455Y55775D01*
X235523Y55798D01*
X235592Y55817D01*
X235662Y55832D01*
X235732Y55843D01*
X235803Y55851D01*
X235874Y55855D01*
X235946Y55855D01*
X236017Y55851D01*
X236088Y55843D01*
X236158Y55832D01*
X236228Y55817D01*
X236297Y55798D01*
X236365Y55775D01*
X236431Y55749D01*
X236496Y55720D01*
X236560Y55687D01*
X236621Y55651D01*
X236681Y55611D01*
X236738Y55569D01*
X236793Y55523D01*
X236846Y55475D01*
X236895Y55424D01*
X236942Y55370D01*
X236986Y55314D01*
X237027Y55255D01*
X237065Y55195D01*
X237100Y55132D01*
X237131Y55068D01*
X237159Y55002D01*
X237183Y54935D01*
X237204Y54867D01*
X237221Y54797D01*
X237234Y54727D01*
X237243Y54657D01*
X237249Y54585D01*
X237251Y54514D01*
X237250Y54514D02*
X237250Y53173D01*
X237250Y54782D02*
X239395Y55854D01*
X239395Y58328D02*
X234569Y59937D01*
X239395Y61545D01*
X238189Y61143D02*
X238189Y58730D01*
D12*
X144600Y396100D02*
X58600Y396100D01*
X144600Y396100D02*
X144600Y253100D01*
X128600Y253100D01*
X74600Y253100D02*
X58600Y253100D01*
X58600Y316600D02*
X58600Y396100D01*
X58600Y269100D02*
X58600Y253100D01*
D10*
X127428Y240792D02*
X127428Y231704D01*
X127427Y231704D02*
X127425Y231605D01*
X127419Y231505D01*
X127410Y231406D01*
X127397Y231308D01*
X127380Y231210D01*
X127359Y231112D01*
X127334Y231016D01*
X127306Y230921D01*
X127274Y230827D01*
X127239Y230734D01*
X127200Y230642D01*
X127157Y230552D01*
X127112Y230464D01*
X127062Y230377D01*
X127010Y230293D01*
X126954Y230210D01*
X126896Y230130D01*
X126834Y230052D01*
X126769Y229977D01*
X126701Y229904D01*
X126631Y229834D01*
X126558Y229766D01*
X126483Y229701D01*
X126405Y229639D01*
X126325Y229581D01*
X126242Y229525D01*
X126158Y229473D01*
X126071Y229423D01*
X125983Y229378D01*
X125893Y229335D01*
X125801Y229296D01*
X125708Y229261D01*
X125614Y229229D01*
X125519Y229201D01*
X125423Y229176D01*
X125325Y229155D01*
X125227Y229138D01*
X125129Y229125D01*
X125030Y229116D01*
X124930Y229110D01*
X124831Y229108D01*
X123533Y229108D01*
X136271Y240792D02*
X136378Y240790D01*
X136484Y240784D01*
X136590Y240774D01*
X136696Y240761D01*
X136802Y240743D01*
X136906Y240722D01*
X137010Y240697D01*
X137113Y240668D01*
X137214Y240636D01*
X137314Y240599D01*
X137413Y240559D01*
X137511Y240516D01*
X137607Y240469D01*
X137701Y240418D01*
X137793Y240364D01*
X137883Y240307D01*
X137971Y240247D01*
X138056Y240183D01*
X138139Y240116D01*
X138220Y240046D01*
X138298Y239974D01*
X138374Y239898D01*
X138446Y239820D01*
X138516Y239739D01*
X138583Y239656D01*
X138647Y239571D01*
X138707Y239483D01*
X138764Y239393D01*
X138818Y239301D01*
X138869Y239207D01*
X138916Y239111D01*
X138959Y239013D01*
X138999Y238914D01*
X139036Y238814D01*
X139068Y238713D01*
X139097Y238610D01*
X139122Y238506D01*
X139143Y238402D01*
X139161Y238296D01*
X139174Y238190D01*
X139184Y238084D01*
X139190Y237978D01*
X139192Y237871D01*
X136271Y240792D02*
X136150Y240790D01*
X136029Y240784D01*
X135909Y240774D01*
X135788Y240761D01*
X135669Y240743D01*
X135549Y240722D01*
X135431Y240697D01*
X135314Y240668D01*
X135197Y240635D01*
X135082Y240599D01*
X134968Y240558D01*
X134855Y240515D01*
X134743Y240467D01*
X134634Y240416D01*
X134526Y240361D01*
X134419Y240303D01*
X134315Y240242D01*
X134213Y240177D01*
X134113Y240109D01*
X134015Y240038D01*
X133919Y239964D01*
X133826Y239887D01*
X133736Y239806D01*
X133648Y239723D01*
X133563Y239637D01*
X133480Y239548D01*
X133401Y239457D01*
X133324Y239363D01*
X133251Y239267D01*
X133181Y239169D01*
X133114Y239068D01*
X133050Y238965D01*
X132990Y238860D01*
X132933Y238753D01*
X132879Y238645D01*
X132829Y238535D01*
X132783Y238423D01*
X132740Y238310D01*
X132701Y238195D01*
X138219Y235599D02*
X138298Y235676D01*
X138374Y235757D01*
X138447Y235840D01*
X138517Y235925D01*
X138584Y236013D01*
X138648Y236103D01*
X138708Y236195D01*
X138765Y236290D01*
X138819Y236386D01*
X138870Y236484D01*
X138917Y236584D01*
X138961Y236686D01*
X139001Y236789D01*
X139037Y236893D01*
X139069Y236999D01*
X139098Y237105D01*
X139123Y237213D01*
X139145Y237321D01*
X139162Y237431D01*
X139176Y237540D01*
X139185Y237650D01*
X139191Y237761D01*
X139193Y237871D01*
X138218Y235599D02*
X132701Y229108D01*
X139192Y229108D01*
D12*
X196850Y304800D02*
X209550Y304800D01*
X215900Y298450D01*
X215900Y285750D02*
X209550Y279400D01*
X215900Y298450D02*
X222250Y304800D01*
X234950Y304800D01*
X241300Y298450D01*
X241300Y285750D02*
X234950Y279400D01*
X222250Y279400D01*
X215900Y285750D01*
X190500Y285750D02*
X190500Y298450D01*
X196850Y304800D01*
X190500Y285750D02*
X196850Y279400D01*
X209550Y279400D01*
X241300Y285750D02*
X241300Y298450D01*
D11*
X191135Y306705D02*
X191135Y311531D01*
X191135Y306705D02*
X193280Y306705D01*
X195890Y306705D02*
X198035Y306705D01*
X195890Y306705D02*
X195890Y311531D01*
X198035Y311531D01*
X197498Y309386D02*
X195890Y309386D01*
X200625Y311531D02*
X200625Y306705D01*
X200625Y311531D02*
X201966Y311531D01*
X202036Y311529D01*
X202106Y311524D01*
X202176Y311514D01*
X202245Y311502D01*
X202313Y311485D01*
X202380Y311465D01*
X202447Y311442D01*
X202511Y311415D01*
X202575Y311385D01*
X202637Y311351D01*
X202696Y311315D01*
X202754Y311275D01*
X202810Y311232D01*
X202863Y311187D01*
X202914Y311138D01*
X202963Y311087D01*
X203008Y311034D01*
X203051Y310978D01*
X203091Y310920D01*
X203127Y310861D01*
X203161Y310799D01*
X203191Y310735D01*
X203218Y310671D01*
X203241Y310604D01*
X203261Y310537D01*
X203278Y310469D01*
X203290Y310400D01*
X203300Y310330D01*
X203305Y310260D01*
X203307Y310190D01*
X203306Y310190D02*
X203306Y308046D01*
X203307Y308046D02*
X203305Y307976D01*
X203300Y307906D01*
X203290Y307836D01*
X203278Y307767D01*
X203261Y307699D01*
X203241Y307632D01*
X203218Y307565D01*
X203191Y307501D01*
X203161Y307437D01*
X203127Y307375D01*
X203091Y307316D01*
X203051Y307258D01*
X203008Y307202D01*
X202963Y307149D01*
X202914Y307098D01*
X202863Y307049D01*
X202810Y307004D01*
X202754Y306961D01*
X202696Y306921D01*
X202636Y306885D01*
X202575Y306851D01*
X202511Y306821D01*
X202447Y306794D01*
X202380Y306771D01*
X202313Y306751D01*
X202245Y306734D01*
X202176Y306722D01*
X202106Y306712D01*
X202036Y306707D01*
X201966Y306705D01*
X200625Y306705D01*
X207720Y306705D02*
X207785Y306707D01*
X207849Y306713D01*
X207913Y306723D01*
X207977Y306736D01*
X208039Y306754D01*
X208100Y306775D01*
X208160Y306799D01*
X208218Y306828D01*
X208275Y306860D01*
X208329Y306895D01*
X208381Y306933D01*
X208431Y306975D01*
X208478Y307019D01*
X208522Y307066D01*
X208564Y307116D01*
X208602Y307168D01*
X208637Y307222D01*
X208669Y307279D01*
X208698Y307337D01*
X208722Y307397D01*
X208743Y307458D01*
X208761Y307520D01*
X208774Y307584D01*
X208784Y307648D01*
X208790Y307712D01*
X208792Y307777D01*
X207720Y306705D02*
X207626Y306707D01*
X207532Y306713D01*
X207438Y306723D01*
X207345Y306736D01*
X207253Y306754D01*
X207161Y306775D01*
X207070Y306800D01*
X206980Y306829D01*
X206892Y306862D01*
X206805Y306898D01*
X206720Y306938D01*
X206636Y306981D01*
X206555Y307028D01*
X206475Y307078D01*
X206397Y307131D01*
X206322Y307188D01*
X206249Y307247D01*
X206179Y307310D01*
X206111Y307375D01*
X206246Y310459D02*
X206248Y310524D01*
X206254Y310588D01*
X206264Y310652D01*
X206277Y310716D01*
X206295Y310778D01*
X206316Y310839D01*
X206340Y310899D01*
X206369Y310957D01*
X206401Y311014D01*
X206436Y311068D01*
X206474Y311120D01*
X206516Y311170D01*
X206560Y311217D01*
X206607Y311261D01*
X206657Y311303D01*
X206709Y311341D01*
X206763Y311376D01*
X206820Y311408D01*
X206878Y311437D01*
X206938Y311461D01*
X206999Y311482D01*
X207061Y311500D01*
X207125Y311513D01*
X207189Y311523D01*
X207253Y311529D01*
X207318Y311531D01*
X207404Y311529D01*
X207490Y311524D01*
X207576Y311514D01*
X207661Y311501D01*
X207746Y311485D01*
X207830Y311465D01*
X207913Y311441D01*
X207995Y311414D01*
X208075Y311383D01*
X208155Y311349D01*
X208232Y311311D01*
X208308Y311270D01*
X208382Y311226D01*
X208454Y311179D01*
X208525Y311129D01*
X206782Y309521D02*
X206729Y309554D01*
X206678Y309591D01*
X206629Y309630D01*
X206582Y309672D01*
X206538Y309717D01*
X206497Y309764D01*
X206458Y309813D01*
X206422Y309865D01*
X206389Y309919D01*
X206360Y309974D01*
X206334Y310031D01*
X206311Y310090D01*
X206291Y310149D01*
X206275Y310210D01*
X206262Y310271D01*
X206253Y310334D01*
X206248Y310396D01*
X206246Y310459D01*
X208256Y308715D02*
X208309Y308682D01*
X208360Y308645D01*
X208409Y308606D01*
X208456Y308564D01*
X208500Y308519D01*
X208541Y308472D01*
X208580Y308423D01*
X208616Y308371D01*
X208649Y308317D01*
X208678Y308262D01*
X208704Y308205D01*
X208727Y308146D01*
X208747Y308087D01*
X208763Y308026D01*
X208776Y307965D01*
X208785Y307902D01*
X208790Y307840D01*
X208792Y307777D01*
X208256Y308716D02*
X206782Y309520D01*
D12*
X101600Y119380D02*
X50800Y119380D01*
X50800Y127000D01*
X50800Y134620D01*
X101600Y134620D01*
X101600Y127000D01*
X101600Y119380D01*
X50800Y127000D02*
X48260Y127000D01*
X101600Y127000D02*
X104140Y127000D01*
D11*
X72148Y116205D02*
X72148Y111379D01*
X72148Y116205D02*
X73489Y116205D01*
X73560Y116203D01*
X73632Y116197D01*
X73702Y116188D01*
X73772Y116175D01*
X73842Y116158D01*
X73910Y116137D01*
X73977Y116113D01*
X74043Y116085D01*
X74107Y116054D01*
X74170Y116019D01*
X74230Y115981D01*
X74289Y115940D01*
X74345Y115896D01*
X74399Y115849D01*
X74450Y115800D01*
X74498Y115747D01*
X74544Y115692D01*
X74586Y115635D01*
X74626Y115575D01*
X74662Y115514D01*
X74695Y115450D01*
X74724Y115385D01*
X74750Y115319D01*
X74773Y115251D01*
X74792Y115182D01*
X74807Y115112D01*
X74818Y115042D01*
X74826Y114971D01*
X74830Y114900D01*
X74830Y114828D01*
X74826Y114757D01*
X74818Y114686D01*
X74807Y114616D01*
X74792Y114546D01*
X74773Y114477D01*
X74750Y114409D01*
X74724Y114343D01*
X74695Y114278D01*
X74662Y114214D01*
X74626Y114153D01*
X74586Y114093D01*
X74544Y114036D01*
X74498Y113981D01*
X74450Y113928D01*
X74399Y113879D01*
X74345Y113832D01*
X74289Y113788D01*
X74230Y113747D01*
X74170Y113709D01*
X74107Y113674D01*
X74043Y113643D01*
X73977Y113615D01*
X73910Y113591D01*
X73842Y113570D01*
X73772Y113553D01*
X73702Y113540D01*
X73632Y113531D01*
X73560Y113525D01*
X73489Y113523D01*
X73489Y113524D02*
X72148Y113524D01*
X73757Y113524D02*
X74829Y111379D01*
X77571Y115133D02*
X78911Y116205D01*
X78911Y111379D01*
X77571Y111379D02*
X80252Y111379D01*
D12*
X156210Y93980D02*
X199390Y93980D01*
X199390Y33020D02*
X156210Y33020D01*
X208280Y53340D02*
X208280Y73480D01*
X147320Y73780D02*
X147320Y53340D01*
X160020Y63500D02*
X160025Y63936D01*
X160041Y64372D01*
X160068Y64808D01*
X160106Y65243D01*
X160154Y65676D01*
X160212Y66109D01*
X160282Y66540D01*
X160362Y66969D01*
X160452Y67396D01*
X160553Y67820D01*
X160664Y68242D01*
X160786Y68661D01*
X160917Y69077D01*
X161059Y69490D01*
X161211Y69899D01*
X161373Y70304D01*
X161545Y70705D01*
X161727Y71102D01*
X161918Y71494D01*
X162119Y71881D01*
X162330Y72264D01*
X162550Y72641D01*
X162779Y73012D01*
X163016Y73378D01*
X163263Y73738D01*
X163519Y74092D01*
X163783Y74439D01*
X164056Y74780D01*
X164337Y75113D01*
X164626Y75440D01*
X164923Y75760D01*
X165228Y76072D01*
X165540Y76377D01*
X165860Y76674D01*
X166187Y76963D01*
X166520Y77244D01*
X166861Y77517D01*
X167208Y77781D01*
X167562Y78037D01*
X167922Y78284D01*
X168288Y78521D01*
X168659Y78750D01*
X169036Y78970D01*
X169419Y79181D01*
X169806Y79382D01*
X170198Y79573D01*
X170595Y79755D01*
X170996Y79927D01*
X171401Y80089D01*
X171810Y80241D01*
X172223Y80383D01*
X172639Y80514D01*
X173058Y80636D01*
X173480Y80747D01*
X173904Y80848D01*
X174331Y80938D01*
X174760Y81018D01*
X175191Y81088D01*
X175624Y81146D01*
X176057Y81194D01*
X176492Y81232D01*
X176928Y81259D01*
X177364Y81275D01*
X177800Y81280D01*
X178236Y81275D01*
X178672Y81259D01*
X179108Y81232D01*
X179543Y81194D01*
X179976Y81146D01*
X180409Y81088D01*
X180840Y81018D01*
X181269Y80938D01*
X181696Y80848D01*
X182120Y80747D01*
X182542Y80636D01*
X182961Y80514D01*
X183377Y80383D01*
X183790Y80241D01*
X184199Y80089D01*
X184604Y79927D01*
X185005Y79755D01*
X185402Y79573D01*
X185794Y79382D01*
X186181Y79181D01*
X186564Y78970D01*
X186941Y78750D01*
X187312Y78521D01*
X187678Y78284D01*
X188038Y78037D01*
X188392Y77781D01*
X188739Y77517D01*
X189080Y77244D01*
X189413Y76963D01*
X189740Y76674D01*
X190060Y76377D01*
X190372Y76072D01*
X190677Y75760D01*
X190974Y75440D01*
X191263Y75113D01*
X191544Y74780D01*
X191817Y74439D01*
X192081Y74092D01*
X192337Y73738D01*
X192584Y73378D01*
X192821Y73012D01*
X193050Y72641D01*
X193270Y72264D01*
X193481Y71881D01*
X193682Y71494D01*
X193873Y71102D01*
X194055Y70705D01*
X194227Y70304D01*
X194389Y69899D01*
X194541Y69490D01*
X194683Y69077D01*
X194814Y68661D01*
X194936Y68242D01*
X195047Y67820D01*
X195148Y67396D01*
X195238Y66969D01*
X195318Y66540D01*
X195388Y66109D01*
X195446Y65676D01*
X195494Y65243D01*
X195532Y64808D01*
X195559Y64372D01*
X195575Y63936D01*
X195580Y63500D01*
X195575Y63064D01*
X195559Y62628D01*
X195532Y62192D01*
X195494Y61757D01*
X195446Y61324D01*
X195388Y60891D01*
X195318Y60460D01*
X195238Y60031D01*
X195148Y59604D01*
X195047Y59180D01*
X194936Y58758D01*
X194814Y58339D01*
X194683Y57923D01*
X194541Y57510D01*
X194389Y57101D01*
X194227Y56696D01*
X194055Y56295D01*
X193873Y55898D01*
X193682Y55506D01*
X193481Y55119D01*
X193270Y54736D01*
X193050Y54359D01*
X192821Y53988D01*
X192584Y53622D01*
X192337Y53262D01*
X192081Y52908D01*
X191817Y52561D01*
X191544Y52220D01*
X191263Y51887D01*
X190974Y51560D01*
X190677Y51240D01*
X190372Y50928D01*
X190060Y50623D01*
X189740Y50326D01*
X189413Y50037D01*
X189080Y49756D01*
X188739Y49483D01*
X188392Y49219D01*
X188038Y48963D01*
X187678Y48716D01*
X187312Y48479D01*
X186941Y48250D01*
X186564Y48030D01*
X186181Y47819D01*
X185794Y47618D01*
X185402Y47427D01*
X185005Y47245D01*
X184604Y47073D01*
X184199Y46911D01*
X183790Y46759D01*
X183377Y46617D01*
X182961Y46486D01*
X182542Y46364D01*
X182120Y46253D01*
X181696Y46152D01*
X181269Y46062D01*
X180840Y45982D01*
X180409Y45912D01*
X179976Y45854D01*
X179543Y45806D01*
X179108Y45768D01*
X178672Y45741D01*
X178236Y45725D01*
X177800Y45720D01*
X177364Y45725D01*
X176928Y45741D01*
X176492Y45768D01*
X176057Y45806D01*
X175624Y45854D01*
X175191Y45912D01*
X174760Y45982D01*
X174331Y46062D01*
X173904Y46152D01*
X173480Y46253D01*
X173058Y46364D01*
X172639Y46486D01*
X172223Y46617D01*
X171810Y46759D01*
X171401Y46911D01*
X170996Y47073D01*
X170595Y47245D01*
X170198Y47427D01*
X169806Y47618D01*
X169419Y47819D01*
X169036Y48030D01*
X168659Y48250D01*
X168288Y48479D01*
X167922Y48716D01*
X167562Y48963D01*
X167208Y49219D01*
X166861Y49483D01*
X166520Y49756D01*
X166187Y50037D01*
X165860Y50326D01*
X165540Y50623D01*
X165228Y50928D01*
X164923Y51240D01*
X164626Y51560D01*
X164337Y51887D01*
X164056Y52220D01*
X163783Y52561D01*
X163519Y52908D01*
X163263Y53262D01*
X163016Y53622D01*
X162779Y53988D01*
X162550Y54359D01*
X162330Y54736D01*
X162119Y55119D01*
X161918Y55506D01*
X161727Y55898D01*
X161545Y56295D01*
X161373Y56696D01*
X161211Y57101D01*
X161059Y57510D01*
X160917Y57923D01*
X160786Y58339D01*
X160664Y58758D01*
X160553Y59180D01*
X160452Y59604D01*
X160362Y60031D01*
X160282Y60460D01*
X160212Y60891D01*
X160154Y61324D01*
X160106Y61757D01*
X160068Y62192D01*
X160041Y62628D01*
X160025Y63064D01*
X160020Y63500D01*
D11*
X165541Y97155D02*
X165606Y97157D01*
X165670Y97163D01*
X165734Y97173D01*
X165798Y97186D01*
X165860Y97204D01*
X165921Y97225D01*
X165981Y97249D01*
X166039Y97278D01*
X166096Y97310D01*
X166150Y97345D01*
X166202Y97383D01*
X166252Y97425D01*
X166299Y97469D01*
X166343Y97516D01*
X166385Y97566D01*
X166423Y97618D01*
X166458Y97672D01*
X166490Y97729D01*
X166519Y97787D01*
X166543Y97847D01*
X166564Y97908D01*
X166582Y97970D01*
X166595Y98034D01*
X166605Y98098D01*
X166611Y98162D01*
X166613Y98227D01*
X165541Y97155D02*
X165447Y97157D01*
X165353Y97163D01*
X165259Y97173D01*
X165166Y97186D01*
X165074Y97204D01*
X164982Y97225D01*
X164891Y97250D01*
X164801Y97279D01*
X164713Y97312D01*
X164626Y97348D01*
X164541Y97388D01*
X164457Y97431D01*
X164376Y97478D01*
X164296Y97528D01*
X164218Y97581D01*
X164143Y97638D01*
X164070Y97697D01*
X164000Y97760D01*
X163932Y97825D01*
X164067Y100909D02*
X164069Y100974D01*
X164075Y101038D01*
X164085Y101102D01*
X164098Y101166D01*
X164116Y101228D01*
X164137Y101289D01*
X164161Y101349D01*
X164190Y101407D01*
X164222Y101464D01*
X164257Y101518D01*
X164295Y101570D01*
X164337Y101620D01*
X164381Y101667D01*
X164428Y101711D01*
X164478Y101753D01*
X164530Y101791D01*
X164584Y101826D01*
X164641Y101858D01*
X164699Y101887D01*
X164759Y101911D01*
X164820Y101932D01*
X164882Y101950D01*
X164946Y101963D01*
X165010Y101973D01*
X165074Y101979D01*
X165139Y101981D01*
X165225Y101979D01*
X165311Y101974D01*
X165397Y101964D01*
X165482Y101951D01*
X165567Y101935D01*
X165651Y101915D01*
X165734Y101891D01*
X165816Y101864D01*
X165896Y101833D01*
X165976Y101799D01*
X166053Y101761D01*
X166129Y101720D01*
X166203Y101676D01*
X166275Y101629D01*
X166346Y101579D01*
X164602Y99971D02*
X164549Y100004D01*
X164498Y100041D01*
X164449Y100080D01*
X164402Y100122D01*
X164358Y100167D01*
X164317Y100214D01*
X164278Y100263D01*
X164242Y100315D01*
X164209Y100369D01*
X164180Y100424D01*
X164154Y100481D01*
X164131Y100540D01*
X164111Y100599D01*
X164095Y100660D01*
X164082Y100721D01*
X164073Y100784D01*
X164068Y100846D01*
X164066Y100909D01*
X166077Y99165D02*
X166130Y99132D01*
X166181Y99095D01*
X166230Y99056D01*
X166277Y99014D01*
X166321Y98969D01*
X166362Y98922D01*
X166401Y98873D01*
X166437Y98821D01*
X166470Y98767D01*
X166499Y98712D01*
X166525Y98655D01*
X166548Y98596D01*
X166568Y98537D01*
X166584Y98476D01*
X166597Y98415D01*
X166606Y98352D01*
X166611Y98290D01*
X166613Y98227D01*
X166077Y99166D02*
X164603Y99970D01*
X169163Y101981D02*
X170235Y97155D01*
X171308Y100372D01*
X172380Y97155D01*
X173453Y101981D01*
X176428Y101981D02*
X176428Y97155D01*
X175892Y97155D02*
X176965Y97155D01*
X176965Y101981D02*
X175892Y101981D01*
X180452Y101981D02*
X180452Y97155D01*
X179111Y101981D02*
X181792Y101981D01*
X185276Y97155D02*
X186348Y97155D01*
X185276Y97155D02*
X185211Y97157D01*
X185147Y97163D01*
X185083Y97173D01*
X185019Y97186D01*
X184957Y97204D01*
X184896Y97225D01*
X184836Y97249D01*
X184778Y97278D01*
X184721Y97310D01*
X184667Y97345D01*
X184615Y97383D01*
X184565Y97425D01*
X184518Y97469D01*
X184474Y97516D01*
X184432Y97566D01*
X184394Y97618D01*
X184359Y97672D01*
X184327Y97729D01*
X184298Y97787D01*
X184274Y97847D01*
X184253Y97908D01*
X184235Y97970D01*
X184222Y98034D01*
X184212Y98098D01*
X184206Y98162D01*
X184204Y98227D01*
X184203Y98227D02*
X184203Y100909D01*
X184204Y100909D02*
X184206Y100974D01*
X184212Y101038D01*
X184222Y101102D01*
X184235Y101166D01*
X184253Y101228D01*
X184274Y101289D01*
X184298Y101349D01*
X184327Y101407D01*
X184359Y101464D01*
X184394Y101518D01*
X184432Y101570D01*
X184474Y101620D01*
X184518Y101667D01*
X184565Y101711D01*
X184615Y101753D01*
X184667Y101791D01*
X184721Y101826D01*
X184778Y101858D01*
X184836Y101887D01*
X184896Y101911D01*
X184957Y101932D01*
X185019Y101950D01*
X185083Y101963D01*
X185147Y101973D01*
X185211Y101979D01*
X185276Y101981D01*
X186348Y101981D01*
X188987Y101981D02*
X188987Y97155D01*
X188987Y99836D02*
X191668Y99836D01*
X191668Y101981D02*
X191668Y97155D01*
D13*
X379730Y251460D02*
X381000Y280670D01*
X379730Y251460D02*
X377190Y248920D01*
X283210Y248920D01*
X280670Y251460D01*
X279400Y280670D01*
X282702Y255016D02*
X282704Y255116D01*
X282710Y255217D01*
X282720Y255316D01*
X282734Y255416D01*
X282751Y255515D01*
X282773Y255613D01*
X282799Y255710D01*
X282828Y255806D01*
X282861Y255900D01*
X282898Y255994D01*
X282938Y256086D01*
X282982Y256176D01*
X283030Y256264D01*
X283081Y256351D01*
X283135Y256435D01*
X283193Y256517D01*
X283254Y256597D01*
X283318Y256674D01*
X283385Y256749D01*
X283455Y256821D01*
X283528Y256890D01*
X283603Y256956D01*
X283681Y257020D01*
X283761Y257080D01*
X283844Y257137D01*
X283929Y257190D01*
X284016Y257240D01*
X284105Y257287D01*
X284195Y257330D01*
X284287Y257370D01*
X284381Y257406D01*
X284476Y257438D01*
X284572Y257466D01*
X284670Y257491D01*
X284768Y257511D01*
X284867Y257528D01*
X284967Y257541D01*
X285066Y257550D01*
X285167Y257555D01*
X285267Y257556D01*
X285367Y257553D01*
X285468Y257546D01*
X285567Y257535D01*
X285667Y257520D01*
X285765Y257502D01*
X285863Y257479D01*
X285960Y257452D01*
X286055Y257422D01*
X286150Y257388D01*
X286243Y257350D01*
X286334Y257309D01*
X286424Y257264D01*
X286512Y257216D01*
X286598Y257164D01*
X286682Y257109D01*
X286763Y257050D01*
X286842Y256988D01*
X286919Y256924D01*
X286993Y256856D01*
X287064Y256785D01*
X287133Y256712D01*
X287198Y256636D01*
X287261Y256557D01*
X287320Y256476D01*
X287376Y256393D01*
X287429Y256308D01*
X287478Y256220D01*
X287524Y256131D01*
X287566Y256040D01*
X287605Y255947D01*
X287640Y255853D01*
X287671Y255758D01*
X287699Y255661D01*
X287722Y255564D01*
X287742Y255465D01*
X287758Y255366D01*
X287770Y255267D01*
X287778Y255166D01*
X287782Y255066D01*
X287782Y254966D01*
X287778Y254866D01*
X287770Y254765D01*
X287758Y254666D01*
X287742Y254567D01*
X287722Y254468D01*
X287699Y254371D01*
X287671Y254274D01*
X287640Y254179D01*
X287605Y254085D01*
X287566Y253992D01*
X287524Y253901D01*
X287478Y253812D01*
X287429Y253724D01*
X287376Y253639D01*
X287320Y253556D01*
X287261Y253475D01*
X287198Y253396D01*
X287133Y253320D01*
X287064Y253247D01*
X286993Y253176D01*
X286919Y253108D01*
X286842Y253044D01*
X286763Y252982D01*
X286682Y252923D01*
X286598Y252868D01*
X286512Y252816D01*
X286424Y252768D01*
X286334Y252723D01*
X286243Y252682D01*
X286150Y252644D01*
X286055Y252610D01*
X285960Y252580D01*
X285863Y252553D01*
X285765Y252530D01*
X285667Y252512D01*
X285567Y252497D01*
X285468Y252486D01*
X285367Y252479D01*
X285267Y252476D01*
X285167Y252477D01*
X285066Y252482D01*
X284967Y252491D01*
X284867Y252504D01*
X284768Y252521D01*
X284670Y252541D01*
X284572Y252566D01*
X284476Y252594D01*
X284381Y252626D01*
X284287Y252662D01*
X284195Y252702D01*
X284105Y252745D01*
X284016Y252792D01*
X283929Y252842D01*
X283844Y252895D01*
X283761Y252952D01*
X283681Y253012D01*
X283603Y253076D01*
X283528Y253142D01*
X283455Y253211D01*
X283385Y253283D01*
X283318Y253358D01*
X283254Y253435D01*
X283193Y253515D01*
X283135Y253597D01*
X283081Y253681D01*
X283030Y253768D01*
X282982Y253856D01*
X282938Y253946D01*
X282898Y254038D01*
X282861Y254132D01*
X282828Y254226D01*
X282799Y254322D01*
X282773Y254419D01*
X282751Y254517D01*
X282734Y254616D01*
X282720Y254716D01*
X282710Y254815D01*
X282704Y254916D01*
X282702Y255016D01*
D14*
X330200Y288290D03*
D15*
X286385Y281940D03*
D16*
X317500Y281940D03*
X342900Y281940D03*
D15*
X374015Y281940D03*
D11*
X283210Y243713D02*
X283210Y232283D01*
X280035Y243713D02*
X286385Y243713D01*
X291167Y243713D02*
X291167Y232283D01*
X291167Y243713D02*
X294342Y243713D01*
X294453Y243711D01*
X294563Y243705D01*
X294674Y243696D01*
X294784Y243682D01*
X294893Y243665D01*
X295002Y243644D01*
X295110Y243619D01*
X295217Y243590D01*
X295323Y243558D01*
X295428Y243522D01*
X295531Y243482D01*
X295633Y243439D01*
X295734Y243392D01*
X295833Y243341D01*
X295930Y243288D01*
X296024Y243231D01*
X296117Y243170D01*
X296208Y243107D01*
X296297Y243040D01*
X296383Y242970D01*
X296466Y242897D01*
X296548Y242822D01*
X296626Y242744D01*
X296701Y242662D01*
X296774Y242579D01*
X296844Y242493D01*
X296911Y242404D01*
X296974Y242313D01*
X297035Y242220D01*
X297092Y242125D01*
X297145Y242029D01*
X297196Y241930D01*
X297243Y241829D01*
X297286Y241727D01*
X297326Y241624D01*
X297362Y241519D01*
X297394Y241413D01*
X297423Y241306D01*
X297448Y241198D01*
X297469Y241089D01*
X297486Y240980D01*
X297500Y240870D01*
X297509Y240759D01*
X297515Y240649D01*
X297517Y240538D01*
X297515Y240427D01*
X297509Y240317D01*
X297500Y240206D01*
X297486Y240096D01*
X297469Y239987D01*
X297448Y239878D01*
X297423Y239770D01*
X297394Y239663D01*
X297362Y239557D01*
X297326Y239452D01*
X297286Y239349D01*
X297243Y239247D01*
X297196Y239146D01*
X297145Y239047D01*
X297092Y238950D01*
X297035Y238856D01*
X296974Y238763D01*
X296911Y238672D01*
X296844Y238583D01*
X296774Y238497D01*
X296701Y238414D01*
X296626Y238332D01*
X296548Y238254D01*
X296466Y238179D01*
X296383Y238106D01*
X296297Y238036D01*
X296208Y237969D01*
X296117Y237906D01*
X296024Y237845D01*
X295930Y237788D01*
X295833Y237735D01*
X295734Y237684D01*
X295633Y237637D01*
X295531Y237594D01*
X295428Y237554D01*
X295323Y237518D01*
X295217Y237486D01*
X295110Y237457D01*
X295002Y237432D01*
X294893Y237411D01*
X294784Y237394D01*
X294674Y237380D01*
X294563Y237371D01*
X294453Y237365D01*
X294342Y237363D01*
X291167Y237363D01*
X294977Y237363D02*
X297517Y232283D01*
X301879Y232283D02*
X305689Y243713D01*
X309499Y232283D01*
X308546Y235141D02*
X302831Y235141D01*
X314325Y232283D02*
X314325Y243713D01*
X320675Y232283D01*
X320675Y243713D01*
X329565Y232283D02*
X329665Y232285D01*
X329764Y232291D01*
X329864Y232301D01*
X329962Y232314D01*
X330061Y232332D01*
X330158Y232353D01*
X330254Y232378D01*
X330350Y232407D01*
X330444Y232440D01*
X330537Y232476D01*
X330628Y232516D01*
X330718Y232560D01*
X330806Y232607D01*
X330892Y232657D01*
X330976Y232711D01*
X331058Y232768D01*
X331137Y232828D01*
X331215Y232892D01*
X331289Y232958D01*
X331361Y233027D01*
X331430Y233099D01*
X331496Y233173D01*
X331560Y233251D01*
X331620Y233330D01*
X331677Y233412D01*
X331731Y233496D01*
X331781Y233582D01*
X331828Y233670D01*
X331872Y233760D01*
X331912Y233851D01*
X331948Y233944D01*
X331981Y234038D01*
X332010Y234134D01*
X332035Y234230D01*
X332056Y234327D01*
X332074Y234426D01*
X332087Y234524D01*
X332097Y234624D01*
X332103Y234723D01*
X332105Y234823D01*
X329565Y232283D02*
X329424Y232285D01*
X329283Y232290D01*
X329142Y232300D01*
X329001Y232313D01*
X328861Y232329D01*
X328721Y232350D01*
X328582Y232374D01*
X328443Y232402D01*
X328306Y232433D01*
X328169Y232468D01*
X328033Y232506D01*
X327898Y232548D01*
X327765Y232594D01*
X327632Y232643D01*
X327501Y232696D01*
X327372Y232752D01*
X327243Y232811D01*
X327117Y232874D01*
X326992Y232940D01*
X326869Y233009D01*
X326748Y233082D01*
X326629Y233158D01*
X326511Y233237D01*
X326396Y233318D01*
X326284Y233403D01*
X326173Y233491D01*
X326065Y233582D01*
X325959Y233675D01*
X325856Y233772D01*
X325755Y233871D01*
X326072Y241173D02*
X326074Y241273D01*
X326080Y241372D01*
X326090Y241472D01*
X326103Y241570D01*
X326121Y241669D01*
X326142Y241766D01*
X326167Y241862D01*
X326196Y241958D01*
X326229Y242052D01*
X326265Y242145D01*
X326305Y242236D01*
X326349Y242326D01*
X326396Y242414D01*
X326446Y242500D01*
X326500Y242584D01*
X326557Y242666D01*
X326617Y242745D01*
X326681Y242823D01*
X326747Y242897D01*
X326816Y242969D01*
X326888Y243038D01*
X326962Y243104D01*
X327040Y243168D01*
X327119Y243228D01*
X327201Y243285D01*
X327285Y243339D01*
X327371Y243389D01*
X327459Y243436D01*
X327549Y243480D01*
X327640Y243520D01*
X327733Y243556D01*
X327827Y243589D01*
X327923Y243618D01*
X328019Y243643D01*
X328116Y243664D01*
X328215Y243682D01*
X328313Y243695D01*
X328413Y243705D01*
X328512Y243711D01*
X328612Y243713D01*
X328612Y243714D02*
X328745Y243712D01*
X328878Y243707D01*
X329011Y243697D01*
X329144Y243684D01*
X329276Y243667D01*
X329408Y243647D01*
X329539Y243623D01*
X329669Y243595D01*
X329799Y243564D01*
X329927Y243529D01*
X330055Y243490D01*
X330181Y243448D01*
X330306Y243402D01*
X330430Y243353D01*
X330553Y243301D01*
X330674Y243245D01*
X330793Y243185D01*
X330911Y243123D01*
X331026Y243057D01*
X331140Y242988D01*
X331252Y242915D01*
X331362Y242840D01*
X331470Y242761D01*
X327342Y238950D02*
X327258Y239002D01*
X327175Y239057D01*
X327095Y239116D01*
X327017Y239177D01*
X326942Y239241D01*
X326869Y239309D01*
X326798Y239379D01*
X326731Y239451D01*
X326666Y239526D01*
X326604Y239604D01*
X326545Y239684D01*
X326489Y239766D01*
X326437Y239850D01*
X326388Y239936D01*
X326342Y240024D01*
X326299Y240114D01*
X326260Y240205D01*
X326225Y240298D01*
X326193Y240392D01*
X326165Y240487D01*
X326140Y240583D01*
X326120Y240680D01*
X326102Y240778D01*
X326089Y240876D01*
X326080Y240975D01*
X326074Y241074D01*
X326072Y241173D01*
X330835Y237046D02*
X330919Y236994D01*
X331002Y236939D01*
X331082Y236880D01*
X331160Y236819D01*
X331235Y236755D01*
X331308Y236687D01*
X331379Y236617D01*
X331446Y236545D01*
X331511Y236470D01*
X331573Y236392D01*
X331632Y236312D01*
X331688Y236230D01*
X331740Y236146D01*
X331789Y236060D01*
X331835Y235972D01*
X331878Y235882D01*
X331917Y235791D01*
X331952Y235698D01*
X331984Y235604D01*
X332012Y235509D01*
X332037Y235413D01*
X332057Y235316D01*
X332075Y235218D01*
X332088Y235120D01*
X332097Y235021D01*
X332103Y234922D01*
X332105Y234823D01*
X330835Y237046D02*
X327342Y238951D01*
D12*
X406400Y215900D02*
X50800Y215900D01*
X50800Y165100D02*
X406400Y165100D01*
X406400Y215900D01*
X50800Y215900D02*
X50800Y200660D01*
X50800Y180340D02*
X50800Y165100D01*
X50800Y180340D02*
X51047Y180343D01*
X51295Y180352D01*
X51542Y180367D01*
X51788Y180388D01*
X52034Y180415D01*
X52279Y180448D01*
X52524Y180487D01*
X52767Y180532D01*
X53009Y180583D01*
X53250Y180640D01*
X53489Y180702D01*
X53727Y180771D01*
X53963Y180845D01*
X54197Y180925D01*
X54429Y181010D01*
X54659Y181102D01*
X54887Y181198D01*
X55112Y181301D01*
X55335Y181408D01*
X55555Y181522D01*
X55772Y181640D01*
X55987Y181764D01*
X56198Y181893D01*
X56406Y182027D01*
X56611Y182166D01*
X56812Y182310D01*
X57010Y182458D01*
X57204Y182612D01*
X57394Y182770D01*
X57580Y182933D01*
X57762Y183100D01*
X57940Y183272D01*
X58114Y183448D01*
X58284Y183628D01*
X58449Y183813D01*
X58609Y184001D01*
X58765Y184193D01*
X58917Y184389D01*
X59063Y184588D01*
X59205Y184791D01*
X59341Y184998D01*
X59473Y185207D01*
X59599Y185420D01*
X59720Y185636D01*
X59836Y185854D01*
X59946Y186076D01*
X60051Y186300D01*
X60151Y186526D01*
X60245Y186755D01*
X60333Y186986D01*
X60416Y187220D01*
X60493Y187455D01*
X60564Y187692D01*
X60630Y187930D01*
X60689Y188170D01*
X60743Y188412D01*
X60791Y188655D01*
X60833Y188898D01*
X60869Y189143D01*
X60899Y189389D01*
X60923Y189635D01*
X60941Y189882D01*
X60953Y190129D01*
X60959Y190376D01*
X60959Y190624D01*
X60953Y190871D01*
X60941Y191118D01*
X60923Y191365D01*
X60899Y191611D01*
X60869Y191857D01*
X60833Y192102D01*
X60791Y192345D01*
X60743Y192588D01*
X60689Y192830D01*
X60630Y193070D01*
X60564Y193308D01*
X60493Y193545D01*
X60416Y193780D01*
X60333Y194014D01*
X60245Y194245D01*
X60151Y194474D01*
X60051Y194700D01*
X59946Y194924D01*
X59836Y195146D01*
X59720Y195364D01*
X59599Y195580D01*
X59473Y195793D01*
X59341Y196002D01*
X59205Y196209D01*
X59063Y196412D01*
X58917Y196611D01*
X58765Y196807D01*
X58609Y196999D01*
X58449Y197187D01*
X58284Y197372D01*
X58114Y197552D01*
X57940Y197728D01*
X57762Y197900D01*
X57580Y198067D01*
X57394Y198230D01*
X57204Y198388D01*
X57010Y198542D01*
X56812Y198690D01*
X56611Y198834D01*
X56406Y198973D01*
X56198Y199107D01*
X55987Y199236D01*
X55772Y199360D01*
X55555Y199478D01*
X55335Y199592D01*
X55112Y199699D01*
X54887Y199802D01*
X54659Y199898D01*
X54429Y199990D01*
X54197Y200075D01*
X53963Y200155D01*
X53727Y200229D01*
X53489Y200298D01*
X53250Y200360D01*
X53009Y200417D01*
X52767Y200468D01*
X52524Y200513D01*
X52279Y200552D01*
X52034Y200585D01*
X51788Y200612D01*
X51542Y200633D01*
X51295Y200648D01*
X51047Y200657D01*
X50800Y200660D01*
D17*
X39370Y158750D02*
X39372Y158892D01*
X39378Y159035D01*
X39388Y159177D01*
X39402Y159319D01*
X39420Y159460D01*
X39442Y159601D01*
X39468Y159741D01*
X39497Y159880D01*
X39531Y160019D01*
X39569Y160156D01*
X39610Y160293D01*
X39655Y160428D01*
X39704Y160562D01*
X39757Y160694D01*
X39813Y160825D01*
X39873Y160954D01*
X39937Y161082D01*
X40004Y161207D01*
X40075Y161331D01*
X40149Y161453D01*
X40226Y161572D01*
X40307Y161690D01*
X40391Y161805D01*
X40478Y161917D01*
X40569Y162027D01*
X40662Y162135D01*
X40759Y162240D01*
X40858Y162342D01*
X40960Y162441D01*
X41065Y162538D01*
X41173Y162631D01*
X41283Y162722D01*
X41395Y162809D01*
X41510Y162893D01*
X41628Y162974D01*
X41747Y163051D01*
X41869Y163125D01*
X41993Y163196D01*
X42118Y163263D01*
X42246Y163327D01*
X42375Y163387D01*
X42506Y163443D01*
X42638Y163496D01*
X42772Y163545D01*
X42907Y163590D01*
X43044Y163631D01*
X43181Y163669D01*
X43320Y163703D01*
X43459Y163732D01*
X43599Y163758D01*
X43740Y163780D01*
X43881Y163798D01*
X44023Y163812D01*
X44165Y163822D01*
X44308Y163828D01*
X44450Y163830D01*
X44592Y163828D01*
X44735Y163822D01*
X44877Y163812D01*
X45019Y163798D01*
X45160Y163780D01*
X45301Y163758D01*
X45441Y163732D01*
X45580Y163703D01*
X45719Y163669D01*
X45856Y163631D01*
X45993Y163590D01*
X46128Y163545D01*
X46262Y163496D01*
X46394Y163443D01*
X46525Y163387D01*
X46654Y163327D01*
X46782Y163263D01*
X46907Y163196D01*
X47031Y163125D01*
X47153Y163051D01*
X47272Y162974D01*
X47390Y162893D01*
X47505Y162809D01*
X47617Y162722D01*
X47727Y162631D01*
X47835Y162538D01*
X47940Y162441D01*
X48042Y162342D01*
X48141Y162240D01*
X48238Y162135D01*
X48331Y162027D01*
X48422Y161917D01*
X48509Y161805D01*
X48593Y161690D01*
X48674Y161572D01*
X48751Y161453D01*
X48825Y161331D01*
X48896Y161207D01*
X48963Y161082D01*
X49027Y160954D01*
X49087Y160825D01*
X49143Y160694D01*
X49196Y160562D01*
X49245Y160428D01*
X49290Y160293D01*
X49331Y160156D01*
X49369Y160019D01*
X49403Y159880D01*
X49432Y159741D01*
X49458Y159601D01*
X49480Y159460D01*
X49498Y159319D01*
X49512Y159177D01*
X49522Y159035D01*
X49528Y158892D01*
X49530Y158750D01*
X49528Y158608D01*
X49522Y158465D01*
X49512Y158323D01*
X49498Y158181D01*
X49480Y158040D01*
X49458Y157899D01*
X49432Y157759D01*
X49403Y157620D01*
X49369Y157481D01*
X49331Y157344D01*
X49290Y157207D01*
X49245Y157072D01*
X49196Y156938D01*
X49143Y156806D01*
X49087Y156675D01*
X49027Y156546D01*
X48963Y156418D01*
X48896Y156293D01*
X48825Y156169D01*
X48751Y156047D01*
X48674Y155928D01*
X48593Y155810D01*
X48509Y155695D01*
X48422Y155583D01*
X48331Y155473D01*
X48238Y155365D01*
X48141Y155260D01*
X48042Y155158D01*
X47940Y155059D01*
X47835Y154962D01*
X47727Y154869D01*
X47617Y154778D01*
X47505Y154691D01*
X47390Y154607D01*
X47272Y154526D01*
X47153Y154449D01*
X47031Y154375D01*
X46907Y154304D01*
X46782Y154237D01*
X46654Y154173D01*
X46525Y154113D01*
X46394Y154057D01*
X46262Y154004D01*
X46128Y153955D01*
X45993Y153910D01*
X45856Y153869D01*
X45719Y153831D01*
X45580Y153797D01*
X45441Y153768D01*
X45301Y153742D01*
X45160Y153720D01*
X45019Y153702D01*
X44877Y153688D01*
X44735Y153678D01*
X44592Y153672D01*
X44450Y153670D01*
X44308Y153672D01*
X44165Y153678D01*
X44023Y153688D01*
X43881Y153702D01*
X43740Y153720D01*
X43599Y153742D01*
X43459Y153768D01*
X43320Y153797D01*
X43181Y153831D01*
X43044Y153869D01*
X42907Y153910D01*
X42772Y153955D01*
X42638Y154004D01*
X42506Y154057D01*
X42375Y154113D01*
X42246Y154173D01*
X42118Y154237D01*
X41993Y154304D01*
X41869Y154375D01*
X41747Y154449D01*
X41628Y154526D01*
X41510Y154607D01*
X41395Y154691D01*
X41283Y154778D01*
X41173Y154869D01*
X41065Y154962D01*
X40960Y155059D01*
X40858Y155158D01*
X40759Y155260D01*
X40662Y155365D01*
X40569Y155473D01*
X40478Y155583D01*
X40391Y155695D01*
X40307Y155810D01*
X40226Y155928D01*
X40149Y156047D01*
X40075Y156169D01*
X40004Y156293D01*
X39937Y156418D01*
X39873Y156546D01*
X39813Y156675D01*
X39757Y156806D01*
X39704Y156938D01*
X39655Y157072D01*
X39610Y157207D01*
X39569Y157344D01*
X39531Y157481D01*
X39497Y157620D01*
X39468Y157759D01*
X39442Y157899D01*
X39420Y158040D01*
X39402Y158181D01*
X39388Y158323D01*
X39378Y158465D01*
X39372Y158608D01*
X39370Y158750D01*
D11*
X38989Y186325D02*
X42474Y186325D01*
X42474Y186324D02*
X42545Y186326D01*
X42617Y186332D01*
X42687Y186341D01*
X42757Y186354D01*
X42827Y186371D01*
X42895Y186392D01*
X42962Y186416D01*
X43028Y186444D01*
X43092Y186475D01*
X43155Y186510D01*
X43215Y186548D01*
X43274Y186589D01*
X43330Y186633D01*
X43384Y186680D01*
X43435Y186729D01*
X43483Y186782D01*
X43529Y186837D01*
X43571Y186894D01*
X43611Y186954D01*
X43647Y187015D01*
X43680Y187079D01*
X43709Y187144D01*
X43735Y187210D01*
X43758Y187278D01*
X43777Y187347D01*
X43792Y187417D01*
X43803Y187487D01*
X43811Y187558D01*
X43815Y187629D01*
X43815Y187701D01*
X43811Y187772D01*
X43803Y187843D01*
X43792Y187913D01*
X43777Y187983D01*
X43758Y188052D01*
X43735Y188120D01*
X43709Y188186D01*
X43680Y188251D01*
X43647Y188315D01*
X43611Y188376D01*
X43571Y188436D01*
X43529Y188493D01*
X43483Y188548D01*
X43435Y188601D01*
X43384Y188650D01*
X43330Y188697D01*
X43274Y188741D01*
X43215Y188782D01*
X43155Y188820D01*
X43092Y188855D01*
X43028Y188886D01*
X42962Y188914D01*
X42895Y188938D01*
X42827Y188959D01*
X42757Y188976D01*
X42687Y188989D01*
X42617Y188998D01*
X42545Y189004D01*
X42474Y189006D01*
X38989Y189006D01*
X40061Y191994D02*
X38989Y193335D01*
X43815Y193335D01*
X43815Y194675D02*
X43815Y191994D01*
D12*
X50800Y69850D02*
X50800Y57150D01*
X44450Y50800D01*
X31750Y50800D02*
X25400Y57150D01*
X44450Y50800D02*
X50800Y44450D01*
X50800Y31750D01*
X44450Y25400D01*
X31750Y25400D02*
X25400Y31750D01*
X25400Y44450D01*
X31750Y50800D01*
X31750Y76200D02*
X44450Y76200D01*
X50800Y69850D01*
X31750Y76200D02*
X25400Y69850D01*
X25400Y57150D01*
X31750Y25400D02*
X44450Y25400D01*
D11*
X52705Y61765D02*
X56190Y61765D01*
X56190Y61764D02*
X56261Y61766D01*
X56333Y61772D01*
X56403Y61781D01*
X56473Y61794D01*
X56543Y61811D01*
X56611Y61832D01*
X56678Y61856D01*
X56744Y61884D01*
X56808Y61915D01*
X56871Y61950D01*
X56931Y61988D01*
X56990Y62029D01*
X57046Y62073D01*
X57100Y62120D01*
X57151Y62169D01*
X57199Y62222D01*
X57245Y62277D01*
X57287Y62334D01*
X57327Y62394D01*
X57363Y62455D01*
X57396Y62519D01*
X57425Y62584D01*
X57451Y62650D01*
X57474Y62718D01*
X57493Y62787D01*
X57508Y62857D01*
X57519Y62927D01*
X57527Y62998D01*
X57531Y63069D01*
X57531Y63141D01*
X57527Y63212D01*
X57519Y63283D01*
X57508Y63353D01*
X57493Y63423D01*
X57474Y63492D01*
X57451Y63560D01*
X57425Y63626D01*
X57396Y63691D01*
X57363Y63755D01*
X57327Y63816D01*
X57287Y63876D01*
X57245Y63933D01*
X57199Y63988D01*
X57151Y64041D01*
X57100Y64090D01*
X57046Y64137D01*
X56990Y64181D01*
X56931Y64222D01*
X56871Y64260D01*
X56808Y64295D01*
X56744Y64326D01*
X56678Y64354D01*
X56611Y64378D01*
X56543Y64399D01*
X56473Y64416D01*
X56403Y64429D01*
X56333Y64438D01*
X56261Y64444D01*
X56190Y64446D01*
X52705Y64446D01*
X57531Y68860D02*
X57529Y68925D01*
X57523Y68989D01*
X57513Y69053D01*
X57500Y69117D01*
X57482Y69179D01*
X57461Y69240D01*
X57437Y69300D01*
X57408Y69358D01*
X57376Y69415D01*
X57341Y69469D01*
X57303Y69521D01*
X57261Y69571D01*
X57217Y69618D01*
X57170Y69662D01*
X57120Y69704D01*
X57068Y69742D01*
X57014Y69777D01*
X56957Y69809D01*
X56899Y69838D01*
X56839Y69862D01*
X56778Y69883D01*
X56716Y69901D01*
X56652Y69914D01*
X56588Y69924D01*
X56524Y69930D01*
X56459Y69932D01*
X57531Y68860D02*
X57529Y68766D01*
X57523Y68672D01*
X57513Y68578D01*
X57500Y68485D01*
X57482Y68393D01*
X57461Y68301D01*
X57436Y68210D01*
X57407Y68120D01*
X57374Y68032D01*
X57338Y67945D01*
X57298Y67860D01*
X57255Y67776D01*
X57208Y67695D01*
X57158Y67615D01*
X57105Y67537D01*
X57048Y67462D01*
X56989Y67389D01*
X56926Y67319D01*
X56861Y67251D01*
X53777Y67386D02*
X53712Y67388D01*
X53648Y67394D01*
X53584Y67404D01*
X53520Y67417D01*
X53458Y67435D01*
X53397Y67456D01*
X53337Y67480D01*
X53279Y67509D01*
X53222Y67541D01*
X53168Y67576D01*
X53116Y67614D01*
X53066Y67656D01*
X53019Y67700D01*
X52975Y67747D01*
X52933Y67797D01*
X52895Y67849D01*
X52860Y67903D01*
X52828Y67960D01*
X52799Y68018D01*
X52775Y68078D01*
X52754Y68139D01*
X52736Y68201D01*
X52723Y68265D01*
X52713Y68329D01*
X52707Y68393D01*
X52705Y68458D01*
X52707Y68544D01*
X52712Y68630D01*
X52722Y68716D01*
X52735Y68801D01*
X52751Y68886D01*
X52771Y68970D01*
X52795Y69053D01*
X52822Y69135D01*
X52853Y69215D01*
X52887Y69295D01*
X52925Y69372D01*
X52966Y69448D01*
X53010Y69522D01*
X53057Y69595D01*
X53107Y69665D01*
X54715Y67921D02*
X54682Y67868D01*
X54645Y67817D01*
X54606Y67768D01*
X54564Y67721D01*
X54519Y67677D01*
X54472Y67636D01*
X54423Y67597D01*
X54371Y67561D01*
X54317Y67528D01*
X54262Y67499D01*
X54205Y67473D01*
X54146Y67450D01*
X54087Y67430D01*
X54026Y67414D01*
X53965Y67401D01*
X53902Y67392D01*
X53840Y67387D01*
X53777Y67385D01*
X55521Y69396D02*
X55554Y69449D01*
X55591Y69500D01*
X55630Y69549D01*
X55672Y69596D01*
X55717Y69640D01*
X55764Y69681D01*
X55813Y69720D01*
X55865Y69756D01*
X55919Y69789D01*
X55974Y69818D01*
X56031Y69844D01*
X56090Y69867D01*
X56149Y69887D01*
X56210Y69903D01*
X56271Y69916D01*
X56334Y69925D01*
X56396Y69930D01*
X56459Y69932D01*
X55520Y69396D02*
X54716Y67921D01*
X54850Y72884D02*
X54850Y74224D01*
X54849Y74224D02*
X54851Y74295D01*
X54857Y74367D01*
X54866Y74437D01*
X54879Y74507D01*
X54896Y74577D01*
X54917Y74645D01*
X54941Y74712D01*
X54969Y74778D01*
X55000Y74842D01*
X55035Y74905D01*
X55073Y74965D01*
X55114Y75024D01*
X55158Y75080D01*
X55205Y75134D01*
X55254Y75185D01*
X55307Y75233D01*
X55362Y75279D01*
X55419Y75321D01*
X55479Y75361D01*
X55540Y75397D01*
X55604Y75430D01*
X55669Y75459D01*
X55735Y75485D01*
X55803Y75508D01*
X55872Y75527D01*
X55942Y75542D01*
X56012Y75553D01*
X56083Y75561D01*
X56154Y75565D01*
X56226Y75565D01*
X56297Y75561D01*
X56368Y75553D01*
X56438Y75542D01*
X56508Y75527D01*
X56577Y75508D01*
X56645Y75485D01*
X56711Y75459D01*
X56776Y75430D01*
X56840Y75397D01*
X56901Y75361D01*
X56961Y75321D01*
X57018Y75279D01*
X57073Y75233D01*
X57126Y75185D01*
X57175Y75134D01*
X57222Y75080D01*
X57266Y75024D01*
X57307Y74965D01*
X57345Y74905D01*
X57380Y74842D01*
X57411Y74778D01*
X57439Y74712D01*
X57463Y74645D01*
X57484Y74577D01*
X57501Y74507D01*
X57514Y74437D01*
X57523Y74367D01*
X57529Y74295D01*
X57531Y74224D01*
X57531Y72884D01*
X52705Y72884D01*
X52705Y74224D01*
X52707Y74289D01*
X52713Y74353D01*
X52723Y74417D01*
X52736Y74481D01*
X52754Y74543D01*
X52775Y74604D01*
X52799Y74664D01*
X52828Y74722D01*
X52860Y74779D01*
X52895Y74833D01*
X52933Y74885D01*
X52975Y74935D01*
X53019Y74982D01*
X53066Y75026D01*
X53116Y75068D01*
X53168Y75106D01*
X53222Y75141D01*
X53279Y75173D01*
X53337Y75202D01*
X53397Y75226D01*
X53458Y75247D01*
X53520Y75265D01*
X53584Y75278D01*
X53648Y75288D01*
X53712Y75294D01*
X53777Y75296D01*
X53842Y75294D01*
X53906Y75288D01*
X53970Y75278D01*
X54034Y75265D01*
X54096Y75247D01*
X54157Y75226D01*
X54217Y75202D01*
X54275Y75173D01*
X54332Y75141D01*
X54386Y75106D01*
X54438Y75068D01*
X54488Y75026D01*
X54535Y74982D01*
X54579Y74935D01*
X54621Y74885D01*
X54659Y74833D01*
X54694Y74779D01*
X54726Y74722D01*
X54755Y74664D01*
X54779Y74604D01*
X54800Y74543D01*
X54818Y74481D01*
X54831Y74417D01*
X54841Y74353D01*
X54847Y74289D01*
X54849Y74224D01*
D12*
X412750Y101600D02*
X450850Y101600D01*
D18*
X451637Y100762D02*
X450265Y102591D01*
X450266Y102591D02*
X450857Y103050D01*
X451437Y103523D01*
X452005Y104010D01*
X452561Y104511D01*
X453104Y105025D01*
X453635Y105552D01*
X454153Y106092D01*
X454658Y106645D01*
X455148Y107210D01*
X455625Y107787D01*
X456088Y108375D01*
X456536Y108974D01*
X456969Y109585D01*
X457388Y110205D01*
X457790Y110836D01*
X458178Y111476D01*
X458550Y112125D01*
X458905Y112784D01*
X459245Y113451D01*
X459568Y114126D01*
X459874Y114809D01*
X460164Y115499D01*
X460437Y116195D01*
X460692Y116899D01*
X460930Y117608D01*
X461151Y118323D01*
X461355Y119043D01*
X461540Y119768D01*
X461708Y120497D01*
X461858Y121231D01*
X461990Y121967D01*
X462104Y122707D01*
X462200Y123449D01*
X462278Y124193D01*
X462338Y124939D01*
X462379Y125686D01*
X462402Y126434D01*
X462406Y127183D01*
X462393Y127931D01*
X462361Y128679D01*
X462311Y129425D01*
X462242Y130170D01*
X462156Y130914D01*
X462051Y131655D01*
X461928Y132393D01*
X461787Y133128D01*
X461629Y133859D01*
X461452Y134586D01*
X461258Y135309D01*
X461046Y136027D01*
X460816Y136739D01*
X460569Y137445D01*
X460305Y138146D01*
X460024Y138839D01*
X459727Y139526D01*
X459412Y140205D01*
X459081Y140876D01*
X458734Y141539D01*
X458370Y142193D01*
X457991Y142838D01*
X457596Y143473D01*
X457185Y144099D01*
X456760Y144715D01*
X456319Y145320D01*
X455864Y145914D01*
X455394Y146496D01*
X454910Y147067D01*
X454413Y147626D01*
X453902Y148173D01*
X453378Y148707D01*
X452841Y149228D01*
X452291Y149736D01*
X451729Y150230D01*
X451155Y150710D01*
X450570Y151176D01*
X449973Y151628D01*
X449365Y152065D01*
X448747Y152487D01*
X448119Y152894D01*
X447481Y153285D01*
X446834Y153660D01*
X446178Y154020D01*
X445513Y154363D01*
X444840Y154690D01*
X444159Y155001D01*
X443471Y155295D01*
X442775Y155571D01*
X442074Y155831D01*
X441366Y156074D01*
X440652Y156299D01*
X439933Y156507D01*
X439209Y156697D01*
X438481Y156869D01*
X437749Y157023D01*
X437013Y157160D01*
X436274Y157278D01*
X435532Y157379D01*
X434789Y157461D01*
X434043Y157525D01*
X433296Y157570D01*
X432548Y157598D01*
X431800Y157607D01*
X431052Y157598D01*
X430304Y157570D01*
X429557Y157525D01*
X428811Y157461D01*
X428068Y157379D01*
X427326Y157278D01*
X426587Y157160D01*
X425851Y157023D01*
X425119Y156869D01*
X424391Y156697D01*
X423667Y156507D01*
X422948Y156299D01*
X422234Y156074D01*
X421526Y155831D01*
X420825Y155571D01*
X420129Y155295D01*
X419441Y155001D01*
X418760Y154690D01*
X418087Y154363D01*
X417422Y154020D01*
X416766Y153660D01*
X416119Y153285D01*
X415481Y152894D01*
X414853Y152487D01*
X414235Y152065D01*
X413627Y151628D01*
X413030Y151176D01*
X412445Y150710D01*
X411871Y150230D01*
X411309Y149736D01*
X410759Y149228D01*
X410222Y148707D01*
X409698Y148173D01*
X409187Y147626D01*
X408690Y147067D01*
X408206Y146496D01*
X407736Y145914D01*
X407281Y145320D01*
X406840Y144715D01*
X406415Y144099D01*
X406004Y143473D01*
X405609Y142838D01*
X405230Y142193D01*
X404866Y141539D01*
X404519Y140876D01*
X404188Y140205D01*
X403873Y139526D01*
X403576Y138839D01*
X403295Y138146D01*
X403031Y137445D01*
X402784Y136739D01*
X402554Y136027D01*
X402342Y135309D01*
X402148Y134586D01*
X401971Y133859D01*
X401813Y133128D01*
X401672Y132393D01*
X401549Y131655D01*
X401444Y130914D01*
X401358Y130170D01*
X401289Y129425D01*
X401239Y128679D01*
X401207Y127931D01*
X401194Y127183D01*
X401198Y126434D01*
X401221Y125686D01*
X401262Y124939D01*
X401322Y124193D01*
X401400Y123449D01*
X401496Y122707D01*
X401610Y121967D01*
X401742Y121231D01*
X401892Y120497D01*
X402060Y119768D01*
X402245Y119043D01*
X402449Y118323D01*
X402670Y117608D01*
X402908Y116899D01*
X403163Y116195D01*
X403436Y115499D01*
X403726Y114809D01*
X404032Y114126D01*
X404355Y113451D01*
X404695Y112784D01*
X405050Y112125D01*
X405422Y111476D01*
X405810Y110836D01*
X406212Y110205D01*
X406631Y109585D01*
X407064Y108974D01*
X407512Y108375D01*
X407975Y107787D01*
X408452Y107210D01*
X408942Y106645D01*
X409447Y106092D01*
X409965Y105552D01*
X410496Y105025D01*
X411039Y104511D01*
X411595Y104010D01*
X412163Y103523D01*
X412743Y103050D01*
X413334Y102591D01*
X411963Y100762D01*
X411327Y101255D01*
X410704Y101763D01*
X410093Y102287D01*
X409495Y102825D01*
X408911Y103377D01*
X408340Y103944D01*
X407783Y104524D01*
X407241Y105118D01*
X406713Y105725D01*
X406201Y106345D01*
X405703Y106977D01*
X405221Y107621D01*
X404756Y108277D01*
X404306Y108944D01*
X403873Y109622D01*
X403456Y110310D01*
X403056Y111008D01*
X402674Y111715D01*
X402309Y112432D01*
X401962Y113157D01*
X401632Y113891D01*
X401321Y114633D01*
X401027Y115382D01*
X400752Y116137D01*
X400496Y116900D01*
X400258Y117668D01*
X400040Y118442D01*
X399840Y119221D01*
X399659Y120005D01*
X399498Y120793D01*
X399356Y121585D01*
X399233Y122380D01*
X399130Y123177D01*
X399046Y123977D01*
X398982Y124779D01*
X398938Y125582D01*
X398913Y126386D01*
X398908Y127190D01*
X398922Y127995D01*
X398956Y128798D01*
X399010Y129601D01*
X399083Y130402D01*
X399176Y131201D01*
X399289Y131997D01*
X399421Y132790D01*
X399572Y133580D01*
X399742Y134366D01*
X399932Y135148D01*
X400141Y135925D01*
X400369Y136696D01*
X400615Y137462D01*
X400880Y138221D01*
X401164Y138974D01*
X401466Y139719D01*
X401786Y140457D01*
X402124Y141187D01*
X402480Y141909D01*
X402853Y142621D01*
X403244Y143324D01*
X403651Y144017D01*
X404076Y144701D01*
X404517Y145373D01*
X404974Y146035D01*
X405448Y146685D01*
X405937Y147323D01*
X406441Y147950D01*
X406961Y148564D01*
X407496Y149164D01*
X408045Y149752D01*
X408609Y150326D01*
X409186Y150886D01*
X409777Y151432D01*
X410381Y151963D01*
X410997Y152479D01*
X411627Y152980D01*
X412268Y153466D01*
X412921Y153936D01*
X413585Y154389D01*
X414260Y154826D01*
X414946Y155247D01*
X415641Y155651D01*
X416347Y156037D01*
X417061Y156406D01*
X417785Y156758D01*
X418517Y157092D01*
X419256Y157407D01*
X420004Y157705D01*
X420758Y157984D01*
X421519Y158245D01*
X422286Y158487D01*
X423059Y158710D01*
X423837Y158914D01*
X424619Y159100D01*
X425406Y159266D01*
X426197Y159412D01*
X426991Y159540D01*
X427788Y159647D01*
X428588Y159736D01*
X429389Y159805D01*
X430192Y159854D01*
X430996Y159883D01*
X431800Y159893D01*
X432604Y159883D01*
X433408Y159854D01*
X434211Y159805D01*
X435012Y159736D01*
X435812Y159647D01*
X436609Y159540D01*
X437403Y159412D01*
X438194Y159266D01*
X438981Y159100D01*
X439763Y158914D01*
X440541Y158710D01*
X441314Y158487D01*
X442081Y158245D01*
X442842Y157984D01*
X443596Y157705D01*
X444344Y157407D01*
X445083Y157092D01*
X445815Y156758D01*
X446539Y156406D01*
X447253Y156037D01*
X447959Y155651D01*
X448654Y155247D01*
X449340Y154826D01*
X450015Y154389D01*
X450679Y153936D01*
X451332Y153466D01*
X451973Y152980D01*
X452603Y152479D01*
X453219Y151963D01*
X453823Y151432D01*
X454414Y150886D01*
X454991Y150326D01*
X455555Y149752D01*
X456104Y149164D01*
X456639Y148564D01*
X457159Y147950D01*
X457663Y147323D01*
X458152Y146685D01*
X458626Y146035D01*
X459083Y145373D01*
X459524Y144701D01*
X459949Y144017D01*
X460356Y143324D01*
X460747Y142621D01*
X461120Y141909D01*
X461476Y141187D01*
X461814Y140457D01*
X462134Y139719D01*
X462436Y138974D01*
X462720Y138221D01*
X462985Y137462D01*
X463231Y136696D01*
X463459Y135925D01*
X463668Y135148D01*
X463858Y134366D01*
X464028Y133580D01*
X464179Y132790D01*
X464311Y131997D01*
X464424Y131201D01*
X464517Y130402D01*
X464590Y129601D01*
X464644Y128798D01*
X464678Y127995D01*
X464692Y127190D01*
X464687Y126386D01*
X464662Y125582D01*
X464618Y124779D01*
X464554Y123977D01*
X464470Y123177D01*
X464367Y122380D01*
X464244Y121585D01*
X464102Y120793D01*
X463941Y120005D01*
X463760Y119221D01*
X463560Y118442D01*
X463342Y117668D01*
X463104Y116900D01*
X462848Y116137D01*
X462573Y115382D01*
X462279Y114633D01*
X461968Y113891D01*
X461638Y113157D01*
X461291Y112432D01*
X460926Y111715D01*
X460544Y111008D01*
X460144Y110310D01*
X459727Y109622D01*
X459294Y108944D01*
X458844Y108277D01*
X458379Y107621D01*
X457897Y106977D01*
X457399Y106345D01*
X456887Y105725D01*
X456359Y105118D01*
X455817Y104524D01*
X455260Y103944D01*
X454689Y103377D01*
X454105Y102825D01*
X453507Y102287D01*
X452896Y101763D01*
X452273Y101255D01*
X451637Y100762D01*
X451493Y100954D01*
X452124Y101443D01*
X452743Y101948D01*
X453349Y102467D01*
X453943Y103002D01*
X454523Y103550D01*
X455089Y104113D01*
X455642Y104689D01*
X456180Y105279D01*
X456704Y105881D01*
X457213Y106497D01*
X457707Y107124D01*
X458185Y107763D01*
X458648Y108414D01*
X459094Y109076D01*
X459524Y109749D01*
X459938Y110432D01*
X460334Y111125D01*
X460714Y111827D01*
X461076Y112539D01*
X461421Y113259D01*
X461748Y113987D01*
X462057Y114724D01*
X462348Y115467D01*
X462621Y116217D01*
X462876Y116974D01*
X463112Y117737D01*
X463329Y118505D01*
X463527Y119279D01*
X463706Y120057D01*
X463867Y120839D01*
X464008Y121625D01*
X464129Y122414D01*
X464232Y123206D01*
X464315Y124000D01*
X464379Y124796D01*
X464423Y125593D01*
X464447Y126391D01*
X464452Y127190D01*
X464438Y127988D01*
X464404Y128786D01*
X464351Y129582D01*
X464278Y130377D01*
X464186Y131170D01*
X464074Y131961D01*
X463943Y132749D01*
X463793Y133533D01*
X463624Y134313D01*
X463435Y135089D01*
X463228Y135860D01*
X463002Y136626D01*
X462757Y137386D01*
X462494Y138140D01*
X462212Y138887D01*
X461913Y139627D01*
X461595Y140360D01*
X461259Y141084D01*
X460906Y141800D01*
X460536Y142507D01*
X460148Y143205D01*
X459743Y143894D01*
X459322Y144572D01*
X458884Y145239D01*
X458430Y145896D01*
X457960Y146542D01*
X457474Y147175D01*
X456973Y147797D01*
X456457Y148406D01*
X455927Y149003D01*
X455381Y149586D01*
X454822Y150156D01*
X454249Y150712D01*
X453662Y151254D01*
X453063Y151781D01*
X452451Y152294D01*
X451826Y152791D01*
X451189Y153273D01*
X450541Y153739D01*
X449882Y154189D01*
X449212Y154623D01*
X448531Y155041D01*
X447840Y155442D01*
X447140Y155825D01*
X446431Y156192D01*
X445713Y156541D01*
X444986Y156872D01*
X444252Y157186D01*
X443510Y157481D01*
X442761Y157758D01*
X442006Y158017D01*
X441245Y158257D01*
X440478Y158479D01*
X439705Y158682D01*
X438928Y158865D01*
X438147Y159030D01*
X437362Y159176D01*
X436574Y159302D01*
X435782Y159409D01*
X434989Y159497D01*
X434193Y159565D01*
X433396Y159614D01*
X432598Y159643D01*
X431800Y159653D01*
X431002Y159643D01*
X430204Y159614D01*
X429407Y159565D01*
X428611Y159497D01*
X427818Y159409D01*
X427026Y159302D01*
X426238Y159176D01*
X425453Y159030D01*
X424672Y158865D01*
X423895Y158682D01*
X423122Y158479D01*
X422355Y158257D01*
X421594Y158017D01*
X420839Y157758D01*
X420090Y157481D01*
X419348Y157186D01*
X418614Y156872D01*
X417887Y156541D01*
X417169Y156192D01*
X416460Y155825D01*
X415760Y155442D01*
X415069Y155041D01*
X414388Y154623D01*
X413718Y154189D01*
X413059Y153739D01*
X412411Y153273D01*
X411774Y152791D01*
X411149Y152294D01*
X410537Y151781D01*
X409938Y151254D01*
X409351Y150712D01*
X408778Y150156D01*
X408219Y149586D01*
X407673Y149003D01*
X407143Y148406D01*
X406627Y147797D01*
X406126Y147175D01*
X405640Y146542D01*
X405170Y145896D01*
X404716Y145239D01*
X404278Y144572D01*
X403857Y143894D01*
X403452Y143205D01*
X403064Y142507D01*
X402694Y141800D01*
X402341Y141084D01*
X402005Y140360D01*
X401687Y139627D01*
X401388Y138887D01*
X401106Y138140D01*
X400843Y137386D01*
X400598Y136626D01*
X400372Y135860D01*
X400165Y135089D01*
X399976Y134313D01*
X399807Y133533D01*
X399657Y132749D01*
X399526Y131961D01*
X399414Y131170D01*
X399322Y130377D01*
X399249Y129582D01*
X399196Y128786D01*
X399162Y127988D01*
X399148Y127190D01*
X399153Y126391D01*
X399177Y125593D01*
X399221Y124796D01*
X399285Y124000D01*
X399368Y123206D01*
X399471Y122414D01*
X399592Y121625D01*
X399733Y120839D01*
X399894Y120057D01*
X400073Y119279D01*
X400271Y118505D01*
X400488Y117737D01*
X400724Y116974D01*
X400979Y116217D01*
X401252Y115467D01*
X401543Y114724D01*
X401852Y113987D01*
X402179Y113259D01*
X402524Y112539D01*
X402886Y111827D01*
X403266Y111125D01*
X403662Y110432D01*
X404076Y109749D01*
X404506Y109076D01*
X404952Y108414D01*
X405415Y107763D01*
X405893Y107124D01*
X406387Y106497D01*
X406896Y105881D01*
X407420Y105279D01*
X407958Y104689D01*
X408511Y104113D01*
X409077Y103550D01*
X409657Y103002D01*
X410251Y102467D01*
X410857Y101948D01*
X411476Y101443D01*
X412107Y100954D01*
X412251Y101146D01*
X411624Y101632D01*
X411010Y102133D01*
X410408Y102648D01*
X409819Y103179D01*
X409244Y103723D01*
X408681Y104282D01*
X408133Y104854D01*
X407598Y105439D01*
X407078Y106037D01*
X406573Y106648D01*
X406083Y107271D01*
X405608Y107905D01*
X405149Y108552D01*
X404706Y109209D01*
X404279Y109876D01*
X403869Y110555D01*
X403475Y111242D01*
X403098Y111940D01*
X402739Y112646D01*
X402396Y113361D01*
X402072Y114084D01*
X401765Y114814D01*
X401476Y115552D01*
X401205Y116297D01*
X400952Y117049D01*
X400718Y117806D01*
X400503Y118568D01*
X400306Y119336D01*
X400128Y120109D01*
X399969Y120885D01*
X399829Y121665D01*
X399708Y122448D01*
X399606Y123234D01*
X399524Y124023D01*
X399461Y124813D01*
X399417Y125604D01*
X399393Y126396D01*
X399388Y127189D01*
X399402Y127981D01*
X399436Y128773D01*
X399489Y129564D01*
X399561Y130353D01*
X399653Y131140D01*
X399763Y131925D01*
X399893Y132707D01*
X400042Y133485D01*
X400211Y134260D01*
X400397Y135030D01*
X400603Y135796D01*
X400828Y136556D01*
X401070Y137310D01*
X401332Y138058D01*
X401611Y138800D01*
X401909Y139535D01*
X402224Y140262D01*
X402557Y140981D01*
X402908Y141692D01*
X403276Y142394D01*
X403661Y143087D01*
X404062Y143770D01*
X404481Y144443D01*
X404915Y145106D01*
X405366Y145758D01*
X405833Y146398D01*
X406315Y147027D01*
X406812Y147645D01*
X407324Y148249D01*
X407851Y148841D01*
X408392Y149420D01*
X408947Y149986D01*
X409516Y150538D01*
X410098Y151076D01*
X410694Y151599D01*
X411301Y152108D01*
X411921Y152602D01*
X412553Y153080D01*
X413197Y153543D01*
X413851Y153990D01*
X414516Y154420D01*
X415192Y154835D01*
X415878Y155233D01*
X416573Y155613D01*
X417277Y155977D01*
X417990Y156324D01*
X418711Y156653D01*
X419440Y156964D01*
X420176Y157257D01*
X420919Y157532D01*
X421669Y157789D01*
X422425Y158028D01*
X423186Y158248D01*
X423953Y158449D01*
X424724Y158631D01*
X425500Y158795D01*
X426279Y158939D01*
X427062Y159065D01*
X427847Y159171D01*
X428635Y159258D01*
X429424Y159326D01*
X430215Y159374D01*
X431007Y159403D01*
X431800Y159413D01*
X432593Y159403D01*
X433385Y159374D01*
X434176Y159326D01*
X434965Y159258D01*
X435753Y159171D01*
X436538Y159065D01*
X437321Y158939D01*
X438100Y158795D01*
X438876Y158631D01*
X439647Y158449D01*
X440414Y158248D01*
X441175Y158028D01*
X441931Y157789D01*
X442681Y157532D01*
X443424Y157257D01*
X444160Y156964D01*
X444889Y156653D01*
X445610Y156324D01*
X446323Y155977D01*
X447027Y155613D01*
X447722Y155233D01*
X448408Y154835D01*
X449084Y154420D01*
X449749Y153990D01*
X450403Y153543D01*
X451047Y153080D01*
X451679Y152602D01*
X452299Y152108D01*
X452906Y151599D01*
X453502Y151076D01*
X454084Y150538D01*
X454653Y149986D01*
X455208Y149420D01*
X455749Y148841D01*
X456276Y148249D01*
X456788Y147645D01*
X457285Y147027D01*
X457767Y146398D01*
X458234Y145758D01*
X458685Y145106D01*
X459119Y144443D01*
X459538Y143770D01*
X459939Y143087D01*
X460324Y142394D01*
X460692Y141692D01*
X461043Y140981D01*
X461376Y140262D01*
X461691Y139535D01*
X461989Y138800D01*
X462268Y138058D01*
X462530Y137310D01*
X462772Y136556D01*
X462997Y135796D01*
X463203Y135030D01*
X463389Y134260D01*
X463558Y133485D01*
X463707Y132707D01*
X463837Y131925D01*
X463947Y131140D01*
X464039Y130353D01*
X464111Y129564D01*
X464164Y128773D01*
X464198Y127981D01*
X464212Y127189D01*
X464207Y126396D01*
X464183Y125604D01*
X464139Y124813D01*
X464076Y124023D01*
X463994Y123234D01*
X463892Y122448D01*
X463771Y121665D01*
X463631Y120885D01*
X463472Y120109D01*
X463294Y119336D01*
X463097Y118568D01*
X462882Y117806D01*
X462648Y117049D01*
X462395Y116297D01*
X462124Y115552D01*
X461835Y114814D01*
X461528Y114084D01*
X461204Y113361D01*
X460861Y112646D01*
X460502Y111940D01*
X460125Y111242D01*
X459731Y110555D01*
X459321Y109876D01*
X458894Y109209D01*
X458451Y108552D01*
X457992Y107905D01*
X457517Y107271D01*
X457027Y106648D01*
X456522Y106037D01*
X456002Y105439D01*
X455467Y104854D01*
X454919Y104282D01*
X454356Y103723D01*
X453781Y103179D01*
X453192Y102648D01*
X452590Y102133D01*
X451976Y101632D01*
X451349Y101146D01*
X451205Y101338D01*
X451827Y101820D01*
X452437Y102317D01*
X453034Y102829D01*
X453618Y103356D01*
X454190Y103896D01*
X454748Y104451D01*
X455293Y105018D01*
X455823Y105599D01*
X456339Y106193D01*
X456841Y106799D01*
X457327Y107418D01*
X457798Y108048D01*
X458254Y108689D01*
X458694Y109341D01*
X459117Y110004D01*
X459525Y110677D01*
X459916Y111360D01*
X460290Y112052D01*
X460646Y112753D01*
X460986Y113462D01*
X461308Y114180D01*
X461613Y114905D01*
X461900Y115638D01*
X462169Y116377D01*
X462419Y117123D01*
X462652Y117875D01*
X462866Y118632D01*
X463061Y119394D01*
X463238Y120160D01*
X463395Y120931D01*
X463534Y121705D01*
X463654Y122483D01*
X463755Y123263D01*
X463837Y124045D01*
X463900Y124830D01*
X463943Y125615D01*
X463967Y126401D01*
X463972Y127188D01*
X463958Y127975D01*
X463925Y128761D01*
X463872Y129545D01*
X463800Y130329D01*
X463709Y131110D01*
X463599Y131889D01*
X463470Y132665D01*
X463322Y133438D01*
X463155Y134207D01*
X462970Y134971D01*
X462766Y135731D01*
X462543Y136485D01*
X462302Y137234D01*
X462043Y137977D01*
X461765Y138713D01*
X461470Y139442D01*
X461157Y140164D01*
X460826Y140878D01*
X460478Y141583D01*
X460113Y142280D01*
X459731Y142968D01*
X459332Y143646D01*
X458917Y144314D01*
X458485Y144972D01*
X458038Y145619D01*
X457575Y146255D01*
X457096Y146879D01*
X456603Y147492D01*
X456094Y148092D01*
X455571Y148680D01*
X455034Y149255D01*
X454483Y149816D01*
X453919Y150364D01*
X453341Y150898D01*
X452750Y151417D01*
X452147Y151922D01*
X451531Y152412D01*
X450904Y152887D01*
X450265Y153346D01*
X449616Y153790D01*
X448955Y154218D01*
X448285Y154629D01*
X447604Y155024D01*
X446914Y155402D01*
X446215Y155763D01*
X445508Y156107D01*
X444792Y156433D01*
X444069Y156742D01*
X443338Y157033D01*
X442600Y157306D01*
X441856Y157561D01*
X441106Y157798D01*
X440350Y158016D01*
X439589Y158216D01*
X438823Y158397D01*
X438054Y158559D01*
X437280Y158703D01*
X436503Y158827D01*
X435724Y158933D01*
X434942Y159019D01*
X434158Y159086D01*
X433373Y159135D01*
X432587Y159163D01*
X431800Y159173D01*
X431013Y159163D01*
X430227Y159135D01*
X429442Y159086D01*
X428658Y159019D01*
X427876Y158933D01*
X427097Y158827D01*
X426320Y158703D01*
X425546Y158559D01*
X424777Y158397D01*
X424011Y158216D01*
X423250Y158016D01*
X422494Y157798D01*
X421744Y157561D01*
X421000Y157306D01*
X420262Y157033D01*
X419531Y156742D01*
X418808Y156433D01*
X418092Y156107D01*
X417385Y155763D01*
X416686Y155402D01*
X415996Y155024D01*
X415315Y154629D01*
X414645Y154218D01*
X413984Y153790D01*
X413335Y153346D01*
X412696Y152887D01*
X412069Y152412D01*
X411453Y151922D01*
X410850Y151417D01*
X410259Y150898D01*
X409681Y150364D01*
X409117Y149816D01*
X408566Y149255D01*
X408029Y148680D01*
X407506Y148092D01*
X406997Y147492D01*
X406504Y146879D01*
X406025Y146255D01*
X405562Y145619D01*
X405115Y144972D01*
X404683Y144314D01*
X404268Y143646D01*
X403869Y142968D01*
X403487Y142280D01*
X403122Y141583D01*
X402774Y140878D01*
X402443Y140164D01*
X402130Y139442D01*
X401835Y138713D01*
X401557Y137977D01*
X401298Y137234D01*
X401057Y136485D01*
X400834Y135731D01*
X400630Y134971D01*
X400445Y134207D01*
X400278Y133438D01*
X400130Y132665D01*
X400001Y131889D01*
X399891Y131110D01*
X399800Y130329D01*
X399728Y129545D01*
X399675Y128761D01*
X399642Y127975D01*
X399628Y127188D01*
X399633Y126401D01*
X399657Y125615D01*
X399700Y124830D01*
X399763Y124045D01*
X399845Y123263D01*
X399946Y122483D01*
X400066Y121705D01*
X400205Y120931D01*
X400362Y120160D01*
X400539Y119394D01*
X400734Y118632D01*
X400948Y117875D01*
X401181Y117123D01*
X401431Y116377D01*
X401700Y115638D01*
X401987Y114905D01*
X402292Y114180D01*
X402614Y113462D01*
X402954Y112753D01*
X403310Y112052D01*
X403684Y111360D01*
X404075Y110677D01*
X404483Y110004D01*
X404906Y109341D01*
X405346Y108689D01*
X405802Y108048D01*
X406273Y107418D01*
X406759Y106799D01*
X407261Y106193D01*
X407777Y105599D01*
X408307Y105018D01*
X408852Y104451D01*
X409410Y103896D01*
X409982Y103356D01*
X410566Y102829D01*
X411163Y102317D01*
X411773Y101820D01*
X412395Y101338D01*
X412539Y101530D01*
X411922Y102009D01*
X411317Y102502D01*
X410724Y103010D01*
X410144Y103533D01*
X409576Y104069D01*
X409022Y104619D01*
X408482Y105183D01*
X407955Y105760D01*
X407443Y106349D01*
X406946Y106951D01*
X406463Y107564D01*
X405995Y108190D01*
X405543Y108826D01*
X405107Y109474D01*
X404686Y110131D01*
X404282Y110799D01*
X403894Y111477D01*
X403523Y112164D01*
X403168Y112860D01*
X402831Y113564D01*
X402511Y114276D01*
X402209Y114996D01*
X401924Y115723D01*
X401658Y116457D01*
X401409Y117197D01*
X401178Y117943D01*
X400966Y118695D01*
X400772Y119451D01*
X400597Y120212D01*
X400440Y120977D01*
X400302Y121745D01*
X400183Y122517D01*
X400083Y123291D01*
X400002Y124068D01*
X399940Y124846D01*
X399897Y125626D01*
X399873Y126406D01*
X399868Y127187D01*
X399882Y127968D01*
X399915Y128748D01*
X399967Y129527D01*
X400038Y130305D01*
X400129Y131080D01*
X400238Y131853D01*
X400366Y132624D01*
X400513Y133390D01*
X400679Y134153D01*
X400863Y134912D01*
X401065Y135666D01*
X401287Y136415D01*
X401526Y137158D01*
X401783Y137895D01*
X402059Y138626D01*
X402352Y139350D01*
X402663Y140066D01*
X402991Y140775D01*
X403336Y141475D01*
X403699Y142166D01*
X404078Y142849D01*
X404474Y143522D01*
X404886Y144185D01*
X405314Y144838D01*
X405758Y145480D01*
X406218Y146112D01*
X406692Y146731D01*
X407182Y147339D01*
X407687Y147935D01*
X408206Y148518D01*
X408739Y149089D01*
X409286Y149646D01*
X409847Y150190D01*
X410420Y150720D01*
X411007Y151235D01*
X411605Y151736D01*
X412216Y152223D01*
X412839Y152694D01*
X413473Y153150D01*
X414117Y153590D01*
X414773Y154015D01*
X415438Y154423D01*
X416114Y154815D01*
X416799Y155190D01*
X417492Y155548D01*
X418194Y155890D01*
X418905Y156214D01*
X419623Y156520D01*
X420348Y156809D01*
X421081Y157080D01*
X421819Y157333D01*
X422564Y157568D01*
X423314Y157785D01*
X424069Y157983D01*
X424829Y158163D01*
X425593Y158324D01*
X426361Y158466D01*
X427132Y158590D01*
X427906Y158695D01*
X428682Y158780D01*
X429460Y158847D01*
X430239Y158895D01*
X431019Y158923D01*
X431800Y158933D01*
X432581Y158923D01*
X433361Y158895D01*
X434140Y158847D01*
X434918Y158780D01*
X435694Y158695D01*
X436468Y158590D01*
X437239Y158466D01*
X438007Y158324D01*
X438771Y158163D01*
X439531Y157983D01*
X440286Y157785D01*
X441036Y157568D01*
X441781Y157333D01*
X442519Y157080D01*
X443252Y156809D01*
X443977Y156520D01*
X444695Y156214D01*
X445406Y155890D01*
X446108Y155548D01*
X446801Y155190D01*
X447486Y154815D01*
X448162Y154423D01*
X448827Y154015D01*
X449483Y153590D01*
X450127Y153150D01*
X450761Y152694D01*
X451384Y152223D01*
X451995Y151736D01*
X452593Y151235D01*
X453180Y150720D01*
X453753Y150190D01*
X454314Y149646D01*
X454861Y149089D01*
X455394Y148518D01*
X455913Y147935D01*
X456418Y147339D01*
X456908Y146731D01*
X457382Y146112D01*
X457842Y145480D01*
X458286Y144838D01*
X458714Y144185D01*
X459126Y143522D01*
X459522Y142849D01*
X459901Y142166D01*
X460264Y141475D01*
X460609Y140775D01*
X460937Y140066D01*
X461248Y139350D01*
X461541Y138626D01*
X461817Y137895D01*
X462074Y137158D01*
X462313Y136415D01*
X462535Y135666D01*
X462737Y134912D01*
X462921Y134153D01*
X463087Y133390D01*
X463234Y132624D01*
X463362Y131853D01*
X463471Y131080D01*
X463562Y130305D01*
X463633Y129527D01*
X463685Y128748D01*
X463718Y127968D01*
X463732Y127187D01*
X463727Y126406D01*
X463703Y125626D01*
X463660Y124846D01*
X463598Y124068D01*
X463517Y123291D01*
X463417Y122517D01*
X463298Y121745D01*
X463160Y120977D01*
X463003Y120212D01*
X462828Y119451D01*
X462634Y118695D01*
X462422Y117943D01*
X462191Y117197D01*
X461942Y116457D01*
X461676Y115723D01*
X461391Y114996D01*
X461089Y114276D01*
X460769Y113564D01*
X460432Y112860D01*
X460077Y112164D01*
X459706Y111477D01*
X459318Y110799D01*
X458914Y110131D01*
X458493Y109474D01*
X458057Y108826D01*
X457605Y108190D01*
X457137Y107564D01*
X456654Y106951D01*
X456157Y106349D01*
X455645Y105760D01*
X455118Y105183D01*
X454578Y104619D01*
X454024Y104069D01*
X453456Y103533D01*
X452876Y103010D01*
X452283Y102502D01*
X451678Y102009D01*
X451061Y101530D01*
X450917Y101722D01*
X451530Y102197D01*
X452130Y102687D01*
X452718Y103191D01*
X453294Y103710D01*
X453857Y104242D01*
X454407Y104788D01*
X454943Y105348D01*
X455466Y105920D01*
X455974Y106505D01*
X456468Y107102D01*
X456947Y107711D01*
X457411Y108332D01*
X457860Y108963D01*
X458293Y109606D01*
X458711Y110259D01*
X459112Y110922D01*
X459497Y111594D01*
X459865Y112276D01*
X460217Y112967D01*
X460551Y113666D01*
X460869Y114373D01*
X461169Y115087D01*
X461451Y115809D01*
X461716Y116537D01*
X461963Y117272D01*
X462192Y118012D01*
X462402Y118758D01*
X462595Y119508D01*
X462769Y120264D01*
X462924Y121023D01*
X463061Y121786D01*
X463179Y122551D01*
X463279Y123320D01*
X463359Y124091D01*
X463421Y124863D01*
X463464Y125637D01*
X463488Y126411D01*
X463492Y127186D01*
X463478Y127961D01*
X463445Y128735D01*
X463394Y129509D01*
X463323Y130280D01*
X463233Y131050D01*
X463125Y131817D01*
X462998Y132582D01*
X462852Y133343D01*
X462687Y134100D01*
X462505Y134853D01*
X462303Y135602D01*
X462084Y136345D01*
X461846Y137082D01*
X461591Y137814D01*
X461318Y138539D01*
X461027Y139257D01*
X460718Y139968D01*
X460393Y140671D01*
X460050Y141366D01*
X459690Y142053D01*
X459314Y142730D01*
X458921Y143398D01*
X458512Y144056D01*
X458087Y144704D01*
X457646Y145342D01*
X457190Y145968D01*
X456719Y146583D01*
X456232Y147187D01*
X455732Y147778D01*
X455216Y148357D01*
X454687Y148923D01*
X454144Y149476D01*
X453588Y150016D01*
X453019Y150542D01*
X452437Y151053D01*
X451843Y151551D01*
X451236Y152033D01*
X450619Y152501D01*
X449990Y152954D01*
X449350Y153391D01*
X448699Y153812D01*
X448038Y154217D01*
X447368Y154606D01*
X446689Y154978D01*
X446000Y155334D01*
X445303Y155673D01*
X444598Y155994D01*
X443885Y156298D01*
X443165Y156585D01*
X442439Y156854D01*
X441706Y157105D01*
X440967Y157338D01*
X440222Y157553D01*
X439473Y157750D01*
X438718Y157929D01*
X437960Y158089D01*
X437198Y158230D01*
X436433Y158353D01*
X435665Y158456D01*
X434895Y158542D01*
X434123Y158608D01*
X433349Y158655D01*
X432575Y158684D01*
X431800Y158693D01*
X431025Y158684D01*
X430251Y158655D01*
X429477Y158608D01*
X428705Y158542D01*
X427935Y158456D01*
X427167Y158353D01*
X426402Y158230D01*
X425640Y158089D01*
X424882Y157929D01*
X424127Y157750D01*
X423378Y157553D01*
X422633Y157338D01*
X421894Y157105D01*
X421161Y156854D01*
X420435Y156585D01*
X419715Y156298D01*
X419002Y155994D01*
X418297Y155673D01*
X417600Y155334D01*
X416911Y154978D01*
X416232Y154606D01*
X415562Y154217D01*
X414901Y153812D01*
X414250Y153391D01*
X413610Y152954D01*
X412981Y152501D01*
X412364Y152033D01*
X411757Y151551D01*
X411163Y151053D01*
X410581Y150542D01*
X410012Y150016D01*
X409456Y149476D01*
X408913Y148923D01*
X408384Y148357D01*
X407868Y147778D01*
X407368Y147187D01*
X406881Y146583D01*
X406410Y145968D01*
X405954Y145342D01*
X405513Y144704D01*
X405088Y144056D01*
X404679Y143398D01*
X404286Y142730D01*
X403910Y142053D01*
X403550Y141366D01*
X403207Y140671D01*
X402882Y139968D01*
X402573Y139257D01*
X402282Y138539D01*
X402009Y137814D01*
X401754Y137082D01*
X401516Y136345D01*
X401297Y135602D01*
X401095Y134853D01*
X400913Y134100D01*
X400748Y133343D01*
X400602Y132582D01*
X400475Y131817D01*
X400367Y131050D01*
X400277Y130280D01*
X400206Y129509D01*
X400155Y128735D01*
X400122Y127961D01*
X400108Y127186D01*
X400112Y126411D01*
X400136Y125637D01*
X400179Y124863D01*
X400241Y124091D01*
X400321Y123320D01*
X400421Y122551D01*
X400539Y121786D01*
X400676Y121023D01*
X400831Y120264D01*
X401005Y119508D01*
X401198Y118758D01*
X401408Y118012D01*
X401637Y117272D01*
X401884Y116537D01*
X402149Y115809D01*
X402431Y115087D01*
X402731Y114373D01*
X403049Y113666D01*
X403383Y112967D01*
X403735Y112276D01*
X404103Y111594D01*
X404488Y110922D01*
X404889Y110259D01*
X405307Y109606D01*
X405740Y108963D01*
X406189Y108332D01*
X406653Y107711D01*
X407132Y107102D01*
X407626Y106505D01*
X408134Y105920D01*
X408657Y105348D01*
X409193Y104788D01*
X409743Y104242D01*
X410306Y103710D01*
X410882Y103191D01*
X411470Y102687D01*
X412070Y102197D01*
X412683Y101722D01*
X412827Y101914D01*
X412219Y102385D01*
X411623Y102871D01*
X411039Y103372D01*
X410468Y103887D01*
X409909Y104415D01*
X409363Y104957D01*
X408831Y105512D01*
X408313Y106080D01*
X407808Y106661D01*
X407318Y107253D01*
X406843Y107858D01*
X406382Y108474D01*
X405937Y109101D01*
X405507Y109738D01*
X405093Y110386D01*
X404695Y111044D01*
X404313Y111712D01*
X403947Y112388D01*
X403598Y113074D01*
X403266Y113767D01*
X402951Y114469D01*
X402653Y115178D01*
X402373Y115894D01*
X402110Y116617D01*
X401865Y117346D01*
X401638Y118081D01*
X401429Y118821D01*
X401238Y119566D01*
X401066Y120315D01*
X400911Y121069D01*
X400776Y121826D01*
X400658Y122586D01*
X400560Y123348D01*
X400480Y124113D01*
X400419Y124880D01*
X400376Y125648D01*
X400352Y126417D01*
X400348Y127186D01*
X400361Y127954D01*
X400394Y128723D01*
X400446Y129490D01*
X400516Y130256D01*
X400605Y131020D01*
X400713Y131781D01*
X400839Y132540D01*
X400983Y133295D01*
X401147Y134047D01*
X401328Y134794D01*
X401528Y135537D01*
X401745Y136274D01*
X401981Y137007D01*
X402235Y137733D01*
X402506Y138452D01*
X402795Y139165D01*
X403101Y139871D01*
X403424Y140568D01*
X403764Y141258D01*
X404121Y141939D01*
X404495Y142611D01*
X404885Y143274D01*
X405291Y143928D01*
X405712Y144571D01*
X406150Y145203D01*
X406603Y145825D01*
X407070Y146435D01*
X407553Y147034D01*
X408050Y147621D01*
X408561Y148195D01*
X409086Y148757D01*
X409625Y149306D01*
X410177Y149842D01*
X410742Y150363D01*
X411319Y150871D01*
X411909Y151365D01*
X412511Y151844D01*
X413124Y152308D01*
X413748Y152757D01*
X414384Y153191D01*
X415029Y153609D01*
X415685Y154011D01*
X416350Y154397D01*
X417024Y154766D01*
X417708Y155119D01*
X418399Y155455D01*
X419099Y155775D01*
X419806Y156077D01*
X420521Y156361D01*
X421242Y156628D01*
X421970Y156877D01*
X422703Y157109D01*
X423442Y157322D01*
X424186Y157517D01*
X424934Y157694D01*
X425687Y157853D01*
X426443Y157993D01*
X427202Y158115D01*
X427964Y158218D01*
X428729Y158303D01*
X429495Y158368D01*
X430262Y158415D01*
X431031Y158444D01*
X431800Y158453D01*
X432569Y158444D01*
X433338Y158415D01*
X434105Y158368D01*
X434871Y158303D01*
X435636Y158218D01*
X436398Y158115D01*
X437157Y157993D01*
X437913Y157853D01*
X438666Y157694D01*
X439414Y157517D01*
X440158Y157322D01*
X440897Y157109D01*
X441630Y156877D01*
X442358Y156628D01*
X443079Y156361D01*
X443794Y156077D01*
X444501Y155775D01*
X445201Y155455D01*
X445892Y155119D01*
X446576Y154766D01*
X447250Y154397D01*
X447915Y154011D01*
X448571Y153609D01*
X449216Y153191D01*
X449852Y152757D01*
X450476Y152308D01*
X451089Y151844D01*
X451691Y151365D01*
X452281Y150871D01*
X452858Y150363D01*
X453423Y149842D01*
X453975Y149306D01*
X454514Y148757D01*
X455039Y148195D01*
X455550Y147621D01*
X456047Y147034D01*
X456530Y146435D01*
X456997Y145825D01*
X457450Y145203D01*
X457888Y144571D01*
X458309Y143928D01*
X458715Y143274D01*
X459105Y142611D01*
X459479Y141939D01*
X459836Y141258D01*
X460176Y140568D01*
X460499Y139871D01*
X460805Y139165D01*
X461094Y138452D01*
X461365Y137733D01*
X461619Y137007D01*
X461855Y136274D01*
X462072Y135537D01*
X462272Y134794D01*
X462453Y134047D01*
X462617Y133295D01*
X462761Y132540D01*
X462887Y131781D01*
X462995Y131020D01*
X463084Y130256D01*
X463154Y129490D01*
X463206Y128723D01*
X463239Y127954D01*
X463252Y127186D01*
X463248Y126417D01*
X463224Y125648D01*
X463181Y124880D01*
X463120Y124113D01*
X463040Y123348D01*
X462942Y122586D01*
X462824Y121826D01*
X462689Y121069D01*
X462534Y120315D01*
X462362Y119566D01*
X462171Y118821D01*
X461962Y118081D01*
X461735Y117346D01*
X461490Y116617D01*
X461227Y115894D01*
X460947Y115178D01*
X460649Y114469D01*
X460334Y113767D01*
X460002Y113074D01*
X459653Y112388D01*
X459287Y111712D01*
X458905Y111044D01*
X458507Y110386D01*
X458093Y109738D01*
X457663Y109101D01*
X457218Y108474D01*
X456757Y107858D01*
X456282Y107253D01*
X455792Y106661D01*
X455287Y106080D01*
X454769Y105512D01*
X454237Y104957D01*
X453691Y104415D01*
X453132Y103887D01*
X452561Y103372D01*
X451977Y102871D01*
X451381Y102385D01*
X450773Y101914D01*
X450629Y102106D01*
X451232Y102574D01*
X451824Y103056D01*
X452403Y103553D01*
X452970Y104064D01*
X453525Y104588D01*
X454066Y105126D01*
X454594Y105677D01*
X455109Y106240D01*
X455609Y106817D01*
X456096Y107405D01*
X456567Y108005D01*
X457024Y108616D01*
X457466Y109238D01*
X457893Y109871D01*
X458304Y110514D01*
X458699Y111167D01*
X459078Y111829D01*
X459441Y112501D01*
X459787Y113181D01*
X460117Y113869D01*
X460429Y114565D01*
X460725Y115269D01*
X461003Y115980D01*
X461264Y116697D01*
X461507Y117420D01*
X461732Y118150D01*
X461939Y118884D01*
X462129Y119623D01*
X462300Y120367D01*
X462453Y121115D01*
X462588Y121866D01*
X462704Y122620D01*
X462802Y123377D01*
X462881Y124136D01*
X462942Y124897D01*
X462984Y125659D01*
X463008Y126422D01*
X463012Y127185D01*
X462999Y127948D01*
X462966Y128710D01*
X462915Y129472D01*
X462845Y130232D01*
X462757Y130990D01*
X462650Y131745D01*
X462525Y132498D01*
X462381Y133248D01*
X462219Y133994D01*
X462039Y134735D01*
X461841Y135472D01*
X461625Y136204D01*
X461391Y136931D01*
X461139Y137651D01*
X460870Y138365D01*
X460584Y139073D01*
X460280Y139773D01*
X459959Y140465D01*
X459622Y141150D01*
X459267Y141826D01*
X458897Y142493D01*
X458510Y143151D01*
X458107Y143799D01*
X457688Y144437D01*
X457254Y145065D01*
X456805Y145682D01*
X456341Y146287D01*
X455862Y146882D01*
X455369Y147464D01*
X454861Y148034D01*
X454340Y148592D01*
X453806Y149136D01*
X453258Y149668D01*
X452697Y150185D01*
X452124Y150689D01*
X451539Y151179D01*
X450942Y151655D01*
X450333Y152115D01*
X449714Y152561D01*
X449083Y152991D01*
X448443Y153406D01*
X447792Y153805D01*
X447132Y154188D01*
X446463Y154555D01*
X445785Y154905D01*
X445098Y155238D01*
X444404Y155555D01*
X443702Y155855D01*
X442993Y156137D01*
X442277Y156402D01*
X441555Y156649D01*
X440827Y156879D01*
X440094Y157091D01*
X439356Y157285D01*
X438613Y157460D01*
X437867Y157618D01*
X437116Y157757D01*
X436363Y157878D01*
X435606Y157980D01*
X434848Y158064D01*
X434088Y158129D01*
X433326Y158176D01*
X432563Y158204D01*
X431800Y158213D01*
X431037Y158204D01*
X430274Y158176D01*
X429512Y158129D01*
X428752Y158064D01*
X427994Y157980D01*
X427237Y157878D01*
X426484Y157757D01*
X425733Y157618D01*
X424987Y157460D01*
X424244Y157285D01*
X423506Y157091D01*
X422773Y156879D01*
X422045Y156649D01*
X421323Y156402D01*
X420607Y156137D01*
X419898Y155855D01*
X419196Y155555D01*
X418502Y155238D01*
X417815Y154905D01*
X417137Y154555D01*
X416468Y154188D01*
X415808Y153805D01*
X415157Y153406D01*
X414517Y152991D01*
X413886Y152561D01*
X413267Y152115D01*
X412658Y151655D01*
X412061Y151179D01*
X411476Y150689D01*
X410903Y150185D01*
X410342Y149668D01*
X409794Y149136D01*
X409260Y148592D01*
X408739Y148034D01*
X408231Y147464D01*
X407738Y146882D01*
X407259Y146287D01*
X406795Y145682D01*
X406346Y145065D01*
X405912Y144437D01*
X405493Y143799D01*
X405090Y143151D01*
X404703Y142493D01*
X404333Y141826D01*
X403978Y141150D01*
X403641Y140465D01*
X403320Y139773D01*
X403016Y139073D01*
X402730Y138365D01*
X402461Y137651D01*
X402209Y136931D01*
X401975Y136204D01*
X401759Y135472D01*
X401561Y134735D01*
X401381Y133994D01*
X401219Y133248D01*
X401075Y132498D01*
X400950Y131745D01*
X400843Y130990D01*
X400755Y130232D01*
X400685Y129472D01*
X400634Y128710D01*
X400601Y127948D01*
X400588Y127185D01*
X400592Y126422D01*
X400616Y125659D01*
X400658Y124897D01*
X400719Y124136D01*
X400798Y123377D01*
X400896Y122620D01*
X401012Y121866D01*
X401147Y121115D01*
X401300Y120367D01*
X401471Y119623D01*
X401661Y118884D01*
X401868Y118150D01*
X402093Y117420D01*
X402336Y116697D01*
X402597Y115980D01*
X402875Y115269D01*
X403171Y114565D01*
X403483Y113869D01*
X403813Y113181D01*
X404159Y112501D01*
X404522Y111829D01*
X404901Y111167D01*
X405296Y110514D01*
X405707Y109871D01*
X406134Y109238D01*
X406576Y108616D01*
X407033Y108005D01*
X407504Y107405D01*
X407991Y106817D01*
X408491Y106240D01*
X409006Y105677D01*
X409534Y105126D01*
X410075Y104588D01*
X410630Y104064D01*
X411197Y103553D01*
X411776Y103056D01*
X412368Y102574D01*
X412971Y102106D01*
X413115Y102298D01*
X412516Y102762D01*
X411930Y103241D01*
X411355Y103734D01*
X410792Y104241D01*
X410242Y104761D01*
X409705Y105295D01*
X409180Y105841D01*
X408670Y106401D01*
X408173Y106972D01*
X407691Y107556D01*
X407223Y108151D01*
X406769Y108758D01*
X406331Y109375D01*
X405907Y110003D01*
X405499Y110641D01*
X405107Y111289D01*
X404731Y111947D01*
X404371Y112613D01*
X404028Y113288D01*
X403701Y113971D01*
X403391Y114662D01*
X403097Y115360D01*
X402821Y116065D01*
X402563Y116777D01*
X402322Y117495D01*
X402098Y118218D01*
X401892Y118947D01*
X401704Y119681D01*
X401534Y120419D01*
X401382Y121161D01*
X401249Y121906D01*
X401133Y122654D01*
X401036Y123405D01*
X400958Y124159D01*
X400897Y124914D01*
X400856Y125670D01*
X400832Y126427D01*
X400828Y127184D01*
X400841Y127941D01*
X400874Y128698D01*
X400924Y129453D01*
X400994Y130207D01*
X401081Y130960D01*
X401187Y131710D01*
X401311Y132457D01*
X401454Y133200D01*
X401615Y133940D01*
X401793Y134676D01*
X401990Y135408D01*
X402204Y136134D01*
X402437Y136855D01*
X402686Y137570D01*
X402953Y138278D01*
X403238Y138980D01*
X403539Y139675D01*
X403858Y140362D01*
X404193Y141041D01*
X404544Y141712D01*
X404912Y142374D01*
X405296Y143027D01*
X405696Y143670D01*
X406111Y144303D01*
X406542Y144926D01*
X406987Y145538D01*
X407448Y146139D01*
X407923Y146729D01*
X408413Y147307D01*
X408916Y147873D01*
X409433Y148426D01*
X409964Y148966D01*
X410507Y149493D01*
X411064Y150007D01*
X411632Y150507D01*
X412213Y150993D01*
X412806Y151465D01*
X413409Y151922D01*
X414024Y152364D01*
X414650Y152791D01*
X415285Y153203D01*
X415931Y153599D01*
X416586Y153979D01*
X417250Y154343D01*
X417923Y154690D01*
X418604Y155021D01*
X419293Y155336D01*
X419990Y155633D01*
X420693Y155913D01*
X421403Y156176D01*
X422120Y156421D01*
X422842Y156649D01*
X423570Y156859D01*
X424302Y157052D01*
X425039Y157226D01*
X425780Y157382D01*
X426525Y157520D01*
X427272Y157640D01*
X428023Y157742D01*
X428776Y157825D01*
X429530Y157890D01*
X430286Y157936D01*
X431043Y157964D01*
X431800Y157973D01*
X432557Y157964D01*
X433314Y157936D01*
X434070Y157890D01*
X434824Y157825D01*
X435577Y157742D01*
X436328Y157640D01*
X437075Y157520D01*
X437820Y157382D01*
X438561Y157226D01*
X439298Y157052D01*
X440030Y156859D01*
X440758Y156649D01*
X441480Y156421D01*
X442197Y156176D01*
X442907Y155913D01*
X443610Y155633D01*
X444307Y155336D01*
X444996Y155021D01*
X445677Y154690D01*
X446350Y154343D01*
X447014Y153979D01*
X447669Y153599D01*
X448315Y153203D01*
X448950Y152791D01*
X449576Y152364D01*
X450191Y151922D01*
X450794Y151465D01*
X451387Y150993D01*
X451968Y150507D01*
X452536Y150007D01*
X453093Y149493D01*
X453636Y148966D01*
X454167Y148426D01*
X454684Y147873D01*
X455187Y147307D01*
X455677Y146729D01*
X456152Y146139D01*
X456613Y145538D01*
X457058Y144926D01*
X457489Y144303D01*
X457904Y143670D01*
X458304Y143027D01*
X458688Y142374D01*
X459056Y141712D01*
X459407Y141041D01*
X459742Y140362D01*
X460061Y139675D01*
X460362Y138980D01*
X460647Y138278D01*
X460914Y137570D01*
X461163Y136855D01*
X461396Y136134D01*
X461610Y135408D01*
X461807Y134676D01*
X461985Y133940D01*
X462146Y133200D01*
X462289Y132457D01*
X462413Y131710D01*
X462519Y130960D01*
X462606Y130207D01*
X462676Y129453D01*
X462726Y128698D01*
X462759Y127941D01*
X462772Y127184D01*
X462768Y126427D01*
X462744Y125670D01*
X462703Y124914D01*
X462642Y124159D01*
X462564Y123405D01*
X462467Y122654D01*
X462351Y121906D01*
X462218Y121161D01*
X462066Y120419D01*
X461896Y119681D01*
X461708Y118947D01*
X461502Y118218D01*
X461278Y117495D01*
X461037Y116777D01*
X460779Y116065D01*
X460503Y115360D01*
X460209Y114662D01*
X459899Y113971D01*
X459572Y113288D01*
X459229Y112613D01*
X458869Y111947D01*
X458493Y111289D01*
X458101Y110641D01*
X457693Y110003D01*
X457269Y109375D01*
X456831Y108758D01*
X456377Y108151D01*
X455909Y107556D01*
X455427Y106972D01*
X454930Y106401D01*
X454420Y105841D01*
X453895Y105295D01*
X453358Y104761D01*
X452808Y104241D01*
X452245Y103734D01*
X451670Y103241D01*
X451084Y102762D01*
X450485Y102298D01*
X450341Y102490D01*
X450935Y102951D01*
X451517Y103426D01*
X452088Y103915D01*
X452646Y104418D01*
X453192Y104934D01*
X453725Y105464D01*
X454245Y106006D01*
X454751Y106561D01*
X455244Y107128D01*
X455723Y107707D01*
X456188Y108298D01*
X456638Y108900D01*
X457073Y109513D01*
X457493Y110136D01*
X457897Y110769D01*
X458286Y111412D01*
X458659Y112064D01*
X459017Y112725D01*
X459357Y113395D01*
X459682Y114072D01*
X459990Y114758D01*
X460280Y115451D01*
X460554Y116151D01*
X460811Y116857D01*
X461050Y117569D01*
X461272Y118287D01*
X461476Y119010D01*
X461663Y119738D01*
X461831Y120470D01*
X461982Y121207D01*
X462115Y121946D01*
X462229Y122689D01*
X462325Y123434D01*
X462403Y124181D01*
X462463Y124930D01*
X462505Y125681D01*
X462528Y126432D01*
X462532Y127183D01*
X462519Y127934D01*
X462487Y128685D01*
X462436Y129435D01*
X462368Y130183D01*
X462281Y130930D01*
X462176Y131674D01*
X462052Y132415D01*
X461911Y133153D01*
X461751Y133887D01*
X461574Y134617D01*
X461379Y135343D01*
X461166Y136064D01*
X460936Y136779D01*
X460688Y137488D01*
X460423Y138191D01*
X460141Y138888D01*
X459842Y139577D01*
X459526Y140259D01*
X459193Y140933D01*
X458845Y141598D01*
X458480Y142255D01*
X458099Y142903D01*
X457702Y143541D01*
X457290Y144169D01*
X456862Y144787D01*
X456420Y145395D01*
X455963Y145991D01*
X455491Y146576D01*
X455006Y147150D01*
X454506Y147711D01*
X453993Y148260D01*
X453467Y148796D01*
X452927Y149319D01*
X452375Y149829D01*
X451811Y150325D01*
X451235Y150808D01*
X450647Y151276D01*
X450048Y151729D01*
X449438Y152168D01*
X448817Y152592D01*
X448186Y153000D01*
X447546Y153393D01*
X446896Y153770D01*
X446237Y154131D01*
X445569Y154476D01*
X444893Y154804D01*
X444210Y155116D01*
X443519Y155411D01*
X442821Y155689D01*
X442116Y155950D01*
X441405Y156193D01*
X440688Y156420D01*
X439967Y156628D01*
X439240Y156819D01*
X438509Y156992D01*
X437773Y157147D01*
X437034Y157284D01*
X436292Y157403D01*
X435548Y157504D01*
X434801Y157586D01*
X434052Y157650D01*
X433302Y157696D01*
X432551Y157724D01*
X431800Y157733D01*
X431049Y157724D01*
X430298Y157696D01*
X429548Y157650D01*
X428799Y157586D01*
X428052Y157504D01*
X427308Y157403D01*
X426566Y157284D01*
X425827Y157147D01*
X425091Y156992D01*
X424360Y156819D01*
X423633Y156628D01*
X422912Y156420D01*
X422195Y156193D01*
X421484Y155950D01*
X420779Y155689D01*
X420081Y155411D01*
X419390Y155116D01*
X418707Y154804D01*
X418031Y154476D01*
X417363Y154131D01*
X416704Y153770D01*
X416054Y153393D01*
X415414Y153000D01*
X414783Y152592D01*
X414162Y152168D01*
X413552Y151729D01*
X412953Y151276D01*
X412365Y150808D01*
X411789Y150325D01*
X411225Y149829D01*
X410673Y149319D01*
X410133Y148796D01*
X409607Y148260D01*
X409094Y147711D01*
X408594Y147150D01*
X408109Y146576D01*
X407637Y145991D01*
X407180Y145395D01*
X406738Y144787D01*
X406310Y144169D01*
X405898Y143541D01*
X405501Y142903D01*
X405120Y142255D01*
X404755Y141598D01*
X404407Y140933D01*
X404074Y140259D01*
X403758Y139577D01*
X403459Y138888D01*
X403177Y138191D01*
X402912Y137488D01*
X402664Y136779D01*
X402434Y136064D01*
X402221Y135343D01*
X402026Y134617D01*
X401849Y133887D01*
X401689Y133153D01*
X401548Y132415D01*
X401424Y131674D01*
X401319Y130930D01*
X401232Y130183D01*
X401164Y129435D01*
X401113Y128685D01*
X401081Y127934D01*
X401068Y127183D01*
X401072Y126432D01*
X401095Y125681D01*
X401137Y124930D01*
X401197Y124181D01*
X401275Y123434D01*
X401371Y122689D01*
X401485Y121946D01*
X401618Y121207D01*
X401769Y120470D01*
X401937Y119738D01*
X402124Y119010D01*
X402328Y118287D01*
X402550Y117569D01*
X402789Y116857D01*
X403046Y116151D01*
X403320Y115451D01*
X403610Y114758D01*
X403918Y114072D01*
X404243Y113395D01*
X404583Y112725D01*
X404941Y112064D01*
X405314Y111412D01*
X405703Y110769D01*
X406107Y110136D01*
X406527Y109513D01*
X406962Y108900D01*
X407412Y108298D01*
X407877Y107707D01*
X408356Y107128D01*
X408849Y106561D01*
X409355Y106006D01*
X409875Y105464D01*
X410408Y104934D01*
X410954Y104418D01*
X411512Y103915D01*
X412083Y103426D01*
X412665Y102951D01*
X413259Y102490D01*
D13*
X406400Y127000D02*
X406408Y127623D01*
X406431Y128246D01*
X406469Y128869D01*
X406522Y129490D01*
X406591Y130109D01*
X406675Y130727D01*
X406774Y131342D01*
X406888Y131955D01*
X407017Y132565D01*
X407161Y133172D01*
X407320Y133775D01*
X407494Y134373D01*
X407682Y134968D01*
X407885Y135557D01*
X408102Y136141D01*
X408333Y136720D01*
X408579Y137293D01*
X408839Y137860D01*
X409112Y138420D01*
X409399Y138973D01*
X409700Y139520D01*
X410014Y140058D01*
X410341Y140589D01*
X410681Y141111D01*
X411033Y141626D01*
X411399Y142131D01*
X411776Y142627D01*
X412166Y143114D01*
X412567Y143591D01*
X412980Y144058D01*
X413404Y144514D01*
X413839Y144961D01*
X414286Y145396D01*
X414742Y145820D01*
X415209Y146233D01*
X415686Y146634D01*
X416173Y147024D01*
X416669Y147401D01*
X417174Y147767D01*
X417689Y148119D01*
X418211Y148459D01*
X418742Y148786D01*
X419280Y149100D01*
X419827Y149401D01*
X420380Y149688D01*
X420940Y149961D01*
X421507Y150221D01*
X422080Y150467D01*
X422659Y150698D01*
X423243Y150915D01*
X423832Y151118D01*
X424427Y151306D01*
X425025Y151480D01*
X425628Y151639D01*
X426235Y151783D01*
X426845Y151912D01*
X427458Y152026D01*
X428073Y152125D01*
X428691Y152209D01*
X429310Y152278D01*
X429931Y152331D01*
X430554Y152369D01*
X431177Y152392D01*
X431800Y152400D01*
X432423Y152392D01*
X433046Y152369D01*
X433669Y152331D01*
X434290Y152278D01*
X434909Y152209D01*
X435527Y152125D01*
X436142Y152026D01*
X436755Y151912D01*
X437365Y151783D01*
X437972Y151639D01*
X438575Y151480D01*
X439173Y151306D01*
X439768Y151118D01*
X440357Y150915D01*
X440941Y150698D01*
X441520Y150467D01*
X442093Y150221D01*
X442660Y149961D01*
X443220Y149688D01*
X443773Y149401D01*
X444320Y149100D01*
X444858Y148786D01*
X445389Y148459D01*
X445911Y148119D01*
X446426Y147767D01*
X446931Y147401D01*
X447427Y147024D01*
X447914Y146634D01*
X448391Y146233D01*
X448858Y145820D01*
X449314Y145396D01*
X449761Y144961D01*
X450196Y144514D01*
X450620Y144058D01*
X451033Y143591D01*
X451434Y143114D01*
X451824Y142627D01*
X452201Y142131D01*
X452567Y141626D01*
X452919Y141111D01*
X453259Y140589D01*
X453586Y140058D01*
X453900Y139520D01*
X454201Y138973D01*
X454488Y138420D01*
X454761Y137860D01*
X455021Y137293D01*
X455267Y136720D01*
X455498Y136141D01*
X455715Y135557D01*
X455918Y134968D01*
X456106Y134373D01*
X456280Y133775D01*
X456439Y133172D01*
X456583Y132565D01*
X456712Y131955D01*
X456826Y131342D01*
X456925Y130727D01*
X457009Y130109D01*
X457078Y129490D01*
X457131Y128869D01*
X457169Y128246D01*
X457192Y127623D01*
X457200Y127000D01*
X457192Y126377D01*
X457169Y125754D01*
X457131Y125131D01*
X457078Y124510D01*
X457009Y123891D01*
X456925Y123273D01*
X456826Y122658D01*
X456712Y122045D01*
X456583Y121435D01*
X456439Y120828D01*
X456280Y120225D01*
X456106Y119627D01*
X455918Y119032D01*
X455715Y118443D01*
X455498Y117859D01*
X455267Y117280D01*
X455021Y116707D01*
X454761Y116140D01*
X454488Y115580D01*
X454201Y115027D01*
X453900Y114480D01*
X453586Y113942D01*
X453259Y113411D01*
X452919Y112889D01*
X452567Y112374D01*
X452201Y111869D01*
X451824Y111373D01*
X451434Y110886D01*
X451033Y110409D01*
X450620Y109942D01*
X450196Y109486D01*
X449761Y109039D01*
X449314Y108604D01*
X448858Y108180D01*
X448391Y107767D01*
X447914Y107366D01*
X447427Y106976D01*
X446931Y106599D01*
X446426Y106233D01*
X445911Y105881D01*
X445389Y105541D01*
X444858Y105214D01*
X444320Y104900D01*
X443773Y104599D01*
X443220Y104312D01*
X442660Y104039D01*
X442093Y103779D01*
X441520Y103533D01*
X440941Y103302D01*
X440357Y103085D01*
X439768Y102882D01*
X439173Y102694D01*
X438575Y102520D01*
X437972Y102361D01*
X437365Y102217D01*
X436755Y102088D01*
X436142Y101974D01*
X435527Y101875D01*
X434909Y101791D01*
X434290Y101722D01*
X433669Y101669D01*
X433046Y101631D01*
X432423Y101608D01*
X431800Y101600D01*
X431177Y101608D01*
X430554Y101631D01*
X429931Y101669D01*
X429310Y101722D01*
X428691Y101791D01*
X428073Y101875D01*
X427458Y101974D01*
X426845Y102088D01*
X426235Y102217D01*
X425628Y102361D01*
X425025Y102520D01*
X424427Y102694D01*
X423832Y102882D01*
X423243Y103085D01*
X422659Y103302D01*
X422080Y103533D01*
X421507Y103779D01*
X420940Y104039D01*
X420380Y104312D01*
X419827Y104599D01*
X419280Y104900D01*
X418742Y105214D01*
X418211Y105541D01*
X417689Y105881D01*
X417174Y106233D01*
X416669Y106599D01*
X416173Y106976D01*
X415686Y107366D01*
X415209Y107767D01*
X414742Y108180D01*
X414286Y108604D01*
X413839Y109039D01*
X413404Y109486D01*
X412980Y109942D01*
X412567Y110409D01*
X412166Y110886D01*
X411776Y111373D01*
X411399Y111869D01*
X411033Y112374D01*
X410681Y112889D01*
X410341Y113411D01*
X410014Y113942D01*
X409700Y114480D01*
X409399Y115027D01*
X409112Y115580D01*
X408839Y116140D01*
X408579Y116707D01*
X408333Y117280D01*
X408102Y117859D01*
X407885Y118443D01*
X407682Y119032D01*
X407494Y119627D01*
X407320Y120225D01*
X407161Y120828D01*
X407017Y121435D01*
X406888Y122045D01*
X406774Y122658D01*
X406675Y123273D01*
X406591Y123891D01*
X406522Y124510D01*
X406469Y125131D01*
X406431Y125754D01*
X406408Y126377D01*
X406400Y127000D01*
D11*
X437769Y56667D02*
X449199Y56667D01*
X449199Y61747D01*
X449199Y66573D02*
X449199Y71653D01*
X449199Y66573D02*
X437769Y66573D01*
X437769Y71653D01*
X442849Y70383D02*
X442849Y66573D01*
X437769Y76454D02*
X449199Y76454D01*
X437769Y76454D02*
X437769Y79629D01*
X437771Y79740D01*
X437777Y79850D01*
X437786Y79961D01*
X437800Y80071D01*
X437817Y80180D01*
X437838Y80289D01*
X437863Y80397D01*
X437892Y80504D01*
X437924Y80610D01*
X437960Y80715D01*
X438000Y80818D01*
X438043Y80920D01*
X438090Y81021D01*
X438141Y81120D01*
X438194Y81217D01*
X438251Y81311D01*
X438312Y81404D01*
X438375Y81495D01*
X438442Y81584D01*
X438512Y81670D01*
X438585Y81753D01*
X438660Y81835D01*
X438738Y81913D01*
X438820Y81988D01*
X438903Y82061D01*
X438989Y82131D01*
X439078Y82198D01*
X439169Y82261D01*
X439262Y82322D01*
X439357Y82379D01*
X439453Y82432D01*
X439552Y82483D01*
X439653Y82530D01*
X439755Y82573D01*
X439858Y82613D01*
X439963Y82649D01*
X440069Y82681D01*
X440176Y82710D01*
X440284Y82735D01*
X440393Y82756D01*
X440502Y82773D01*
X440612Y82787D01*
X440723Y82796D01*
X440833Y82802D01*
X440944Y82804D01*
X446024Y82804D01*
X446135Y82802D01*
X446245Y82796D01*
X446356Y82787D01*
X446466Y82773D01*
X446575Y82756D01*
X446684Y82735D01*
X446792Y82710D01*
X446899Y82681D01*
X447005Y82649D01*
X447110Y82613D01*
X447213Y82573D01*
X447315Y82530D01*
X447416Y82483D01*
X447515Y82432D01*
X447612Y82379D01*
X447706Y82322D01*
X447799Y82261D01*
X447890Y82198D01*
X447979Y82131D01*
X448065Y82061D01*
X448148Y81988D01*
X448230Y81913D01*
X448308Y81835D01*
X448383Y81753D01*
X448456Y81670D01*
X448526Y81584D01*
X448593Y81495D01*
X448656Y81404D01*
X448717Y81311D01*
X448774Y81217D01*
X448827Y81120D01*
X448878Y81021D01*
X448925Y80920D01*
X448968Y80818D01*
X449008Y80715D01*
X449044Y80610D01*
X449076Y80504D01*
X449105Y80397D01*
X449130Y80289D01*
X449151Y80180D01*
X449168Y80071D01*
X449182Y79961D01*
X449191Y79850D01*
X449197Y79740D01*
X449199Y79629D01*
X449199Y76454D01*
X440309Y88265D02*
X437769Y91440D01*
X449199Y91440D01*
X449199Y88265D02*
X449199Y94615D01*
D12*
X439420Y190500D02*
X439420Y241300D01*
X439420Y190500D02*
X431800Y190500D01*
X424180Y190500D01*
X424180Y241300D01*
X431800Y241300D01*
X439420Y241300D01*
X431800Y190500D02*
X431800Y187960D01*
X431800Y241300D02*
X431800Y243840D01*
D11*
X442595Y211848D02*
X447421Y211848D01*
X442595Y211848D02*
X442595Y213189D01*
X442597Y213260D01*
X442603Y213332D01*
X442612Y213402D01*
X442625Y213472D01*
X442642Y213542D01*
X442663Y213610D01*
X442687Y213677D01*
X442715Y213743D01*
X442746Y213807D01*
X442781Y213870D01*
X442819Y213930D01*
X442860Y213989D01*
X442904Y214045D01*
X442951Y214099D01*
X443000Y214150D01*
X443053Y214198D01*
X443108Y214244D01*
X443165Y214286D01*
X443225Y214326D01*
X443286Y214362D01*
X443350Y214395D01*
X443415Y214424D01*
X443481Y214450D01*
X443549Y214473D01*
X443618Y214492D01*
X443688Y214507D01*
X443758Y214518D01*
X443829Y214526D01*
X443900Y214530D01*
X443972Y214530D01*
X444043Y214526D01*
X444114Y214518D01*
X444184Y214507D01*
X444254Y214492D01*
X444323Y214473D01*
X444391Y214450D01*
X444457Y214424D01*
X444522Y214395D01*
X444586Y214362D01*
X444647Y214326D01*
X444707Y214286D01*
X444764Y214244D01*
X444819Y214198D01*
X444872Y214150D01*
X444921Y214099D01*
X444968Y214045D01*
X445012Y213989D01*
X445053Y213930D01*
X445091Y213870D01*
X445126Y213807D01*
X445157Y213743D01*
X445185Y213677D01*
X445209Y213610D01*
X445230Y213542D01*
X445247Y213472D01*
X445260Y213402D01*
X445269Y213332D01*
X445275Y213260D01*
X445277Y213189D01*
X445276Y213189D02*
X445276Y211848D01*
X445276Y213457D02*
X447421Y214529D01*
X442595Y218745D02*
X442597Y218813D01*
X442603Y218880D01*
X442612Y218947D01*
X442625Y219014D01*
X442642Y219079D01*
X442663Y219144D01*
X442687Y219207D01*
X442715Y219269D01*
X442746Y219329D01*
X442780Y219387D01*
X442818Y219443D01*
X442858Y219498D01*
X442902Y219549D01*
X442949Y219598D01*
X442998Y219645D01*
X443049Y219689D01*
X443104Y219729D01*
X443160Y219767D01*
X443218Y219801D01*
X443278Y219832D01*
X443340Y219860D01*
X443403Y219884D01*
X443468Y219905D01*
X443533Y219922D01*
X443600Y219935D01*
X443667Y219944D01*
X443734Y219950D01*
X443802Y219952D01*
X442595Y218745D02*
X442597Y218667D01*
X442603Y218589D01*
X442613Y218512D01*
X442626Y218435D01*
X442644Y218359D01*
X442665Y218284D01*
X442690Y218210D01*
X442719Y218138D01*
X442751Y218067D01*
X442787Y217998D01*
X442826Y217930D01*
X442869Y217865D01*
X442915Y217802D01*
X442964Y217741D01*
X443016Y217683D01*
X443071Y217628D01*
X443128Y217575D01*
X443188Y217526D01*
X443251Y217479D01*
X443316Y217436D01*
X443382Y217396D01*
X443451Y217359D01*
X443522Y217326D01*
X443594Y217296D01*
X443668Y217270D01*
X444740Y219550D02*
X444691Y219599D01*
X444639Y219646D01*
X444584Y219689D01*
X444527Y219730D01*
X444468Y219768D01*
X444407Y219802D01*
X444344Y219833D01*
X444280Y219861D01*
X444214Y219885D01*
X444148Y219905D01*
X444080Y219922D01*
X444011Y219935D01*
X443942Y219944D01*
X443872Y219950D01*
X443802Y219952D01*
X444740Y219550D02*
X447421Y217271D01*
X447421Y219952D01*
M02*
