G04 EAGLE Gerber RS-274X export*
G75*
%MOMM*%
%FSLAX34Y34*%
%LPD*%
%INTop Copper*%
%IPPOS*%
%AMOC8*
5,1,8,0,0,1.08239X$1,22.5*%
G01*
%ADD10C,1.651000*%
%ADD11R,1.651000X1.651000*%
%ADD12C,1.879600*%
%ADD13C,2.000000*%
%ADD14C,1.524000*%
%ADD15C,1.625600*%
%ADD16P,1.814519X8X292.500000*%
%ADD17C,0.609600*%
%ADD18C,0.508000*%


D10*
X393700Y101600D03*
X368300Y101600D03*
X393700Y50800D03*
X368300Y50800D03*
D11*
X101600Y88700D03*
D10*
X101600Y63700D03*
X330200Y101600D03*
X330200Y50800D03*
D12*
X254000Y50800D03*
X254000Y76200D03*
X254000Y101600D03*
D13*
X111600Y261100D02*
X91600Y261100D01*
X91600Y322100D02*
X111600Y322100D01*
X53600Y302100D02*
X53600Y282100D01*
D12*
X203200Y292100D03*
X228600Y292100D03*
X114300Y127000D03*
X38100Y127000D03*
X145288Y86106D03*
X210312Y86106D03*
X145288Y40894D03*
X210312Y40894D03*
D14*
X304800Y259080D02*
X304800Y274320D01*
X330200Y274320D02*
X330200Y259080D01*
X355600Y259080D02*
X355600Y274320D01*
D15*
X63500Y152400D03*
X88900Y152400D03*
X114300Y152400D03*
X139700Y152400D03*
X165100Y152400D03*
X190500Y152400D03*
X215900Y152400D03*
X241300Y152400D03*
X266700Y152400D03*
X292100Y152400D03*
X317500Y152400D03*
X342900Y152400D03*
X368300Y152400D03*
X393700Y152400D03*
X393700Y228600D03*
X368300Y228600D03*
X342900Y228600D03*
X317500Y228600D03*
X292100Y228600D03*
X266700Y228600D03*
X241300Y228600D03*
X215900Y228600D03*
X190500Y228600D03*
X165100Y228600D03*
X139700Y228600D03*
X114300Y228600D03*
X88900Y228600D03*
X63500Y228600D03*
D12*
X38100Y63500D03*
X38100Y38100D03*
D16*
X431800Y139700D03*
X431800Y114300D03*
D12*
X431800Y254000D03*
X431800Y177800D03*
D17*
X266700Y228600D02*
X241300Y228600D01*
X256931Y213946D02*
X266700Y228600D01*
X256931Y213946D02*
X215900Y152400D01*
X254000Y76200D02*
X280670Y85090D01*
X280670Y118110D02*
X254000Y127000D01*
X241300Y152400D01*
D18*
X280670Y118110D02*
X280670Y85090D01*
X203200Y292100D02*
X128482Y287982D01*
X101600Y261100D01*
D17*
X190500Y152400D02*
X228600Y101600D01*
X228600Y63500D01*
X241300Y50800D01*
X254000Y50800D01*
X145288Y86106D02*
X139700Y152400D01*
D18*
X228600Y292100D02*
X317500Y292100D01*
X330200Y279400D01*
D17*
X330200Y266700D01*
M02*
